G04 #@! TF.GenerationSoftware,KiCad,Pcbnew,7.0.6-0*
G04 #@! TF.CreationDate,2024-08-28T16:36:48-06:00*
G04 #@! TF.ProjectId,card-debug-board-2,63617264-2d64-4656-9275-672d626f6172,rev?*
G04 #@! TF.SameCoordinates,Original*
G04 #@! TF.FileFunction,Legend,Bot*
G04 #@! TF.FilePolarity,Positive*
%FSLAX46Y46*%
G04 Gerber Fmt 4.6, Leading zero omitted, Abs format (unit mm)*
G04 Created by KiCad (PCBNEW 7.0.6-0) date 2024-08-28 16:36:48*
%MOMM*%
%LPD*%
G01*
G04 APERTURE LIST*
%ADD10C,0.200000*%
%ADD11C,1.100000*%
%ADD12C,2.000000*%
%ADD13C,1.800000*%
%ADD14C,0.800000*%
%ADD15R,1.700000X1.700000*%
%ADD16O,1.700000X1.700000*%
%ADD17R,1.500000X1.600000*%
%ADD18C,1.600000*%
%ADD19C,3.000000*%
G04 APERTURE END LIST*
D10*
X159030326Y-87827480D02*
X159658898Y-87827480D01*
X159344612Y-87827480D02*
X159344612Y-86727480D01*
X159344612Y-86727480D02*
X159449374Y-86884623D01*
X159449374Y-86884623D02*
X159554136Y-86989385D01*
X159554136Y-86989385D02*
X159658898Y-87041766D01*
X158558898Y-87722719D02*
X158506517Y-87775100D01*
X158506517Y-87775100D02*
X158558898Y-87827480D01*
X158558898Y-87827480D02*
X158611279Y-87775100D01*
X158611279Y-87775100D02*
X158558898Y-87722719D01*
X158558898Y-87722719D02*
X158558898Y-87827480D01*
X158558898Y-87146528D02*
X158506517Y-87198909D01*
X158506517Y-87198909D02*
X158558898Y-87251290D01*
X158558898Y-87251290D02*
X158611279Y-87198909D01*
X158611279Y-87198909D02*
X158558898Y-87146528D01*
X158558898Y-87146528D02*
X158558898Y-87251290D01*
X157354136Y-86727480D02*
X156987469Y-87827480D01*
X156987469Y-87827480D02*
X156620802Y-86727480D01*
X156254136Y-86727480D02*
X156254136Y-87617957D01*
X156254136Y-87617957D02*
X156201755Y-87722719D01*
X156201755Y-87722719D02*
X156149374Y-87775100D01*
X156149374Y-87775100D02*
X156044612Y-87827480D01*
X156044612Y-87827480D02*
X155835088Y-87827480D01*
X155835088Y-87827480D02*
X155730326Y-87775100D01*
X155730326Y-87775100D02*
X155677945Y-87722719D01*
X155677945Y-87722719D02*
X155625564Y-87617957D01*
X155625564Y-87617957D02*
X155625564Y-86727480D01*
X155154136Y-87775100D02*
X154996993Y-87827480D01*
X154996993Y-87827480D02*
X154735088Y-87827480D01*
X154735088Y-87827480D02*
X154630326Y-87775100D01*
X154630326Y-87775100D02*
X154577945Y-87722719D01*
X154577945Y-87722719D02*
X154525564Y-87617957D01*
X154525564Y-87617957D02*
X154525564Y-87513195D01*
X154525564Y-87513195D02*
X154577945Y-87408433D01*
X154577945Y-87408433D02*
X154630326Y-87356052D01*
X154630326Y-87356052D02*
X154735088Y-87303671D01*
X154735088Y-87303671D02*
X154944612Y-87251290D01*
X154944612Y-87251290D02*
X155049374Y-87198909D01*
X155049374Y-87198909D02*
X155101755Y-87146528D01*
X155101755Y-87146528D02*
X155154136Y-87041766D01*
X155154136Y-87041766D02*
X155154136Y-86937004D01*
X155154136Y-86937004D02*
X155101755Y-86832242D01*
X155101755Y-86832242D02*
X155049374Y-86779861D01*
X155049374Y-86779861D02*
X154944612Y-86727480D01*
X154944612Y-86727480D02*
X154682707Y-86727480D01*
X154682707Y-86727480D02*
X154525564Y-86779861D01*
X153687469Y-87251290D02*
X153530326Y-87303671D01*
X153530326Y-87303671D02*
X153477945Y-87356052D01*
X153477945Y-87356052D02*
X153425564Y-87460814D01*
X153425564Y-87460814D02*
X153425564Y-87617957D01*
X153425564Y-87617957D02*
X153477945Y-87722719D01*
X153477945Y-87722719D02*
X153530326Y-87775100D01*
X153530326Y-87775100D02*
X153635088Y-87827480D01*
X153635088Y-87827480D02*
X154054136Y-87827480D01*
X154054136Y-87827480D02*
X154054136Y-86727480D01*
X154054136Y-86727480D02*
X153687469Y-86727480D01*
X153687469Y-86727480D02*
X153582707Y-86779861D01*
X153582707Y-86779861D02*
X153530326Y-86832242D01*
X153530326Y-86832242D02*
X153477945Y-86937004D01*
X153477945Y-86937004D02*
X153477945Y-87041766D01*
X153477945Y-87041766D02*
X153530326Y-87146528D01*
X153530326Y-87146528D02*
X153582707Y-87198909D01*
X153582707Y-87198909D02*
X153687469Y-87251290D01*
X153687469Y-87251290D02*
X154054136Y-87251290D01*
X152273184Y-87094147D02*
X151854136Y-87094147D01*
X152116041Y-86727480D02*
X152116041Y-87670338D01*
X152116041Y-87670338D02*
X152063660Y-87775100D01*
X152063660Y-87775100D02*
X151958898Y-87827480D01*
X151958898Y-87827480D02*
X151854136Y-87827480D01*
X151487470Y-87827480D02*
X151487470Y-86727480D01*
X151016041Y-87827480D02*
X151016041Y-87251290D01*
X151016041Y-87251290D02*
X151068422Y-87146528D01*
X151068422Y-87146528D02*
X151173184Y-87094147D01*
X151173184Y-87094147D02*
X151330327Y-87094147D01*
X151330327Y-87094147D02*
X151435089Y-87146528D01*
X151435089Y-87146528D02*
X151487470Y-87198909D01*
X150492232Y-87827480D02*
X150492232Y-87094147D01*
X150492232Y-87303671D02*
X150439851Y-87198909D01*
X150439851Y-87198909D02*
X150387470Y-87146528D01*
X150387470Y-87146528D02*
X150282708Y-87094147D01*
X150282708Y-87094147D02*
X150177946Y-87094147D01*
X149654137Y-87827480D02*
X149758899Y-87775100D01*
X149758899Y-87775100D02*
X149811280Y-87722719D01*
X149811280Y-87722719D02*
X149863661Y-87617957D01*
X149863661Y-87617957D02*
X149863661Y-87303671D01*
X149863661Y-87303671D02*
X149811280Y-87198909D01*
X149811280Y-87198909D02*
X149758899Y-87146528D01*
X149758899Y-87146528D02*
X149654137Y-87094147D01*
X149654137Y-87094147D02*
X149496994Y-87094147D01*
X149496994Y-87094147D02*
X149392232Y-87146528D01*
X149392232Y-87146528D02*
X149339851Y-87198909D01*
X149339851Y-87198909D02*
X149287470Y-87303671D01*
X149287470Y-87303671D02*
X149287470Y-87617957D01*
X149287470Y-87617957D02*
X149339851Y-87722719D01*
X149339851Y-87722719D02*
X149392232Y-87775100D01*
X149392232Y-87775100D02*
X149496994Y-87827480D01*
X149496994Y-87827480D02*
X149654137Y-87827480D01*
X148344613Y-87094147D02*
X148344613Y-87827480D01*
X148816042Y-87094147D02*
X148816042Y-87670338D01*
X148816042Y-87670338D02*
X148763661Y-87775100D01*
X148763661Y-87775100D02*
X148658899Y-87827480D01*
X148658899Y-87827480D02*
X148501756Y-87827480D01*
X148501756Y-87827480D02*
X148396994Y-87775100D01*
X148396994Y-87775100D02*
X148344613Y-87722719D01*
X147349375Y-87094147D02*
X147349375Y-87984623D01*
X147349375Y-87984623D02*
X147401756Y-88089385D01*
X147401756Y-88089385D02*
X147454137Y-88141766D01*
X147454137Y-88141766D02*
X147558899Y-88194147D01*
X147558899Y-88194147D02*
X147716042Y-88194147D01*
X147716042Y-88194147D02*
X147820804Y-88141766D01*
X147349375Y-87775100D02*
X147454137Y-87827480D01*
X147454137Y-87827480D02*
X147663661Y-87827480D01*
X147663661Y-87827480D02*
X147768423Y-87775100D01*
X147768423Y-87775100D02*
X147820804Y-87722719D01*
X147820804Y-87722719D02*
X147873185Y-87617957D01*
X147873185Y-87617957D02*
X147873185Y-87303671D01*
X147873185Y-87303671D02*
X147820804Y-87198909D01*
X147820804Y-87198909D02*
X147768423Y-87146528D01*
X147768423Y-87146528D02*
X147663661Y-87094147D01*
X147663661Y-87094147D02*
X147454137Y-87094147D01*
X147454137Y-87094147D02*
X147349375Y-87146528D01*
X146825566Y-87827480D02*
X146825566Y-86727480D01*
X146354137Y-87827480D02*
X146354137Y-87251290D01*
X146354137Y-87251290D02*
X146406518Y-87146528D01*
X146406518Y-87146528D02*
X146511280Y-87094147D01*
X146511280Y-87094147D02*
X146668423Y-87094147D01*
X146668423Y-87094147D02*
X146773185Y-87146528D01*
X146773185Y-87146528D02*
X146825566Y-87198909D01*
X144416042Y-87827480D02*
X145044614Y-87827480D01*
X144730328Y-87827480D02*
X144730328Y-86727480D01*
X144730328Y-86727480D02*
X144835090Y-86884623D01*
X144835090Y-86884623D02*
X144939852Y-86989385D01*
X144939852Y-86989385D02*
X145044614Y-87041766D01*
X143735090Y-86727480D02*
X143630328Y-86727480D01*
X143630328Y-86727480D02*
X143525566Y-86779861D01*
X143525566Y-86779861D02*
X143473185Y-86832242D01*
X143473185Y-86832242D02*
X143420804Y-86937004D01*
X143420804Y-86937004D02*
X143368423Y-87146528D01*
X143368423Y-87146528D02*
X143368423Y-87408433D01*
X143368423Y-87408433D02*
X143420804Y-87617957D01*
X143420804Y-87617957D02*
X143473185Y-87722719D01*
X143473185Y-87722719D02*
X143525566Y-87775100D01*
X143525566Y-87775100D02*
X143630328Y-87827480D01*
X143630328Y-87827480D02*
X143735090Y-87827480D01*
X143735090Y-87827480D02*
X143839852Y-87775100D01*
X143839852Y-87775100D02*
X143892233Y-87722719D01*
X143892233Y-87722719D02*
X143944614Y-87617957D01*
X143944614Y-87617957D02*
X143996995Y-87408433D01*
X143996995Y-87408433D02*
X143996995Y-87146528D01*
X143996995Y-87146528D02*
X143944614Y-86937004D01*
X143944614Y-86937004D02*
X143892233Y-86832242D01*
X143892233Y-86832242D02*
X143839852Y-86779861D01*
X143839852Y-86779861D02*
X143735090Y-86727480D01*
X142896995Y-87827480D02*
X142896995Y-86727480D01*
X142792233Y-87408433D02*
X142477947Y-87827480D01*
X142477947Y-87094147D02*
X142896995Y-87513195D01*
X141325567Y-87094147D02*
X140906519Y-87094147D01*
X141168424Y-87827480D02*
X141168424Y-86884623D01*
X141168424Y-86884623D02*
X141116043Y-86779861D01*
X141116043Y-86779861D02*
X141011281Y-86727480D01*
X141011281Y-86727480D02*
X140906519Y-86727480D01*
X140382710Y-87827480D02*
X140487472Y-87775100D01*
X140487472Y-87775100D02*
X140539853Y-87722719D01*
X140539853Y-87722719D02*
X140592234Y-87617957D01*
X140592234Y-87617957D02*
X140592234Y-87303671D01*
X140592234Y-87303671D02*
X140539853Y-87198909D01*
X140539853Y-87198909D02*
X140487472Y-87146528D01*
X140487472Y-87146528D02*
X140382710Y-87094147D01*
X140382710Y-87094147D02*
X140225567Y-87094147D01*
X140225567Y-87094147D02*
X140120805Y-87146528D01*
X140120805Y-87146528D02*
X140068424Y-87198909D01*
X140068424Y-87198909D02*
X140016043Y-87303671D01*
X140016043Y-87303671D02*
X140016043Y-87617957D01*
X140016043Y-87617957D02*
X140068424Y-87722719D01*
X140068424Y-87722719D02*
X140120805Y-87775100D01*
X140120805Y-87775100D02*
X140225567Y-87827480D01*
X140225567Y-87827480D02*
X140382710Y-87827480D01*
X139544615Y-87827480D02*
X139544615Y-87094147D01*
X139544615Y-87303671D02*
X139492234Y-87198909D01*
X139492234Y-87198909D02*
X139439853Y-87146528D01*
X139439853Y-87146528D02*
X139335091Y-87094147D01*
X139335091Y-87094147D02*
X139230329Y-87094147D01*
X137816044Y-86727480D02*
X137606520Y-86727480D01*
X137606520Y-86727480D02*
X137501758Y-86779861D01*
X137501758Y-86779861D02*
X137396996Y-86884623D01*
X137396996Y-86884623D02*
X137344615Y-87094147D01*
X137344615Y-87094147D02*
X137344615Y-87460814D01*
X137344615Y-87460814D02*
X137396996Y-87670338D01*
X137396996Y-87670338D02*
X137501758Y-87775100D01*
X137501758Y-87775100D02*
X137606520Y-87827480D01*
X137606520Y-87827480D02*
X137816044Y-87827480D01*
X137816044Y-87827480D02*
X137920806Y-87775100D01*
X137920806Y-87775100D02*
X138025568Y-87670338D01*
X138025568Y-87670338D02*
X138077949Y-87460814D01*
X138077949Y-87460814D02*
X138077949Y-87094147D01*
X138077949Y-87094147D02*
X138025568Y-86884623D01*
X138025568Y-86884623D02*
X137920806Y-86779861D01*
X137920806Y-86779861D02*
X137816044Y-86727480D01*
X136401758Y-87775100D02*
X136506520Y-87827480D01*
X136506520Y-87827480D02*
X136716044Y-87827480D01*
X136716044Y-87827480D02*
X136820806Y-87775100D01*
X136820806Y-87775100D02*
X136873187Y-87722719D01*
X136873187Y-87722719D02*
X136925568Y-87617957D01*
X136925568Y-87617957D02*
X136925568Y-87303671D01*
X136925568Y-87303671D02*
X136873187Y-87198909D01*
X136873187Y-87198909D02*
X136820806Y-87146528D01*
X136820806Y-87146528D02*
X136716044Y-87094147D01*
X136716044Y-87094147D02*
X136506520Y-87094147D01*
X136506520Y-87094147D02*
X136401758Y-87146528D01*
X136087473Y-87094147D02*
X135668425Y-87094147D01*
X135930330Y-86727480D02*
X135930330Y-87670338D01*
X135930330Y-87670338D02*
X135877949Y-87775100D01*
X135877949Y-87775100D02*
X135773187Y-87827480D01*
X135773187Y-87827480D02*
X135668425Y-87827480D01*
X134830330Y-87827480D02*
X134830330Y-87251290D01*
X134830330Y-87251290D02*
X134882711Y-87146528D01*
X134882711Y-87146528D02*
X134987473Y-87094147D01*
X134987473Y-87094147D02*
X135196997Y-87094147D01*
X135196997Y-87094147D02*
X135301759Y-87146528D01*
X134830330Y-87775100D02*
X134935092Y-87827480D01*
X134935092Y-87827480D02*
X135196997Y-87827480D01*
X135196997Y-87827480D02*
X135301759Y-87775100D01*
X135301759Y-87775100D02*
X135354140Y-87670338D01*
X135354140Y-87670338D02*
X135354140Y-87565576D01*
X135354140Y-87565576D02*
X135301759Y-87460814D01*
X135301759Y-87460814D02*
X135196997Y-87408433D01*
X135196997Y-87408433D02*
X134935092Y-87408433D01*
X134935092Y-87408433D02*
X134830330Y-87356052D01*
X134411283Y-87094147D02*
X134149378Y-87827480D01*
X134149378Y-87827480D02*
X133887473Y-87094147D01*
X133311283Y-87827480D02*
X133416045Y-87775100D01*
X133416045Y-87775100D02*
X133468426Y-87722719D01*
X133468426Y-87722719D02*
X133520807Y-87617957D01*
X133520807Y-87617957D02*
X133520807Y-87303671D01*
X133520807Y-87303671D02*
X133468426Y-87198909D01*
X133468426Y-87198909D02*
X133416045Y-87146528D01*
X133416045Y-87146528D02*
X133311283Y-87094147D01*
X133311283Y-87094147D02*
X133154140Y-87094147D01*
X133154140Y-87094147D02*
X133049378Y-87146528D01*
X133049378Y-87146528D02*
X132996997Y-87198909D01*
X132996997Y-87198909D02*
X132944616Y-87303671D01*
X132944616Y-87303671D02*
X132944616Y-87617957D01*
X132944616Y-87617957D02*
X132996997Y-87722719D01*
X132996997Y-87722719D02*
X133049378Y-87775100D01*
X133049378Y-87775100D02*
X133154140Y-87827480D01*
X133154140Y-87827480D02*
X133311283Y-87827480D01*
X131635093Y-86727480D02*
X131635093Y-87617957D01*
X131635093Y-87617957D02*
X131582712Y-87722719D01*
X131582712Y-87722719D02*
X131530331Y-87775100D01*
X131530331Y-87775100D02*
X131425569Y-87827480D01*
X131425569Y-87827480D02*
X131216045Y-87827480D01*
X131216045Y-87827480D02*
X131111283Y-87775100D01*
X131111283Y-87775100D02*
X131058902Y-87722719D01*
X131058902Y-87722719D02*
X131006521Y-87617957D01*
X131006521Y-87617957D02*
X131006521Y-86727480D01*
X130535093Y-87775100D02*
X130377950Y-87827480D01*
X130377950Y-87827480D02*
X130116045Y-87827480D01*
X130116045Y-87827480D02*
X130011283Y-87775100D01*
X130011283Y-87775100D02*
X129958902Y-87722719D01*
X129958902Y-87722719D02*
X129906521Y-87617957D01*
X129906521Y-87617957D02*
X129906521Y-87513195D01*
X129906521Y-87513195D02*
X129958902Y-87408433D01*
X129958902Y-87408433D02*
X130011283Y-87356052D01*
X130011283Y-87356052D02*
X130116045Y-87303671D01*
X130116045Y-87303671D02*
X130325569Y-87251290D01*
X130325569Y-87251290D02*
X130430331Y-87198909D01*
X130430331Y-87198909D02*
X130482712Y-87146528D01*
X130482712Y-87146528D02*
X130535093Y-87041766D01*
X130535093Y-87041766D02*
X130535093Y-86937004D01*
X130535093Y-86937004D02*
X130482712Y-86832242D01*
X130482712Y-86832242D02*
X130430331Y-86779861D01*
X130430331Y-86779861D02*
X130325569Y-86727480D01*
X130325569Y-86727480D02*
X130063664Y-86727480D01*
X130063664Y-86727480D02*
X129906521Y-86779861D01*
X129068426Y-87251290D02*
X128911283Y-87303671D01*
X128911283Y-87303671D02*
X128858902Y-87356052D01*
X128858902Y-87356052D02*
X128806521Y-87460814D01*
X128806521Y-87460814D02*
X128806521Y-87617957D01*
X128806521Y-87617957D02*
X128858902Y-87722719D01*
X128858902Y-87722719D02*
X128911283Y-87775100D01*
X128911283Y-87775100D02*
X129016045Y-87827480D01*
X129016045Y-87827480D02*
X129435093Y-87827480D01*
X129435093Y-87827480D02*
X129435093Y-86727480D01*
X129435093Y-86727480D02*
X129068426Y-86727480D01*
X129068426Y-86727480D02*
X128963664Y-86779861D01*
X128963664Y-86779861D02*
X128911283Y-86832242D01*
X128911283Y-86832242D02*
X128858902Y-86937004D01*
X128858902Y-86937004D02*
X128858902Y-87041766D01*
X128858902Y-87041766D02*
X128911283Y-87146528D01*
X128911283Y-87146528D02*
X128963664Y-87198909D01*
X128963664Y-87198909D02*
X129068426Y-87251290D01*
X129068426Y-87251290D02*
X129435093Y-87251290D01*
X159658898Y-88603242D02*
X159606517Y-88550861D01*
X159606517Y-88550861D02*
X159501755Y-88498480D01*
X159501755Y-88498480D02*
X159239850Y-88498480D01*
X159239850Y-88498480D02*
X159135088Y-88550861D01*
X159135088Y-88550861D02*
X159082707Y-88603242D01*
X159082707Y-88603242D02*
X159030326Y-88708004D01*
X159030326Y-88708004D02*
X159030326Y-88812766D01*
X159030326Y-88812766D02*
X159082707Y-88969909D01*
X159082707Y-88969909D02*
X159711279Y-89598480D01*
X159711279Y-89598480D02*
X159030326Y-89598480D01*
X158558898Y-89493719D02*
X158506517Y-89546100D01*
X158506517Y-89546100D02*
X158558898Y-89598480D01*
X158558898Y-89598480D02*
X158611279Y-89546100D01*
X158611279Y-89546100D02*
X158558898Y-89493719D01*
X158558898Y-89493719D02*
X158558898Y-89598480D01*
X158558898Y-88917528D02*
X158506517Y-88969909D01*
X158506517Y-88969909D02*
X158558898Y-89022290D01*
X158558898Y-89022290D02*
X158611279Y-88969909D01*
X158611279Y-88969909D02*
X158558898Y-88917528D01*
X158558898Y-88917528D02*
X158558898Y-89022290D01*
X157354136Y-88498480D02*
X156987469Y-89598480D01*
X156987469Y-89598480D02*
X156620802Y-88498480D01*
X156254136Y-88498480D02*
X156254136Y-89388957D01*
X156254136Y-89388957D02*
X156201755Y-89493719D01*
X156201755Y-89493719D02*
X156149374Y-89546100D01*
X156149374Y-89546100D02*
X156044612Y-89598480D01*
X156044612Y-89598480D02*
X155835088Y-89598480D01*
X155835088Y-89598480D02*
X155730326Y-89546100D01*
X155730326Y-89546100D02*
X155677945Y-89493719D01*
X155677945Y-89493719D02*
X155625564Y-89388957D01*
X155625564Y-89388957D02*
X155625564Y-88498480D01*
X155154136Y-89546100D02*
X154996993Y-89598480D01*
X154996993Y-89598480D02*
X154735088Y-89598480D01*
X154735088Y-89598480D02*
X154630326Y-89546100D01*
X154630326Y-89546100D02*
X154577945Y-89493719D01*
X154577945Y-89493719D02*
X154525564Y-89388957D01*
X154525564Y-89388957D02*
X154525564Y-89284195D01*
X154525564Y-89284195D02*
X154577945Y-89179433D01*
X154577945Y-89179433D02*
X154630326Y-89127052D01*
X154630326Y-89127052D02*
X154735088Y-89074671D01*
X154735088Y-89074671D02*
X154944612Y-89022290D01*
X154944612Y-89022290D02*
X155049374Y-88969909D01*
X155049374Y-88969909D02*
X155101755Y-88917528D01*
X155101755Y-88917528D02*
X155154136Y-88812766D01*
X155154136Y-88812766D02*
X155154136Y-88708004D01*
X155154136Y-88708004D02*
X155101755Y-88603242D01*
X155101755Y-88603242D02*
X155049374Y-88550861D01*
X155049374Y-88550861D02*
X154944612Y-88498480D01*
X154944612Y-88498480D02*
X154682707Y-88498480D01*
X154682707Y-88498480D02*
X154525564Y-88550861D01*
X153687469Y-89022290D02*
X153530326Y-89074671D01*
X153530326Y-89074671D02*
X153477945Y-89127052D01*
X153477945Y-89127052D02*
X153425564Y-89231814D01*
X153425564Y-89231814D02*
X153425564Y-89388957D01*
X153425564Y-89388957D02*
X153477945Y-89493719D01*
X153477945Y-89493719D02*
X153530326Y-89546100D01*
X153530326Y-89546100D02*
X153635088Y-89598480D01*
X153635088Y-89598480D02*
X154054136Y-89598480D01*
X154054136Y-89598480D02*
X154054136Y-88498480D01*
X154054136Y-88498480D02*
X153687469Y-88498480D01*
X153687469Y-88498480D02*
X153582707Y-88550861D01*
X153582707Y-88550861D02*
X153530326Y-88603242D01*
X153530326Y-88603242D02*
X153477945Y-88708004D01*
X153477945Y-88708004D02*
X153477945Y-88812766D01*
X153477945Y-88812766D02*
X153530326Y-88917528D01*
X153530326Y-88917528D02*
X153582707Y-88969909D01*
X153582707Y-88969909D02*
X153687469Y-89022290D01*
X153687469Y-89022290D02*
X154054136Y-89022290D01*
X152168422Y-89546100D02*
X152063660Y-89598480D01*
X152063660Y-89598480D02*
X151854136Y-89598480D01*
X151854136Y-89598480D02*
X151749374Y-89546100D01*
X151749374Y-89546100D02*
X151696993Y-89441338D01*
X151696993Y-89441338D02*
X151696993Y-89388957D01*
X151696993Y-89388957D02*
X151749374Y-89284195D01*
X151749374Y-89284195D02*
X151854136Y-89231814D01*
X151854136Y-89231814D02*
X152011279Y-89231814D01*
X152011279Y-89231814D02*
X152116041Y-89179433D01*
X152116041Y-89179433D02*
X152168422Y-89074671D01*
X152168422Y-89074671D02*
X152168422Y-89022290D01*
X152168422Y-89022290D02*
X152116041Y-88917528D01*
X152116041Y-88917528D02*
X152011279Y-88865147D01*
X152011279Y-88865147D02*
X151854136Y-88865147D01*
X151854136Y-88865147D02*
X151749374Y-88917528D01*
X151382708Y-88865147D02*
X150963660Y-88865147D01*
X151225565Y-88498480D02*
X151225565Y-89441338D01*
X151225565Y-89441338D02*
X151173184Y-89546100D01*
X151173184Y-89546100D02*
X151068422Y-89598480D01*
X151068422Y-89598480D02*
X150963660Y-89598480D01*
X150596994Y-89598480D02*
X150596994Y-88865147D01*
X150596994Y-89074671D02*
X150544613Y-88969909D01*
X150544613Y-88969909D02*
X150492232Y-88917528D01*
X150492232Y-88917528D02*
X150387470Y-88865147D01*
X150387470Y-88865147D02*
X150282708Y-88865147D01*
X149444613Y-89598480D02*
X149444613Y-89022290D01*
X149444613Y-89022290D02*
X149496994Y-88917528D01*
X149496994Y-88917528D02*
X149601756Y-88865147D01*
X149601756Y-88865147D02*
X149811280Y-88865147D01*
X149811280Y-88865147D02*
X149916042Y-88917528D01*
X149444613Y-89546100D02*
X149549375Y-89598480D01*
X149549375Y-89598480D02*
X149811280Y-89598480D01*
X149811280Y-89598480D02*
X149916042Y-89546100D01*
X149916042Y-89546100D02*
X149968423Y-89441338D01*
X149968423Y-89441338D02*
X149968423Y-89336576D01*
X149968423Y-89336576D02*
X149916042Y-89231814D01*
X149916042Y-89231814D02*
X149811280Y-89179433D01*
X149811280Y-89179433D02*
X149549375Y-89179433D01*
X149549375Y-89179433D02*
X149444613Y-89127052D01*
X148920804Y-89598480D02*
X148920804Y-88865147D01*
X148920804Y-88498480D02*
X148973185Y-88550861D01*
X148973185Y-88550861D02*
X148920804Y-88603242D01*
X148920804Y-88603242D02*
X148868423Y-88550861D01*
X148868423Y-88550861D02*
X148920804Y-88498480D01*
X148920804Y-88498480D02*
X148920804Y-88603242D01*
X147925565Y-88865147D02*
X147925565Y-89755623D01*
X147925565Y-89755623D02*
X147977946Y-89860385D01*
X147977946Y-89860385D02*
X148030327Y-89912766D01*
X148030327Y-89912766D02*
X148135089Y-89965147D01*
X148135089Y-89965147D02*
X148292232Y-89965147D01*
X148292232Y-89965147D02*
X148396994Y-89912766D01*
X147925565Y-89546100D02*
X148030327Y-89598480D01*
X148030327Y-89598480D02*
X148239851Y-89598480D01*
X148239851Y-89598480D02*
X148344613Y-89546100D01*
X148344613Y-89546100D02*
X148396994Y-89493719D01*
X148396994Y-89493719D02*
X148449375Y-89388957D01*
X148449375Y-89388957D02*
X148449375Y-89074671D01*
X148449375Y-89074671D02*
X148396994Y-88969909D01*
X148396994Y-88969909D02*
X148344613Y-88917528D01*
X148344613Y-88917528D02*
X148239851Y-88865147D01*
X148239851Y-88865147D02*
X148030327Y-88865147D01*
X148030327Y-88865147D02*
X147925565Y-88917528D01*
X147401756Y-89598480D02*
X147401756Y-88498480D01*
X146930327Y-89598480D02*
X146930327Y-89022290D01*
X146930327Y-89022290D02*
X146982708Y-88917528D01*
X146982708Y-88917528D02*
X147087470Y-88865147D01*
X147087470Y-88865147D02*
X147244613Y-88865147D01*
X147244613Y-88865147D02*
X147349375Y-88917528D01*
X147349375Y-88917528D02*
X147401756Y-88969909D01*
X146563661Y-88865147D02*
X146144613Y-88865147D01*
X146406518Y-88498480D02*
X146406518Y-89441338D01*
X146406518Y-89441338D02*
X146354137Y-89546100D01*
X146354137Y-89546100D02*
X146249375Y-89598480D01*
X146249375Y-89598480D02*
X146144613Y-89598480D01*
X145096995Y-88865147D02*
X144677947Y-88865147D01*
X144939852Y-88498480D02*
X144939852Y-89441338D01*
X144939852Y-89441338D02*
X144887471Y-89546100D01*
X144887471Y-89546100D02*
X144782709Y-89598480D01*
X144782709Y-89598480D02*
X144677947Y-89598480D01*
X144154138Y-89598480D02*
X144258900Y-89546100D01*
X144258900Y-89546100D02*
X144311281Y-89493719D01*
X144311281Y-89493719D02*
X144363662Y-89388957D01*
X144363662Y-89388957D02*
X144363662Y-89074671D01*
X144363662Y-89074671D02*
X144311281Y-88969909D01*
X144311281Y-88969909D02*
X144258900Y-88917528D01*
X144258900Y-88917528D02*
X144154138Y-88865147D01*
X144154138Y-88865147D02*
X143996995Y-88865147D01*
X143996995Y-88865147D02*
X143892233Y-88917528D01*
X143892233Y-88917528D02*
X143839852Y-88969909D01*
X143839852Y-88969909D02*
X143787471Y-89074671D01*
X143787471Y-89074671D02*
X143787471Y-89388957D01*
X143787471Y-89388957D02*
X143839852Y-89493719D01*
X143839852Y-89493719D02*
X143892233Y-89546100D01*
X143892233Y-89546100D02*
X143996995Y-89598480D01*
X143996995Y-89598480D02*
X144154138Y-89598480D01*
X142477948Y-88865147D02*
X142477948Y-89965147D01*
X142477948Y-88917528D02*
X142373186Y-88865147D01*
X142373186Y-88865147D02*
X142163662Y-88865147D01*
X142163662Y-88865147D02*
X142058900Y-88917528D01*
X142058900Y-88917528D02*
X142006519Y-88969909D01*
X142006519Y-88969909D02*
X141954138Y-89074671D01*
X141954138Y-89074671D02*
X141954138Y-89388957D01*
X141954138Y-89388957D02*
X142006519Y-89493719D01*
X142006519Y-89493719D02*
X142058900Y-89546100D01*
X142058900Y-89546100D02*
X142163662Y-89598480D01*
X142163662Y-89598480D02*
X142373186Y-89598480D01*
X142373186Y-89598480D02*
X142477948Y-89546100D01*
X141325567Y-89598480D02*
X141430329Y-89546100D01*
X141430329Y-89546100D02*
X141482710Y-89493719D01*
X141482710Y-89493719D02*
X141535091Y-89388957D01*
X141535091Y-89388957D02*
X141535091Y-89074671D01*
X141535091Y-89074671D02*
X141482710Y-88969909D01*
X141482710Y-88969909D02*
X141430329Y-88917528D01*
X141430329Y-88917528D02*
X141325567Y-88865147D01*
X141325567Y-88865147D02*
X141168424Y-88865147D01*
X141168424Y-88865147D02*
X141063662Y-88917528D01*
X141063662Y-88917528D02*
X141011281Y-88969909D01*
X141011281Y-88969909D02*
X140958900Y-89074671D01*
X140958900Y-89074671D02*
X140958900Y-89388957D01*
X140958900Y-89388957D02*
X141011281Y-89493719D01*
X141011281Y-89493719D02*
X141063662Y-89546100D01*
X141063662Y-89546100D02*
X141168424Y-89598480D01*
X141168424Y-89598480D02*
X141325567Y-89598480D01*
X140592234Y-88865147D02*
X140382710Y-89598480D01*
X140382710Y-89598480D02*
X140173186Y-89074671D01*
X140173186Y-89074671D02*
X139963662Y-89598480D01*
X139963662Y-89598480D02*
X139754138Y-88865147D01*
X138916043Y-89546100D02*
X139020805Y-89598480D01*
X139020805Y-89598480D02*
X139230329Y-89598480D01*
X139230329Y-89598480D02*
X139335091Y-89546100D01*
X139335091Y-89546100D02*
X139387472Y-89441338D01*
X139387472Y-89441338D02*
X139387472Y-89022290D01*
X139387472Y-89022290D02*
X139335091Y-88917528D01*
X139335091Y-88917528D02*
X139230329Y-88865147D01*
X139230329Y-88865147D02*
X139020805Y-88865147D01*
X139020805Y-88865147D02*
X138916043Y-88917528D01*
X138916043Y-88917528D02*
X138863662Y-89022290D01*
X138863662Y-89022290D02*
X138863662Y-89127052D01*
X138863662Y-89127052D02*
X139387472Y-89231814D01*
X138392234Y-89598480D02*
X138392234Y-88865147D01*
X138392234Y-89074671D02*
X138339853Y-88969909D01*
X138339853Y-88969909D02*
X138287472Y-88917528D01*
X138287472Y-88917528D02*
X138182710Y-88865147D01*
X138182710Y-88865147D02*
X138077948Y-88865147D01*
X136663663Y-88498480D02*
X136454139Y-88498480D01*
X136454139Y-88498480D02*
X136349377Y-88550861D01*
X136349377Y-88550861D02*
X136244615Y-88655623D01*
X136244615Y-88655623D02*
X136192234Y-88865147D01*
X136192234Y-88865147D02*
X136192234Y-89231814D01*
X136192234Y-89231814D02*
X136244615Y-89441338D01*
X136244615Y-89441338D02*
X136349377Y-89546100D01*
X136349377Y-89546100D02*
X136454139Y-89598480D01*
X136454139Y-89598480D02*
X136663663Y-89598480D01*
X136663663Y-89598480D02*
X136768425Y-89546100D01*
X136768425Y-89546100D02*
X136873187Y-89441338D01*
X136873187Y-89441338D02*
X136925568Y-89231814D01*
X136925568Y-89231814D02*
X136925568Y-88865147D01*
X136925568Y-88865147D02*
X136873187Y-88655623D01*
X136873187Y-88655623D02*
X136768425Y-88550861D01*
X136768425Y-88550861D02*
X136663663Y-88498480D01*
X135249377Y-89546100D02*
X135354139Y-89598480D01*
X135354139Y-89598480D02*
X135563663Y-89598480D01*
X135563663Y-89598480D02*
X135668425Y-89546100D01*
X135668425Y-89546100D02*
X135720806Y-89493719D01*
X135720806Y-89493719D02*
X135773187Y-89388957D01*
X135773187Y-89388957D02*
X135773187Y-89074671D01*
X135773187Y-89074671D02*
X135720806Y-88969909D01*
X135720806Y-88969909D02*
X135668425Y-88917528D01*
X135668425Y-88917528D02*
X135563663Y-88865147D01*
X135563663Y-88865147D02*
X135354139Y-88865147D01*
X135354139Y-88865147D02*
X135249377Y-88917528D01*
X134935092Y-88865147D02*
X134516044Y-88865147D01*
X134777949Y-88498480D02*
X134777949Y-89441338D01*
X134777949Y-89441338D02*
X134725568Y-89546100D01*
X134725568Y-89546100D02*
X134620806Y-89598480D01*
X134620806Y-89598480D02*
X134516044Y-89598480D01*
X133677949Y-89598480D02*
X133677949Y-89022290D01*
X133677949Y-89022290D02*
X133730330Y-88917528D01*
X133730330Y-88917528D02*
X133835092Y-88865147D01*
X133835092Y-88865147D02*
X134044616Y-88865147D01*
X134044616Y-88865147D02*
X134149378Y-88917528D01*
X133677949Y-89546100D02*
X133782711Y-89598480D01*
X133782711Y-89598480D02*
X134044616Y-89598480D01*
X134044616Y-89598480D02*
X134149378Y-89546100D01*
X134149378Y-89546100D02*
X134201759Y-89441338D01*
X134201759Y-89441338D02*
X134201759Y-89336576D01*
X134201759Y-89336576D02*
X134149378Y-89231814D01*
X134149378Y-89231814D02*
X134044616Y-89179433D01*
X134044616Y-89179433D02*
X133782711Y-89179433D01*
X133782711Y-89179433D02*
X133677949Y-89127052D01*
X133258902Y-88865147D02*
X132996997Y-89598480D01*
X132996997Y-89598480D02*
X132735092Y-88865147D01*
X132158902Y-89598480D02*
X132263664Y-89546100D01*
X132263664Y-89546100D02*
X132316045Y-89493719D01*
X132316045Y-89493719D02*
X132368426Y-89388957D01*
X132368426Y-89388957D02*
X132368426Y-89074671D01*
X132368426Y-89074671D02*
X132316045Y-88969909D01*
X132316045Y-88969909D02*
X132263664Y-88917528D01*
X132263664Y-88917528D02*
X132158902Y-88865147D01*
X132158902Y-88865147D02*
X132001759Y-88865147D01*
X132001759Y-88865147D02*
X131896997Y-88917528D01*
X131896997Y-88917528D02*
X131844616Y-88969909D01*
X131844616Y-88969909D02*
X131792235Y-89074671D01*
X131792235Y-89074671D02*
X131792235Y-89388957D01*
X131792235Y-89388957D02*
X131844616Y-89493719D01*
X131844616Y-89493719D02*
X131896997Y-89546100D01*
X131896997Y-89546100D02*
X132001759Y-89598480D01*
X132001759Y-89598480D02*
X132158902Y-89598480D01*
X159711279Y-90269480D02*
X159030326Y-90269480D01*
X159030326Y-90269480D02*
X159396993Y-90688528D01*
X159396993Y-90688528D02*
X159239850Y-90688528D01*
X159239850Y-90688528D02*
X159135088Y-90740909D01*
X159135088Y-90740909D02*
X159082707Y-90793290D01*
X159082707Y-90793290D02*
X159030326Y-90898052D01*
X159030326Y-90898052D02*
X159030326Y-91159957D01*
X159030326Y-91159957D02*
X159082707Y-91264719D01*
X159082707Y-91264719D02*
X159135088Y-91317100D01*
X159135088Y-91317100D02*
X159239850Y-91369480D01*
X159239850Y-91369480D02*
X159554136Y-91369480D01*
X159554136Y-91369480D02*
X159658898Y-91317100D01*
X159658898Y-91317100D02*
X159711279Y-91264719D01*
X158558898Y-91264719D02*
X158506517Y-91317100D01*
X158506517Y-91317100D02*
X158558898Y-91369480D01*
X158558898Y-91369480D02*
X158611279Y-91317100D01*
X158611279Y-91317100D02*
X158558898Y-91264719D01*
X158558898Y-91264719D02*
X158558898Y-91369480D01*
X158558898Y-90688528D02*
X158506517Y-90740909D01*
X158506517Y-90740909D02*
X158558898Y-90793290D01*
X158558898Y-90793290D02*
X158611279Y-90740909D01*
X158611279Y-90740909D02*
X158558898Y-90688528D01*
X158558898Y-90688528D02*
X158558898Y-90793290D01*
X157249374Y-91317100D02*
X157092231Y-91369480D01*
X157092231Y-91369480D02*
X156830326Y-91369480D01*
X156830326Y-91369480D02*
X156725564Y-91317100D01*
X156725564Y-91317100D02*
X156673183Y-91264719D01*
X156673183Y-91264719D02*
X156620802Y-91159957D01*
X156620802Y-91159957D02*
X156620802Y-91055195D01*
X156620802Y-91055195D02*
X156673183Y-90950433D01*
X156673183Y-90950433D02*
X156725564Y-90898052D01*
X156725564Y-90898052D02*
X156830326Y-90845671D01*
X156830326Y-90845671D02*
X157039850Y-90793290D01*
X157039850Y-90793290D02*
X157144612Y-90740909D01*
X157144612Y-90740909D02*
X157196993Y-90688528D01*
X157196993Y-90688528D02*
X157249374Y-90583766D01*
X157249374Y-90583766D02*
X157249374Y-90479004D01*
X157249374Y-90479004D02*
X157196993Y-90374242D01*
X157196993Y-90374242D02*
X157144612Y-90321861D01*
X157144612Y-90321861D02*
X157039850Y-90269480D01*
X157039850Y-90269480D02*
X156777945Y-90269480D01*
X156777945Y-90269480D02*
X156620802Y-90321861D01*
X156306517Y-90269480D02*
X155677945Y-90269480D01*
X155992231Y-91369480D02*
X155992231Y-90269480D01*
X154787469Y-91369480D02*
X155311279Y-91369480D01*
X155311279Y-91369480D02*
X155311279Y-90269480D01*
X154420803Y-91369480D02*
X154420803Y-90269480D01*
X153896993Y-91369480D02*
X153896993Y-90269480D01*
X153896993Y-90269480D02*
X153268421Y-91369480D01*
X153268421Y-91369480D02*
X153268421Y-90269480D01*
X152744612Y-91369480D02*
X152744612Y-90269480D01*
X152116040Y-91369480D02*
X152587469Y-90740909D01*
X152116040Y-90269480D02*
X152744612Y-90898052D01*
X150963660Y-90269480D02*
X150596993Y-91369480D01*
X150596993Y-91369480D02*
X150230326Y-90269480D01*
X149863660Y-90269480D02*
X149863660Y-91159957D01*
X149863660Y-91159957D02*
X149811279Y-91264719D01*
X149811279Y-91264719D02*
X149758898Y-91317100D01*
X149758898Y-91317100D02*
X149654136Y-91369480D01*
X149654136Y-91369480D02*
X149444612Y-91369480D01*
X149444612Y-91369480D02*
X149339850Y-91317100D01*
X149339850Y-91317100D02*
X149287469Y-91264719D01*
X149287469Y-91264719D02*
X149235088Y-91159957D01*
X149235088Y-91159957D02*
X149235088Y-90269480D01*
X148763660Y-91317100D02*
X148606517Y-91369480D01*
X148606517Y-91369480D02*
X148344612Y-91369480D01*
X148344612Y-91369480D02*
X148239850Y-91317100D01*
X148239850Y-91317100D02*
X148187469Y-91264719D01*
X148187469Y-91264719D02*
X148135088Y-91159957D01*
X148135088Y-91159957D02*
X148135088Y-91055195D01*
X148135088Y-91055195D02*
X148187469Y-90950433D01*
X148187469Y-90950433D02*
X148239850Y-90898052D01*
X148239850Y-90898052D02*
X148344612Y-90845671D01*
X148344612Y-90845671D02*
X148554136Y-90793290D01*
X148554136Y-90793290D02*
X148658898Y-90740909D01*
X148658898Y-90740909D02*
X148711279Y-90688528D01*
X148711279Y-90688528D02*
X148763660Y-90583766D01*
X148763660Y-90583766D02*
X148763660Y-90479004D01*
X148763660Y-90479004D02*
X148711279Y-90374242D01*
X148711279Y-90374242D02*
X148658898Y-90321861D01*
X148658898Y-90321861D02*
X148554136Y-90269480D01*
X148554136Y-90269480D02*
X148292231Y-90269480D01*
X148292231Y-90269480D02*
X148135088Y-90321861D01*
X147296993Y-90793290D02*
X147139850Y-90845671D01*
X147139850Y-90845671D02*
X147087469Y-90898052D01*
X147087469Y-90898052D02*
X147035088Y-91002814D01*
X147035088Y-91002814D02*
X147035088Y-91159957D01*
X147035088Y-91159957D02*
X147087469Y-91264719D01*
X147087469Y-91264719D02*
X147139850Y-91317100D01*
X147139850Y-91317100D02*
X147244612Y-91369480D01*
X147244612Y-91369480D02*
X147663660Y-91369480D01*
X147663660Y-91369480D02*
X147663660Y-90269480D01*
X147663660Y-90269480D02*
X147296993Y-90269480D01*
X147296993Y-90269480D02*
X147192231Y-90321861D01*
X147192231Y-90321861D02*
X147139850Y-90374242D01*
X147139850Y-90374242D02*
X147087469Y-90479004D01*
X147087469Y-90479004D02*
X147087469Y-90583766D01*
X147087469Y-90583766D02*
X147139850Y-90688528D01*
X147139850Y-90688528D02*
X147192231Y-90740909D01*
X147192231Y-90740909D02*
X147296993Y-90793290D01*
X147296993Y-90793290D02*
X147663660Y-90793290D01*
X145882708Y-90636147D02*
X145463660Y-90636147D01*
X145725565Y-90269480D02*
X145725565Y-91212338D01*
X145725565Y-91212338D02*
X145673184Y-91317100D01*
X145673184Y-91317100D02*
X145568422Y-91369480D01*
X145568422Y-91369480D02*
X145463660Y-91369480D01*
X144939851Y-91369480D02*
X145044613Y-91317100D01*
X145044613Y-91317100D02*
X145096994Y-91264719D01*
X145096994Y-91264719D02*
X145149375Y-91159957D01*
X145149375Y-91159957D02*
X145149375Y-90845671D01*
X145149375Y-90845671D02*
X145096994Y-90740909D01*
X145096994Y-90740909D02*
X145044613Y-90688528D01*
X145044613Y-90688528D02*
X144939851Y-90636147D01*
X144939851Y-90636147D02*
X144782708Y-90636147D01*
X144782708Y-90636147D02*
X144677946Y-90688528D01*
X144677946Y-90688528D02*
X144625565Y-90740909D01*
X144625565Y-90740909D02*
X144573184Y-90845671D01*
X144573184Y-90845671D02*
X144573184Y-91159957D01*
X144573184Y-91159957D02*
X144625565Y-91264719D01*
X144625565Y-91264719D02*
X144677946Y-91317100D01*
X144677946Y-91317100D02*
X144782708Y-91369480D01*
X144782708Y-91369480D02*
X144939851Y-91369480D01*
X143420804Y-90269480D02*
X143054137Y-91369480D01*
X143054137Y-91369480D02*
X142687470Y-90269480D01*
X141954137Y-90793290D02*
X141796994Y-90845671D01*
X141796994Y-90845671D02*
X141744613Y-90898052D01*
X141744613Y-90898052D02*
X141692232Y-91002814D01*
X141692232Y-91002814D02*
X141692232Y-91159957D01*
X141692232Y-91159957D02*
X141744613Y-91264719D01*
X141744613Y-91264719D02*
X141796994Y-91317100D01*
X141796994Y-91317100D02*
X141901756Y-91369480D01*
X141901756Y-91369480D02*
X142320804Y-91369480D01*
X142320804Y-91369480D02*
X142320804Y-90269480D01*
X142320804Y-90269480D02*
X141954137Y-90269480D01*
X141954137Y-90269480D02*
X141849375Y-90321861D01*
X141849375Y-90321861D02*
X141796994Y-90374242D01*
X141796994Y-90374242D02*
X141744613Y-90479004D01*
X141744613Y-90479004D02*
X141744613Y-90583766D01*
X141744613Y-90583766D02*
X141796994Y-90688528D01*
X141796994Y-90688528D02*
X141849375Y-90740909D01*
X141849375Y-90740909D02*
X141954137Y-90793290D01*
X141954137Y-90793290D02*
X142320804Y-90793290D01*
X141220804Y-90269480D02*
X141220804Y-91159957D01*
X141220804Y-91159957D02*
X141168423Y-91264719D01*
X141168423Y-91264719D02*
X141116042Y-91317100D01*
X141116042Y-91317100D02*
X141011280Y-91369480D01*
X141011280Y-91369480D02*
X140801756Y-91369480D01*
X140801756Y-91369480D02*
X140696994Y-91317100D01*
X140696994Y-91317100D02*
X140644613Y-91264719D01*
X140644613Y-91264719D02*
X140592232Y-91159957D01*
X140592232Y-91159957D02*
X140592232Y-90269480D01*
X140120804Y-91317100D02*
X139963661Y-91369480D01*
X139963661Y-91369480D02*
X139701756Y-91369480D01*
X139701756Y-91369480D02*
X139596994Y-91317100D01*
X139596994Y-91317100D02*
X139544613Y-91264719D01*
X139544613Y-91264719D02*
X139492232Y-91159957D01*
X139492232Y-91159957D02*
X139492232Y-91055195D01*
X139492232Y-91055195D02*
X139544613Y-90950433D01*
X139544613Y-90950433D02*
X139596994Y-90898052D01*
X139596994Y-90898052D02*
X139701756Y-90845671D01*
X139701756Y-90845671D02*
X139911280Y-90793290D01*
X139911280Y-90793290D02*
X140016042Y-90740909D01*
X140016042Y-90740909D02*
X140068423Y-90688528D01*
X140068423Y-90688528D02*
X140120804Y-90583766D01*
X140120804Y-90583766D02*
X140120804Y-90479004D01*
X140120804Y-90479004D02*
X140068423Y-90374242D01*
X140068423Y-90374242D02*
X140016042Y-90321861D01*
X140016042Y-90321861D02*
X139911280Y-90269480D01*
X139911280Y-90269480D02*
X139649375Y-90269480D01*
X139649375Y-90269480D02*
X139492232Y-90321861D01*
X139020804Y-91369480D02*
X139020804Y-90269480D01*
X139020804Y-90269480D02*
X138601756Y-90269480D01*
X138601756Y-90269480D02*
X138496994Y-90321861D01*
X138496994Y-90321861D02*
X138444613Y-90374242D01*
X138444613Y-90374242D02*
X138392232Y-90479004D01*
X138392232Y-90479004D02*
X138392232Y-90636147D01*
X138392232Y-90636147D02*
X138444613Y-90740909D01*
X138444613Y-90740909D02*
X138496994Y-90793290D01*
X138496994Y-90793290D02*
X138601756Y-90845671D01*
X138601756Y-90845671D02*
X139020804Y-90845671D01*
%LPC*%
D11*
X147828000Y-71628000D03*
X147828000Y-75692000D03*
X155100000Y-50900000D03*
D12*
X136150000Y-58150000D03*
X136150000Y-64650000D03*
X131650000Y-58150000D03*
X131650000Y-64650000D03*
D13*
X154975000Y-89771000D03*
D12*
X154825000Y-85971000D03*
X147375000Y-85971000D03*
D13*
X147225000Y-89771000D03*
D14*
X153600000Y-87021000D03*
X148600000Y-87021000D03*
D11*
X153000000Y-50900000D03*
D15*
X128000000Y-50000000D03*
D16*
X128000000Y-52540000D03*
X128000000Y-55080000D03*
X128000000Y-57620000D03*
X128000000Y-60160000D03*
D17*
X152000000Y-73900000D03*
D18*
X152000000Y-71400000D03*
X152000000Y-69400000D03*
X152000000Y-66900000D03*
D19*
X154710000Y-76970000D03*
X154710000Y-63830000D03*
D11*
X131572000Y-69850000D03*
%LPD*%
M02*
