%TF.GenerationSoftware,KiCad,Pcbnew,7.0.6-0*%
%TF.CreationDate,2024-08-28T16:49:39-06:00*%
%TF.ProjectId,card-debug-board-2,63617264-2d64-4656-9275-672d626f6172,rev?*%
%TF.SameCoordinates,Original*%
%TF.FileFunction,Drillmap*%
%TF.FilePolarity,Positive*%
%FSLAX45Y45*%
G04 Gerber Fmt 4.5, Leading zero omitted, Abs format (unit mm)*
G04 Created by KiCad (PCBNEW 7.0.6-0) date 2024-08-28 16:49:39*
%MOMM*%
%LPD*%
G01*
G04 APERTURE LIST*
%ADD10C,0.100000*%
%ADD11C,0.200000*%
%ADD12C,0.080000*%
G04 APERTURE END LIST*
D10*
X12600000Y-4800000D02*
X16200000Y-4800000D01*
X16200000Y-9156720D01*
X12600000Y-9156720D01*
X12600000Y-4800000D01*
D11*
D12*
X14820000Y-8662100D02*
X14900000Y-8742100D01*
X14900000Y-8662100D02*
X14820000Y-8742100D01*
X15320000Y-8662100D02*
X15400000Y-8742100D01*
X15400000Y-8662100D02*
X15320000Y-8742100D01*
D11*
X12855777Y-9473204D02*
X12855777Y-9273204D01*
X12855777Y-9273204D02*
X12903396Y-9273204D01*
X12903396Y-9273204D02*
X12931967Y-9282728D01*
X12931967Y-9282728D02*
X12951015Y-9301775D01*
X12951015Y-9301775D02*
X12960539Y-9320823D01*
X12960539Y-9320823D02*
X12970062Y-9358918D01*
X12970062Y-9358918D02*
X12970062Y-9387490D01*
X12970062Y-9387490D02*
X12960539Y-9425585D01*
X12960539Y-9425585D02*
X12951015Y-9444632D01*
X12951015Y-9444632D02*
X12931967Y-9463680D01*
X12931967Y-9463680D02*
X12903396Y-9473204D01*
X12903396Y-9473204D02*
X12855777Y-9473204D01*
X13055777Y-9473204D02*
X13055777Y-9339870D01*
X13055777Y-9377966D02*
X13065301Y-9358918D01*
X13065301Y-9358918D02*
X13074824Y-9349394D01*
X13074824Y-9349394D02*
X13093872Y-9339870D01*
X13093872Y-9339870D02*
X13112920Y-9339870D01*
X13179586Y-9473204D02*
X13179586Y-9339870D01*
X13179586Y-9273204D02*
X13170062Y-9282728D01*
X13170062Y-9282728D02*
X13179586Y-9292251D01*
X13179586Y-9292251D02*
X13189110Y-9282728D01*
X13189110Y-9282728D02*
X13179586Y-9273204D01*
X13179586Y-9273204D02*
X13179586Y-9292251D01*
X13303396Y-9473204D02*
X13284348Y-9463680D01*
X13284348Y-9463680D02*
X13274824Y-9444632D01*
X13274824Y-9444632D02*
X13274824Y-9273204D01*
X13408158Y-9473204D02*
X13389110Y-9463680D01*
X13389110Y-9463680D02*
X13379586Y-9444632D01*
X13379586Y-9444632D02*
X13379586Y-9273204D01*
X13636729Y-9473204D02*
X13636729Y-9273204D01*
X13636729Y-9273204D02*
X13703396Y-9416061D01*
X13703396Y-9416061D02*
X13770062Y-9273204D01*
X13770062Y-9273204D02*
X13770062Y-9473204D01*
X13951015Y-9473204D02*
X13951015Y-9368442D01*
X13951015Y-9368442D02*
X13941491Y-9349394D01*
X13941491Y-9349394D02*
X13922443Y-9339870D01*
X13922443Y-9339870D02*
X13884348Y-9339870D01*
X13884348Y-9339870D02*
X13865301Y-9349394D01*
X13951015Y-9463680D02*
X13931967Y-9473204D01*
X13931967Y-9473204D02*
X13884348Y-9473204D01*
X13884348Y-9473204D02*
X13865301Y-9463680D01*
X13865301Y-9463680D02*
X13855777Y-9444632D01*
X13855777Y-9444632D02*
X13855777Y-9425585D01*
X13855777Y-9425585D02*
X13865301Y-9406537D01*
X13865301Y-9406537D02*
X13884348Y-9397013D01*
X13884348Y-9397013D02*
X13931967Y-9397013D01*
X13931967Y-9397013D02*
X13951015Y-9387490D01*
X14046253Y-9339870D02*
X14046253Y-9539870D01*
X14046253Y-9349394D02*
X14065301Y-9339870D01*
X14065301Y-9339870D02*
X14103396Y-9339870D01*
X14103396Y-9339870D02*
X14122443Y-9349394D01*
X14122443Y-9349394D02*
X14131967Y-9358918D01*
X14131967Y-9358918D02*
X14141491Y-9377966D01*
X14141491Y-9377966D02*
X14141491Y-9435109D01*
X14141491Y-9435109D02*
X14131967Y-9454156D01*
X14131967Y-9454156D02*
X14122443Y-9463680D01*
X14122443Y-9463680D02*
X14103396Y-9473204D01*
X14103396Y-9473204D02*
X14065301Y-9473204D01*
X14065301Y-9473204D02*
X14046253Y-9463680D01*
X14227205Y-9454156D02*
X14236729Y-9463680D01*
X14236729Y-9463680D02*
X14227205Y-9473204D01*
X14227205Y-9473204D02*
X14217682Y-9463680D01*
X14217682Y-9463680D02*
X14227205Y-9454156D01*
X14227205Y-9454156D02*
X14227205Y-9473204D01*
X14227205Y-9349394D02*
X14236729Y-9358918D01*
X14236729Y-9358918D02*
X14227205Y-9368442D01*
X14227205Y-9368442D02*
X14217682Y-9358918D01*
X14217682Y-9358918D02*
X14227205Y-9349394D01*
X14227205Y-9349394D02*
X14227205Y-9368442D01*
D12*
X12515000Y-9761720D02*
X12595000Y-9841720D01*
X12595000Y-9761720D02*
X12515000Y-9841720D01*
D11*
X12893872Y-9693204D02*
X12912920Y-9693204D01*
X12912920Y-9693204D02*
X12931967Y-9702728D01*
X12931967Y-9702728D02*
X12941491Y-9712251D01*
X12941491Y-9712251D02*
X12951015Y-9731299D01*
X12951015Y-9731299D02*
X12960539Y-9769394D01*
X12960539Y-9769394D02*
X12960539Y-9817013D01*
X12960539Y-9817013D02*
X12951015Y-9855109D01*
X12951015Y-9855109D02*
X12941491Y-9874156D01*
X12941491Y-9874156D02*
X12931967Y-9883680D01*
X12931967Y-9883680D02*
X12912920Y-9893204D01*
X12912920Y-9893204D02*
X12893872Y-9893204D01*
X12893872Y-9893204D02*
X12874824Y-9883680D01*
X12874824Y-9883680D02*
X12865301Y-9874156D01*
X12865301Y-9874156D02*
X12855777Y-9855109D01*
X12855777Y-9855109D02*
X12846253Y-9817013D01*
X12846253Y-9817013D02*
X12846253Y-9769394D01*
X12846253Y-9769394D02*
X12855777Y-9731299D01*
X12855777Y-9731299D02*
X12865301Y-9712251D01*
X12865301Y-9712251D02*
X12874824Y-9702728D01*
X12874824Y-9702728D02*
X12893872Y-9693204D01*
X13046253Y-9874156D02*
X13055777Y-9883680D01*
X13055777Y-9883680D02*
X13046253Y-9893204D01*
X13046253Y-9893204D02*
X13036729Y-9883680D01*
X13036729Y-9883680D02*
X13046253Y-9874156D01*
X13046253Y-9874156D02*
X13046253Y-9893204D01*
X13170062Y-9778918D02*
X13151015Y-9769394D01*
X13151015Y-9769394D02*
X13141491Y-9759870D01*
X13141491Y-9759870D02*
X13131967Y-9740823D01*
X13131967Y-9740823D02*
X13131967Y-9731299D01*
X13131967Y-9731299D02*
X13141491Y-9712251D01*
X13141491Y-9712251D02*
X13151015Y-9702728D01*
X13151015Y-9702728D02*
X13170062Y-9693204D01*
X13170062Y-9693204D02*
X13208158Y-9693204D01*
X13208158Y-9693204D02*
X13227205Y-9702728D01*
X13227205Y-9702728D02*
X13236729Y-9712251D01*
X13236729Y-9712251D02*
X13246253Y-9731299D01*
X13246253Y-9731299D02*
X13246253Y-9740823D01*
X13246253Y-9740823D02*
X13236729Y-9759870D01*
X13236729Y-9759870D02*
X13227205Y-9769394D01*
X13227205Y-9769394D02*
X13208158Y-9778918D01*
X13208158Y-9778918D02*
X13170062Y-9778918D01*
X13170062Y-9778918D02*
X13151015Y-9788442D01*
X13151015Y-9788442D02*
X13141491Y-9797966D01*
X13141491Y-9797966D02*
X13131967Y-9817013D01*
X13131967Y-9817013D02*
X13131967Y-9855109D01*
X13131967Y-9855109D02*
X13141491Y-9874156D01*
X13141491Y-9874156D02*
X13151015Y-9883680D01*
X13151015Y-9883680D02*
X13170062Y-9893204D01*
X13170062Y-9893204D02*
X13208158Y-9893204D01*
X13208158Y-9893204D02*
X13227205Y-9883680D01*
X13227205Y-9883680D02*
X13236729Y-9874156D01*
X13236729Y-9874156D02*
X13246253Y-9855109D01*
X13246253Y-9855109D02*
X13246253Y-9817013D01*
X13246253Y-9817013D02*
X13236729Y-9797966D01*
X13236729Y-9797966D02*
X13227205Y-9788442D01*
X13227205Y-9788442D02*
X13208158Y-9778918D01*
X13370062Y-9693204D02*
X13389110Y-9693204D01*
X13389110Y-9693204D02*
X13408158Y-9702728D01*
X13408158Y-9702728D02*
X13417682Y-9712251D01*
X13417682Y-9712251D02*
X13427205Y-9731299D01*
X13427205Y-9731299D02*
X13436729Y-9769394D01*
X13436729Y-9769394D02*
X13436729Y-9817013D01*
X13436729Y-9817013D02*
X13427205Y-9855109D01*
X13427205Y-9855109D02*
X13417682Y-9874156D01*
X13417682Y-9874156D02*
X13408158Y-9883680D01*
X13408158Y-9883680D02*
X13389110Y-9893204D01*
X13389110Y-9893204D02*
X13370062Y-9893204D01*
X13370062Y-9893204D02*
X13351015Y-9883680D01*
X13351015Y-9883680D02*
X13341491Y-9874156D01*
X13341491Y-9874156D02*
X13331967Y-9855109D01*
X13331967Y-9855109D02*
X13322443Y-9817013D01*
X13322443Y-9817013D02*
X13322443Y-9769394D01*
X13322443Y-9769394D02*
X13331967Y-9731299D01*
X13331967Y-9731299D02*
X13341491Y-9712251D01*
X13341491Y-9712251D02*
X13351015Y-9702728D01*
X13351015Y-9702728D02*
X13370062Y-9693204D01*
X13560539Y-9693204D02*
X13579586Y-9693204D01*
X13579586Y-9693204D02*
X13598634Y-9702728D01*
X13598634Y-9702728D02*
X13608158Y-9712251D01*
X13608158Y-9712251D02*
X13617682Y-9731299D01*
X13617682Y-9731299D02*
X13627205Y-9769394D01*
X13627205Y-9769394D02*
X13627205Y-9817013D01*
X13627205Y-9817013D02*
X13617682Y-9855109D01*
X13617682Y-9855109D02*
X13608158Y-9874156D01*
X13608158Y-9874156D02*
X13598634Y-9883680D01*
X13598634Y-9883680D02*
X13579586Y-9893204D01*
X13579586Y-9893204D02*
X13560539Y-9893204D01*
X13560539Y-9893204D02*
X13541491Y-9883680D01*
X13541491Y-9883680D02*
X13531967Y-9874156D01*
X13531967Y-9874156D02*
X13522443Y-9855109D01*
X13522443Y-9855109D02*
X13512920Y-9817013D01*
X13512920Y-9817013D02*
X13512920Y-9769394D01*
X13512920Y-9769394D02*
X13522443Y-9731299D01*
X13522443Y-9731299D02*
X13531967Y-9712251D01*
X13531967Y-9712251D02*
X13541491Y-9702728D01*
X13541491Y-9702728D02*
X13560539Y-9693204D01*
X13712920Y-9893204D02*
X13712920Y-9759870D01*
X13712920Y-9778918D02*
X13722443Y-9769394D01*
X13722443Y-9769394D02*
X13741491Y-9759870D01*
X13741491Y-9759870D02*
X13770063Y-9759870D01*
X13770063Y-9759870D02*
X13789110Y-9769394D01*
X13789110Y-9769394D02*
X13798634Y-9788442D01*
X13798634Y-9788442D02*
X13798634Y-9893204D01*
X13798634Y-9788442D02*
X13808158Y-9769394D01*
X13808158Y-9769394D02*
X13827205Y-9759870D01*
X13827205Y-9759870D02*
X13855777Y-9759870D01*
X13855777Y-9759870D02*
X13874824Y-9769394D01*
X13874824Y-9769394D02*
X13884348Y-9788442D01*
X13884348Y-9788442D02*
X13884348Y-9893204D01*
X13979586Y-9893204D02*
X13979586Y-9759870D01*
X13979586Y-9778918D02*
X13989110Y-9769394D01*
X13989110Y-9769394D02*
X14008158Y-9759870D01*
X14008158Y-9759870D02*
X14036729Y-9759870D01*
X14036729Y-9759870D02*
X14055777Y-9769394D01*
X14055777Y-9769394D02*
X14065301Y-9788442D01*
X14065301Y-9788442D02*
X14065301Y-9893204D01*
X14065301Y-9788442D02*
X14074824Y-9769394D01*
X14074824Y-9769394D02*
X14093872Y-9759870D01*
X14093872Y-9759870D02*
X14122443Y-9759870D01*
X14122443Y-9759870D02*
X14141491Y-9769394D01*
X14141491Y-9769394D02*
X14151015Y-9788442D01*
X14151015Y-9788442D02*
X14151015Y-9893204D01*
X14541491Y-9683680D02*
X14370063Y-9940823D01*
X14798634Y-9693204D02*
X14817682Y-9693204D01*
X14817682Y-9693204D02*
X14836729Y-9702728D01*
X14836729Y-9702728D02*
X14846253Y-9712251D01*
X14846253Y-9712251D02*
X14855777Y-9731299D01*
X14855777Y-9731299D02*
X14865301Y-9769394D01*
X14865301Y-9769394D02*
X14865301Y-9817013D01*
X14865301Y-9817013D02*
X14855777Y-9855109D01*
X14855777Y-9855109D02*
X14846253Y-9874156D01*
X14846253Y-9874156D02*
X14836729Y-9883680D01*
X14836729Y-9883680D02*
X14817682Y-9893204D01*
X14817682Y-9893204D02*
X14798634Y-9893204D01*
X14798634Y-9893204D02*
X14779586Y-9883680D01*
X14779586Y-9883680D02*
X14770063Y-9874156D01*
X14770063Y-9874156D02*
X14760539Y-9855109D01*
X14760539Y-9855109D02*
X14751015Y-9817013D01*
X14751015Y-9817013D02*
X14751015Y-9769394D01*
X14751015Y-9769394D02*
X14760539Y-9731299D01*
X14760539Y-9731299D02*
X14770063Y-9712251D01*
X14770063Y-9712251D02*
X14779586Y-9702728D01*
X14779586Y-9702728D02*
X14798634Y-9693204D01*
X14951015Y-9874156D02*
X14960539Y-9883680D01*
X14960539Y-9883680D02*
X14951015Y-9893204D01*
X14951015Y-9893204D02*
X14941491Y-9883680D01*
X14941491Y-9883680D02*
X14951015Y-9874156D01*
X14951015Y-9874156D02*
X14951015Y-9893204D01*
X15084348Y-9693204D02*
X15103396Y-9693204D01*
X15103396Y-9693204D02*
X15122444Y-9702728D01*
X15122444Y-9702728D02*
X15131967Y-9712251D01*
X15131967Y-9712251D02*
X15141491Y-9731299D01*
X15141491Y-9731299D02*
X15151015Y-9769394D01*
X15151015Y-9769394D02*
X15151015Y-9817013D01*
X15151015Y-9817013D02*
X15141491Y-9855109D01*
X15141491Y-9855109D02*
X15131967Y-9874156D01*
X15131967Y-9874156D02*
X15122444Y-9883680D01*
X15122444Y-9883680D02*
X15103396Y-9893204D01*
X15103396Y-9893204D02*
X15084348Y-9893204D01*
X15084348Y-9893204D02*
X15065301Y-9883680D01*
X15065301Y-9883680D02*
X15055777Y-9874156D01*
X15055777Y-9874156D02*
X15046253Y-9855109D01*
X15046253Y-9855109D02*
X15036729Y-9817013D01*
X15036729Y-9817013D02*
X15036729Y-9769394D01*
X15036729Y-9769394D02*
X15046253Y-9731299D01*
X15046253Y-9731299D02*
X15055777Y-9712251D01*
X15055777Y-9712251D02*
X15065301Y-9702728D01*
X15065301Y-9702728D02*
X15084348Y-9693204D01*
X15217682Y-9693204D02*
X15341491Y-9693204D01*
X15341491Y-9693204D02*
X15274825Y-9769394D01*
X15274825Y-9769394D02*
X15303396Y-9769394D01*
X15303396Y-9769394D02*
X15322444Y-9778918D01*
X15322444Y-9778918D02*
X15331967Y-9788442D01*
X15331967Y-9788442D02*
X15341491Y-9807490D01*
X15341491Y-9807490D02*
X15341491Y-9855109D01*
X15341491Y-9855109D02*
X15331967Y-9874156D01*
X15331967Y-9874156D02*
X15322444Y-9883680D01*
X15322444Y-9883680D02*
X15303396Y-9893204D01*
X15303396Y-9893204D02*
X15246253Y-9893204D01*
X15246253Y-9893204D02*
X15227206Y-9883680D01*
X15227206Y-9883680D02*
X15217682Y-9874156D01*
X15531967Y-9893204D02*
X15417682Y-9893204D01*
X15474825Y-9893204D02*
X15474825Y-9693204D01*
X15474825Y-9693204D02*
X15455777Y-9721775D01*
X15455777Y-9721775D02*
X15436729Y-9740823D01*
X15436729Y-9740823D02*
X15417682Y-9750347D01*
X15712920Y-9693204D02*
X15617682Y-9693204D01*
X15617682Y-9693204D02*
X15608158Y-9788442D01*
X15608158Y-9788442D02*
X15617682Y-9778918D01*
X15617682Y-9778918D02*
X15636729Y-9769394D01*
X15636729Y-9769394D02*
X15684348Y-9769394D01*
X15684348Y-9769394D02*
X15703396Y-9778918D01*
X15703396Y-9778918D02*
X15712920Y-9788442D01*
X15712920Y-9788442D02*
X15722444Y-9807490D01*
X15722444Y-9807490D02*
X15722444Y-9855109D01*
X15722444Y-9855109D02*
X15712920Y-9874156D01*
X15712920Y-9874156D02*
X15703396Y-9883680D01*
X15703396Y-9883680D02*
X15684348Y-9893204D01*
X15684348Y-9893204D02*
X15636729Y-9893204D01*
X15636729Y-9893204D02*
X15617682Y-9883680D01*
X15617682Y-9883680D02*
X15608158Y-9874156D01*
X15798634Y-9693204D02*
X15798634Y-9731299D01*
X15874825Y-9693204D02*
X15874825Y-9731299D01*
X16170063Y-9969394D02*
X16160539Y-9959870D01*
X16160539Y-9959870D02*
X16141491Y-9931299D01*
X16141491Y-9931299D02*
X16131968Y-9912251D01*
X16131968Y-9912251D02*
X16122444Y-9883680D01*
X16122444Y-9883680D02*
X16112920Y-9836061D01*
X16112920Y-9836061D02*
X16112920Y-9797966D01*
X16112920Y-9797966D02*
X16122444Y-9750347D01*
X16122444Y-9750347D02*
X16131968Y-9721775D01*
X16131968Y-9721775D02*
X16141491Y-9702728D01*
X16141491Y-9702728D02*
X16160539Y-9674156D01*
X16160539Y-9674156D02*
X16170063Y-9664632D01*
X16236729Y-9712251D02*
X16246253Y-9702728D01*
X16246253Y-9702728D02*
X16265301Y-9693204D01*
X16265301Y-9693204D02*
X16312920Y-9693204D01*
X16312920Y-9693204D02*
X16331968Y-9702728D01*
X16331968Y-9702728D02*
X16341491Y-9712251D01*
X16341491Y-9712251D02*
X16351015Y-9731299D01*
X16351015Y-9731299D02*
X16351015Y-9750347D01*
X16351015Y-9750347D02*
X16341491Y-9778918D01*
X16341491Y-9778918D02*
X16227206Y-9893204D01*
X16227206Y-9893204D02*
X16351015Y-9893204D01*
X16589110Y-9893204D02*
X16589110Y-9693204D01*
X16674825Y-9893204D02*
X16674825Y-9788442D01*
X16674825Y-9788442D02*
X16665301Y-9769394D01*
X16665301Y-9769394D02*
X16646253Y-9759870D01*
X16646253Y-9759870D02*
X16617682Y-9759870D01*
X16617682Y-9759870D02*
X16598634Y-9769394D01*
X16598634Y-9769394D02*
X16589110Y-9778918D01*
X16798634Y-9893204D02*
X16779587Y-9883680D01*
X16779587Y-9883680D02*
X16770063Y-9874156D01*
X16770063Y-9874156D02*
X16760539Y-9855109D01*
X16760539Y-9855109D02*
X16760539Y-9797966D01*
X16760539Y-9797966D02*
X16770063Y-9778918D01*
X16770063Y-9778918D02*
X16779587Y-9769394D01*
X16779587Y-9769394D02*
X16798634Y-9759870D01*
X16798634Y-9759870D02*
X16827206Y-9759870D01*
X16827206Y-9759870D02*
X16846253Y-9769394D01*
X16846253Y-9769394D02*
X16855777Y-9778918D01*
X16855777Y-9778918D02*
X16865301Y-9797966D01*
X16865301Y-9797966D02*
X16865301Y-9855109D01*
X16865301Y-9855109D02*
X16855777Y-9874156D01*
X16855777Y-9874156D02*
X16846253Y-9883680D01*
X16846253Y-9883680D02*
X16827206Y-9893204D01*
X16827206Y-9893204D02*
X16798634Y-9893204D01*
X16979587Y-9893204D02*
X16960539Y-9883680D01*
X16960539Y-9883680D02*
X16951015Y-9864632D01*
X16951015Y-9864632D02*
X16951015Y-9693204D01*
X17131968Y-9883680D02*
X17112920Y-9893204D01*
X17112920Y-9893204D02*
X17074825Y-9893204D01*
X17074825Y-9893204D02*
X17055777Y-9883680D01*
X17055777Y-9883680D02*
X17046253Y-9864632D01*
X17046253Y-9864632D02*
X17046253Y-9788442D01*
X17046253Y-9788442D02*
X17055777Y-9769394D01*
X17055777Y-9769394D02*
X17074825Y-9759870D01*
X17074825Y-9759870D02*
X17112920Y-9759870D01*
X17112920Y-9759870D02*
X17131968Y-9769394D01*
X17131968Y-9769394D02*
X17141492Y-9788442D01*
X17141492Y-9788442D02*
X17141492Y-9807490D01*
X17141492Y-9807490D02*
X17046253Y-9826537D01*
X17217682Y-9883680D02*
X17236730Y-9893204D01*
X17236730Y-9893204D02*
X17274825Y-9893204D01*
X17274825Y-9893204D02*
X17293873Y-9883680D01*
X17293873Y-9883680D02*
X17303396Y-9864632D01*
X17303396Y-9864632D02*
X17303396Y-9855109D01*
X17303396Y-9855109D02*
X17293873Y-9836061D01*
X17293873Y-9836061D02*
X17274825Y-9826537D01*
X17274825Y-9826537D02*
X17246253Y-9826537D01*
X17246253Y-9826537D02*
X17227206Y-9817013D01*
X17227206Y-9817013D02*
X17217682Y-9797966D01*
X17217682Y-9797966D02*
X17217682Y-9788442D01*
X17217682Y-9788442D02*
X17227206Y-9769394D01*
X17227206Y-9769394D02*
X17246253Y-9759870D01*
X17246253Y-9759870D02*
X17274825Y-9759870D01*
X17274825Y-9759870D02*
X17293873Y-9769394D01*
X17370063Y-9969394D02*
X17379587Y-9959870D01*
X17379587Y-9959870D02*
X17398634Y-9931299D01*
X17398634Y-9931299D02*
X17408158Y-9912251D01*
X17408158Y-9912251D02*
X17417682Y-9883680D01*
X17417682Y-9883680D02*
X17427206Y-9836061D01*
X17427206Y-9836061D02*
X17427206Y-9797966D01*
X17427206Y-9797966D02*
X17417682Y-9750347D01*
X17417682Y-9750347D02*
X17408158Y-9721775D01*
X17408158Y-9721775D02*
X17398634Y-9702728D01*
X17398634Y-9702728D02*
X17379587Y-9674156D01*
X17379587Y-9674156D02*
X17370063Y-9664632D01*
X17731968Y-9969394D02*
X17722444Y-9959870D01*
X17722444Y-9959870D02*
X17703396Y-9931299D01*
X17703396Y-9931299D02*
X17693873Y-9912251D01*
X17693873Y-9912251D02*
X17684349Y-9883680D01*
X17684349Y-9883680D02*
X17674825Y-9836061D01*
X17674825Y-9836061D02*
X17674825Y-9797966D01*
X17674825Y-9797966D02*
X17684349Y-9750347D01*
X17684349Y-9750347D02*
X17693873Y-9721775D01*
X17693873Y-9721775D02*
X17703396Y-9702728D01*
X17703396Y-9702728D02*
X17722444Y-9674156D01*
X17722444Y-9674156D02*
X17731968Y-9664632D01*
X17808158Y-9759870D02*
X17808158Y-9893204D01*
X17808158Y-9778918D02*
X17817682Y-9769394D01*
X17817682Y-9769394D02*
X17836730Y-9759870D01*
X17836730Y-9759870D02*
X17865301Y-9759870D01*
X17865301Y-9759870D02*
X17884349Y-9769394D01*
X17884349Y-9769394D02*
X17893873Y-9788442D01*
X17893873Y-9788442D02*
X17893873Y-9893204D01*
X18017682Y-9893204D02*
X17998634Y-9883680D01*
X17998634Y-9883680D02*
X17989111Y-9874156D01*
X17989111Y-9874156D02*
X17979587Y-9855109D01*
X17979587Y-9855109D02*
X17979587Y-9797966D01*
X17979587Y-9797966D02*
X17989111Y-9778918D01*
X17989111Y-9778918D02*
X17998634Y-9769394D01*
X17998634Y-9769394D02*
X18017682Y-9759870D01*
X18017682Y-9759870D02*
X18046254Y-9759870D01*
X18046254Y-9759870D02*
X18065301Y-9769394D01*
X18065301Y-9769394D02*
X18074825Y-9778918D01*
X18074825Y-9778918D02*
X18084349Y-9797966D01*
X18084349Y-9797966D02*
X18084349Y-9855109D01*
X18084349Y-9855109D02*
X18074825Y-9874156D01*
X18074825Y-9874156D02*
X18065301Y-9883680D01*
X18065301Y-9883680D02*
X18046254Y-9893204D01*
X18046254Y-9893204D02*
X18017682Y-9893204D01*
X18141492Y-9759870D02*
X18217682Y-9759870D01*
X18170063Y-9693204D02*
X18170063Y-9864632D01*
X18170063Y-9864632D02*
X18179587Y-9883680D01*
X18179587Y-9883680D02*
X18198634Y-9893204D01*
X18198634Y-9893204D02*
X18217682Y-9893204D01*
X18436730Y-9759870D02*
X18436730Y-9959870D01*
X18436730Y-9769394D02*
X18455777Y-9759870D01*
X18455777Y-9759870D02*
X18493873Y-9759870D01*
X18493873Y-9759870D02*
X18512920Y-9769394D01*
X18512920Y-9769394D02*
X18522444Y-9778918D01*
X18522444Y-9778918D02*
X18531968Y-9797966D01*
X18531968Y-9797966D02*
X18531968Y-9855109D01*
X18531968Y-9855109D02*
X18522444Y-9874156D01*
X18522444Y-9874156D02*
X18512920Y-9883680D01*
X18512920Y-9883680D02*
X18493873Y-9893204D01*
X18493873Y-9893204D02*
X18455777Y-9893204D01*
X18455777Y-9893204D02*
X18436730Y-9883680D01*
X18646254Y-9893204D02*
X18627206Y-9883680D01*
X18627206Y-9883680D02*
X18617682Y-9864632D01*
X18617682Y-9864632D02*
X18617682Y-9693204D01*
X18808158Y-9893204D02*
X18808158Y-9788442D01*
X18808158Y-9788442D02*
X18798635Y-9769394D01*
X18798635Y-9769394D02*
X18779587Y-9759870D01*
X18779587Y-9759870D02*
X18741492Y-9759870D01*
X18741492Y-9759870D02*
X18722444Y-9769394D01*
X18808158Y-9883680D02*
X18789111Y-9893204D01*
X18789111Y-9893204D02*
X18741492Y-9893204D01*
X18741492Y-9893204D02*
X18722444Y-9883680D01*
X18722444Y-9883680D02*
X18712920Y-9864632D01*
X18712920Y-9864632D02*
X18712920Y-9845585D01*
X18712920Y-9845585D02*
X18722444Y-9826537D01*
X18722444Y-9826537D02*
X18741492Y-9817013D01*
X18741492Y-9817013D02*
X18789111Y-9817013D01*
X18789111Y-9817013D02*
X18808158Y-9807490D01*
X18874825Y-9759870D02*
X18951015Y-9759870D01*
X18903396Y-9693204D02*
X18903396Y-9864632D01*
X18903396Y-9864632D02*
X18912920Y-9883680D01*
X18912920Y-9883680D02*
X18931968Y-9893204D01*
X18931968Y-9893204D02*
X18951015Y-9893204D01*
X19093873Y-9883680D02*
X19074825Y-9893204D01*
X19074825Y-9893204D02*
X19036730Y-9893204D01*
X19036730Y-9893204D02*
X19017682Y-9883680D01*
X19017682Y-9883680D02*
X19008158Y-9864632D01*
X19008158Y-9864632D02*
X19008158Y-9788442D01*
X19008158Y-9788442D02*
X19017682Y-9769394D01*
X19017682Y-9769394D02*
X19036730Y-9759870D01*
X19036730Y-9759870D02*
X19074825Y-9759870D01*
X19074825Y-9759870D02*
X19093873Y-9769394D01*
X19093873Y-9769394D02*
X19103396Y-9788442D01*
X19103396Y-9788442D02*
X19103396Y-9807490D01*
X19103396Y-9807490D02*
X19008158Y-9826537D01*
X19274825Y-9893204D02*
X19274825Y-9693204D01*
X19274825Y-9883680D02*
X19255777Y-9893204D01*
X19255777Y-9893204D02*
X19217682Y-9893204D01*
X19217682Y-9893204D02*
X19198635Y-9883680D01*
X19198635Y-9883680D02*
X19189111Y-9874156D01*
X19189111Y-9874156D02*
X19179587Y-9855109D01*
X19179587Y-9855109D02*
X19179587Y-9797966D01*
X19179587Y-9797966D02*
X19189111Y-9778918D01*
X19189111Y-9778918D02*
X19198635Y-9769394D01*
X19198635Y-9769394D02*
X19217682Y-9759870D01*
X19217682Y-9759870D02*
X19255777Y-9759870D01*
X19255777Y-9759870D02*
X19274825Y-9769394D01*
X19351016Y-9969394D02*
X19360539Y-9959870D01*
X19360539Y-9959870D02*
X19379587Y-9931299D01*
X19379587Y-9931299D02*
X19389111Y-9912251D01*
X19389111Y-9912251D02*
X19398635Y-9883680D01*
X19398635Y-9883680D02*
X19408158Y-9836061D01*
X19408158Y-9836061D02*
X19408158Y-9797966D01*
X19408158Y-9797966D02*
X19398635Y-9750347D01*
X19398635Y-9750347D02*
X19389111Y-9721775D01*
X19389111Y-9721775D02*
X19379587Y-9702728D01*
X19379587Y-9702728D02*
X19360539Y-9674156D01*
X19360539Y-9674156D02*
X19351016Y-9664632D01*
M02*
