G04 #@! TF.GenerationSoftware,KiCad,Pcbnew,7.0.6-0*
G04 #@! TF.CreationDate,2024-08-28T16:36:47-06:00*
G04 #@! TF.ProjectId,card-debug-board-2,63617264-2d64-4656-9275-672d626f6172,rev?*
G04 #@! TF.SameCoordinates,Original*
G04 #@! TF.FileFunction,Copper,L2,Bot*
G04 #@! TF.FilePolarity,Positive*
%FSLAX46Y46*%
G04 Gerber Fmt 4.6, Leading zero omitted, Abs format (unit mm)*
G04 Created by KiCad (PCBNEW 7.0.6-0) date 2024-08-28 16:36:47*
%MOMM*%
%LPD*%
G01*
G04 APERTURE LIST*
G04 #@! TA.AperFunction,TestPad*
%ADD10C,1.100000*%
G04 #@! TD*
G04 #@! TA.AperFunction,ComponentPad*
%ADD11C,2.000000*%
G04 #@! TD*
G04 #@! TA.AperFunction,ComponentPad*
%ADD12C,1.800000*%
G04 #@! TD*
G04 #@! TA.AperFunction,ComponentPad*
%ADD13R,1.700000X1.700000*%
G04 #@! TD*
G04 #@! TA.AperFunction,ComponentPad*
%ADD14O,1.700000X1.700000*%
G04 #@! TD*
G04 #@! TA.AperFunction,ComponentPad*
%ADD15R,1.500000X1.600000*%
G04 #@! TD*
G04 #@! TA.AperFunction,ComponentPad*
%ADD16C,1.600000*%
G04 #@! TD*
G04 #@! TA.AperFunction,ComponentPad*
%ADD17C,3.000000*%
G04 #@! TD*
G04 #@! TA.AperFunction,ViaPad*
%ADD18C,0.508000*%
G04 #@! TD*
G04 #@! TA.AperFunction,Conductor*
%ADD19C,0.200000*%
G04 #@! TD*
G04 #@! TA.AperFunction,Conductor*
%ADD20C,0.400000*%
G04 #@! TD*
G04 APERTURE END LIST*
D10*
X147828000Y-71628000D03*
X147828000Y-75692000D03*
X155100000Y-50900000D03*
D11*
X136150000Y-58150000D03*
X136150000Y-64650000D03*
X131650000Y-58150000D03*
X131650000Y-64650000D03*
D12*
X154975000Y-89771000D03*
D11*
X154825000Y-85971000D03*
X147375000Y-85971000D03*
D12*
X147225000Y-89771000D03*
D10*
X153000000Y-50900000D03*
D13*
X128000000Y-50000000D03*
D14*
X128000000Y-52540000D03*
X128000000Y-55080000D03*
X128000000Y-57620000D03*
X128000000Y-60160000D03*
D15*
X152000000Y-73900000D03*
D16*
X152000000Y-71400000D03*
X152000000Y-69400000D03*
X152000000Y-66900000D03*
D17*
X154710000Y-76970000D03*
X154710000Y-63830000D03*
D10*
X131572000Y-69850000D03*
D18*
X145200000Y-53300000D03*
X127400000Y-83200000D03*
X146200000Y-53300000D03*
X144700000Y-83576000D03*
X160000000Y-62000000D03*
X127400000Y-81900000D03*
X151600000Y-90576000D03*
X131000000Y-79400000D03*
X128000000Y-69000000D03*
X137500000Y-55400000D03*
X152400000Y-84476000D03*
X144600000Y-90576000D03*
X136500000Y-82000000D03*
X131500000Y-72000000D03*
X150400000Y-55300000D03*
X142100000Y-80600000D03*
X127400000Y-79400000D03*
X157000000Y-71000000D03*
X144800000Y-56100000D03*
X131000000Y-51000000D03*
X145400000Y-80600000D03*
X154000000Y-49000000D03*
X147700000Y-53300000D03*
X152400000Y-87376000D03*
X146000000Y-49000000D03*
X153300000Y-85976000D03*
X131000000Y-85800000D03*
X136500000Y-89000000D03*
X157000000Y-54000000D03*
X136500000Y-73000000D03*
X161000000Y-50000000D03*
X131100000Y-83200000D03*
X132400000Y-87300000D03*
X130900000Y-81900000D03*
X144200000Y-53000000D03*
X131800000Y-76900000D03*
X157200000Y-56500000D03*
X158600000Y-66100000D03*
D19*
X131650000Y-58150000D02*
X136800000Y-53000000D01*
X136800000Y-53000000D02*
X144200000Y-53000000D01*
D20*
X158700000Y-58000000D02*
X157200000Y-56500000D01*
X158600000Y-66100000D02*
X158700000Y-66000000D01*
X158700000Y-66000000D02*
X158700000Y-58000000D01*
G04 #@! TA.AperFunction,Conductor*
G36*
X161560621Y-48401502D02*
G01*
X161607114Y-48455158D01*
X161618500Y-48507500D01*
X161618500Y-91059700D01*
X161598498Y-91127821D01*
X161544842Y-91174314D01*
X161492500Y-91185700D01*
X155816891Y-91185700D01*
X155748770Y-91165698D01*
X155702277Y-91112042D01*
X155692173Y-91041768D01*
X155721667Y-90977188D01*
X155744081Y-90957616D01*
X155743905Y-90957390D01*
X155747921Y-90954263D01*
X155747974Y-90954218D01*
X155748013Y-90954192D01*
X155748012Y-90954192D01*
X155748017Y-90954190D01*
X155932220Y-90810818D01*
X156090314Y-90639083D01*
X156217984Y-90443669D01*
X156311749Y-90229907D01*
X156369051Y-90003626D01*
X156388327Y-89771000D01*
X156369051Y-89538374D01*
X156311749Y-89312093D01*
X156217984Y-89098331D01*
X156217983Y-89098331D01*
X156090314Y-88902916D01*
X155932225Y-88731186D01*
X155932221Y-88731182D01*
X155840118Y-88659495D01*
X155748017Y-88587810D01*
X155542727Y-88476713D01*
X155542724Y-88476712D01*
X155542723Y-88476711D01*
X155321955Y-88400921D01*
X155321948Y-88400919D01*
X155223411Y-88384476D01*
X155091712Y-88362500D01*
X154858288Y-88362500D01*
X154743066Y-88381727D01*
X154628051Y-88400919D01*
X154628044Y-88400921D01*
X154407276Y-88476711D01*
X154407273Y-88476713D01*
X154201985Y-88587809D01*
X154201983Y-88587810D01*
X154017778Y-88731182D01*
X154017774Y-88731186D01*
X153859685Y-88902916D01*
X153732015Y-89098331D01*
X153638252Y-89312089D01*
X153638249Y-89312096D01*
X153580950Y-89538366D01*
X153561673Y-89770999D01*
X153580950Y-90003633D01*
X153638249Y-90229903D01*
X153638252Y-90229910D01*
X153732015Y-90443668D01*
X153859685Y-90639083D01*
X154017774Y-90810813D01*
X154017778Y-90810817D01*
X154201986Y-90954192D01*
X154202026Y-90954218D01*
X154202038Y-90954232D01*
X154206095Y-90957390D01*
X154205445Y-90958224D01*
X154248113Y-91008222D01*
X154257688Y-91078570D01*
X154227710Y-91142927D01*
X154167696Y-91180860D01*
X154133109Y-91185700D01*
X148066891Y-91185700D01*
X147998770Y-91165698D01*
X147952277Y-91112042D01*
X147942173Y-91041768D01*
X147971667Y-90977188D01*
X147994081Y-90957616D01*
X147993905Y-90957390D01*
X147997921Y-90954263D01*
X147997974Y-90954218D01*
X147998013Y-90954192D01*
X147998012Y-90954192D01*
X147998017Y-90954190D01*
X148182220Y-90810818D01*
X148340314Y-90639083D01*
X148467984Y-90443669D01*
X148561749Y-90229907D01*
X148619051Y-90003626D01*
X148638327Y-89771000D01*
X148619051Y-89538374D01*
X148561749Y-89312093D01*
X148467984Y-89098331D01*
X148467983Y-89098330D01*
X148340314Y-88902916D01*
X148182225Y-88731186D01*
X148182221Y-88731182D01*
X148090118Y-88659495D01*
X147998017Y-88587810D01*
X147792727Y-88476713D01*
X147792724Y-88476712D01*
X147792723Y-88476711D01*
X147571955Y-88400921D01*
X147571948Y-88400919D01*
X147473411Y-88384476D01*
X147341712Y-88362500D01*
X147108288Y-88362500D01*
X146993066Y-88381727D01*
X146878051Y-88400919D01*
X146878044Y-88400921D01*
X146657276Y-88476711D01*
X146657273Y-88476713D01*
X146451985Y-88587809D01*
X146451983Y-88587810D01*
X146267778Y-88731182D01*
X146267774Y-88731186D01*
X146109685Y-88902916D01*
X145982015Y-89098331D01*
X145888252Y-89312089D01*
X145888249Y-89312096D01*
X145830950Y-89538366D01*
X145811673Y-89770999D01*
X145830950Y-90003633D01*
X145888249Y-90229903D01*
X145888252Y-90229910D01*
X145982015Y-90443668D01*
X146109685Y-90639083D01*
X146267774Y-90810813D01*
X146267778Y-90810817D01*
X146451986Y-90954192D01*
X146452026Y-90954218D01*
X146452038Y-90954232D01*
X146456095Y-90957390D01*
X146455445Y-90958224D01*
X146498113Y-91008222D01*
X146507688Y-91078570D01*
X146477710Y-91142927D01*
X146417696Y-91180860D01*
X146383109Y-91185700D01*
X126507500Y-91185700D01*
X126439379Y-91165698D01*
X126392886Y-91112042D01*
X126381500Y-91059700D01*
X126381500Y-85971000D01*
X145861835Y-85971000D01*
X145880465Y-86207710D01*
X145935894Y-86438592D01*
X145935895Y-86438594D01*
X146026760Y-86657963D01*
X146091886Y-86764239D01*
X146150825Y-86860417D01*
X146150826Y-86860419D01*
X146305030Y-87040969D01*
X146485580Y-87195173D01*
X146485584Y-87195176D01*
X146688037Y-87319240D01*
X146907406Y-87410105D01*
X147138289Y-87465535D01*
X147375000Y-87484165D01*
X147611711Y-87465535D01*
X147842594Y-87410105D01*
X148024569Y-87334728D01*
X148095157Y-87327140D01*
X148158644Y-87358919D01*
X148164870Y-87365136D01*
X148247791Y-87453923D01*
X148377653Y-87532894D01*
X148524006Y-87573900D01*
X148524008Y-87573900D01*
X148637818Y-87573900D01*
X148637828Y-87573899D01*
X148726882Y-87561658D01*
X148750573Y-87558402D01*
X148889979Y-87497850D01*
X149007878Y-87401932D01*
X149095527Y-87277761D01*
X149146425Y-87134548D01*
X149151587Y-87059084D01*
X153043203Y-87059084D01*
X153074126Y-87207898D01*
X153110327Y-87277761D01*
X153144051Y-87342844D01*
X153247791Y-87453923D01*
X153377653Y-87532894D01*
X153524006Y-87573900D01*
X153524008Y-87573900D01*
X153637818Y-87573900D01*
X153637828Y-87573899D01*
X153726882Y-87561658D01*
X153750573Y-87558402D01*
X153889979Y-87497850D01*
X154007878Y-87401932D01*
X154024399Y-87378526D01*
X154080020Y-87334410D01*
X154150666Y-87327367D01*
X154175545Y-87334776D01*
X154357406Y-87410105D01*
X154588289Y-87465535D01*
X154825000Y-87484165D01*
X155061711Y-87465535D01*
X155292594Y-87410105D01*
X155511963Y-87319240D01*
X155714416Y-87195176D01*
X155894969Y-87040969D01*
X156049176Y-86860416D01*
X156173240Y-86657963D01*
X156264105Y-86438594D01*
X156319535Y-86207711D01*
X156338165Y-85971000D01*
X156319535Y-85734289D01*
X156264105Y-85503406D01*
X156173240Y-85284037D01*
X156049176Y-85081584D01*
X156049173Y-85081580D01*
X155894969Y-84901030D01*
X155714419Y-84746826D01*
X155714417Y-84746825D01*
X155714416Y-84746824D01*
X155511963Y-84622760D01*
X155292594Y-84531895D01*
X155292592Y-84531894D01*
X155134651Y-84493976D01*
X155061711Y-84476465D01*
X154825000Y-84457835D01*
X154588289Y-84476465D01*
X154357407Y-84531894D01*
X154138038Y-84622759D01*
X153935582Y-84746825D01*
X153935580Y-84746826D01*
X153755030Y-84901030D01*
X153600826Y-85081580D01*
X153600825Y-85081582D01*
X153476759Y-85284038D01*
X153385894Y-85503407D01*
X153330465Y-85734289D01*
X153311835Y-85971000D01*
X153330465Y-86207710D01*
X153376988Y-86401492D01*
X153373441Y-86472400D01*
X153332121Y-86530134D01*
X153317041Y-86539111D01*
X153317383Y-86539673D01*
X153310015Y-86544152D01*
X153192127Y-86640062D01*
X153192118Y-86640072D01*
X153104472Y-86764238D01*
X153053575Y-86907450D01*
X153053574Y-86907456D01*
X153043203Y-87059084D01*
X149151587Y-87059084D01*
X149156797Y-86982914D01*
X149125874Y-86834104D01*
X149125873Y-86834102D01*
X149125873Y-86834101D01*
X149089672Y-86764238D01*
X149055949Y-86699156D01*
X148952209Y-86588077D01*
X148952208Y-86588076D01*
X148878881Y-86543485D01*
X148831070Y-86491000D01*
X148819225Y-86420999D01*
X148821827Y-86406425D01*
X148869535Y-86207711D01*
X148888165Y-85971000D01*
X148869535Y-85734289D01*
X148814105Y-85503406D01*
X148723240Y-85284037D01*
X148599176Y-85081584D01*
X148599173Y-85081580D01*
X148444969Y-84901030D01*
X148264419Y-84746826D01*
X148264417Y-84746825D01*
X148264416Y-84746824D01*
X148061963Y-84622760D01*
X147842594Y-84531895D01*
X147842592Y-84531894D01*
X147684651Y-84493976D01*
X147611711Y-84476465D01*
X147375000Y-84457835D01*
X147138289Y-84476465D01*
X146907407Y-84531894D01*
X146688038Y-84622759D01*
X146485582Y-84746825D01*
X146485580Y-84746826D01*
X146305030Y-84901030D01*
X146150826Y-85081580D01*
X146150825Y-85081582D01*
X146026759Y-85284038D01*
X145935894Y-85503407D01*
X145880465Y-85734289D01*
X145861835Y-85971000D01*
X126381500Y-85971000D01*
X126381500Y-76900000D01*
X131032675Y-76900000D01*
X131051912Y-77070744D01*
X131108664Y-77232930D01*
X131108665Y-77232933D01*
X131200079Y-77378417D01*
X131200080Y-77378419D01*
X131321580Y-77499919D01*
X131321582Y-77499920D01*
X131467066Y-77591334D01*
X131467067Y-77591334D01*
X131467070Y-77591336D01*
X131629254Y-77648087D01*
X131629253Y-77648087D01*
X131646543Y-77650034D01*
X131800000Y-77667325D01*
X131970746Y-77648087D01*
X132132930Y-77591336D01*
X132278419Y-77499919D01*
X132399919Y-77378419D01*
X132491336Y-77232930D01*
X132548087Y-77070746D01*
X132559438Y-76970004D01*
X152697308Y-76970004D01*
X152716052Y-77244048D01*
X152716053Y-77244054D01*
X152771942Y-77513011D01*
X152771944Y-77513019D01*
X152863938Y-77771865D01*
X152990314Y-78015756D01*
X152990316Y-78015759D01*
X153120541Y-78200248D01*
X153737275Y-77583513D01*
X153788348Y-77665999D01*
X153931931Y-77823501D01*
X154093610Y-77945597D01*
X153480715Y-78558492D01*
X153480715Y-78558494D01*
X153549313Y-78614304D01*
X153549318Y-78614307D01*
X153784030Y-78757038D01*
X154035989Y-78866480D01*
X154300509Y-78940595D01*
X154572635Y-78977999D01*
X154572649Y-78978000D01*
X154847351Y-78978000D01*
X154847364Y-78977999D01*
X155119490Y-78940595D01*
X155384010Y-78866480D01*
X155635969Y-78757038D01*
X155870679Y-78614309D01*
X155939283Y-78558493D01*
X155939283Y-78558492D01*
X155326388Y-77945597D01*
X155488069Y-77823501D01*
X155631652Y-77665999D01*
X155682724Y-77583514D01*
X156299457Y-78200247D01*
X156429682Y-78015762D01*
X156429685Y-78015756D01*
X156556061Y-77771865D01*
X156648055Y-77513019D01*
X156648057Y-77513011D01*
X156703946Y-77244054D01*
X156703947Y-77244048D01*
X156722692Y-76970004D01*
X156722692Y-76969995D01*
X156703947Y-76695951D01*
X156703946Y-76695945D01*
X156648057Y-76426988D01*
X156648055Y-76426980D01*
X156556061Y-76168134D01*
X156429685Y-75924243D01*
X156429681Y-75924237D01*
X156299457Y-75739750D01*
X155682723Y-76356484D01*
X155631652Y-76274001D01*
X155488069Y-76116499D01*
X155326387Y-75994401D01*
X155939283Y-75381505D01*
X155939283Y-75381504D01*
X155870680Y-75325691D01*
X155635969Y-75182961D01*
X155384010Y-75073519D01*
X155119490Y-74999404D01*
X154847364Y-74962000D01*
X154572635Y-74962000D01*
X154300509Y-74999404D01*
X154035989Y-75073519D01*
X153784030Y-75182961D01*
X153549325Y-75325687D01*
X153480715Y-75381505D01*
X153480714Y-75381505D01*
X154093611Y-75994402D01*
X153931931Y-76116499D01*
X153788348Y-76274001D01*
X153737276Y-76356485D01*
X153120541Y-75739750D01*
X152990317Y-75924236D01*
X152863938Y-76168134D01*
X152771944Y-76426980D01*
X152771942Y-76426988D01*
X152716053Y-76695945D01*
X152716052Y-76695951D01*
X152697308Y-76969995D01*
X152697308Y-76970004D01*
X132559438Y-76970004D01*
X132567325Y-76900000D01*
X132548087Y-76729254D01*
X132491336Y-76567070D01*
X132491334Y-76567067D01*
X132491334Y-76567066D01*
X132399920Y-76421582D01*
X132399919Y-76421580D01*
X132278419Y-76300080D01*
X132278417Y-76300079D01*
X132132933Y-76208665D01*
X132132930Y-76208664D01*
X131970746Y-76151913D01*
X131970744Y-76151912D01*
X131970746Y-76151912D01*
X131817289Y-76134622D01*
X131800000Y-76132675D01*
X131799999Y-76132675D01*
X131629255Y-76151912D01*
X131467069Y-76208664D01*
X131467066Y-76208665D01*
X131321582Y-76300079D01*
X131321580Y-76300080D01*
X131200080Y-76421580D01*
X131200079Y-76421582D01*
X131108665Y-76567066D01*
X131108664Y-76567069D01*
X131051912Y-76729255D01*
X131032675Y-76900000D01*
X126381500Y-76900000D01*
X126381500Y-75692003D01*
X146764378Y-75692003D01*
X146784813Y-75899495D01*
X146784814Y-75899501D01*
X146784815Y-75899502D01*
X146845341Y-76099031D01*
X146943631Y-76282917D01*
X147075906Y-76444094D01*
X147237083Y-76576369D01*
X147420969Y-76674659D01*
X147620498Y-76735185D01*
X147620502Y-76735185D01*
X147620504Y-76735186D01*
X147827997Y-76755622D01*
X147828000Y-76755622D01*
X147828003Y-76755622D01*
X148035495Y-76735186D01*
X148035496Y-76735185D01*
X148035502Y-76735185D01*
X148235031Y-76674659D01*
X148418917Y-76576369D01*
X148580094Y-76444094D01*
X148712369Y-76282917D01*
X148810659Y-76099031D01*
X148871185Y-75899502D01*
X148879016Y-75820000D01*
X148891622Y-75692003D01*
X148891622Y-75691996D01*
X148871186Y-75484504D01*
X148871185Y-75484502D01*
X148871185Y-75484498D01*
X148810659Y-75284969D01*
X148712369Y-75101083D01*
X148580094Y-74939906D01*
X148418917Y-74807631D01*
X148235031Y-74709341D01*
X148035502Y-74648815D01*
X148035501Y-74648814D01*
X148035495Y-74648813D01*
X147828003Y-74628378D01*
X147827997Y-74628378D01*
X147620504Y-74648813D01*
X147420968Y-74709341D01*
X147237082Y-74807631D01*
X147075906Y-74939906D01*
X146943631Y-75101082D01*
X146845341Y-75284968D01*
X146784813Y-75484504D01*
X146764378Y-75691996D01*
X146764378Y-75692003D01*
X126381500Y-75692003D01*
X126381500Y-71628003D01*
X146764378Y-71628003D01*
X146784813Y-71835495D01*
X146784814Y-71835501D01*
X146784815Y-71835502D01*
X146845341Y-72035031D01*
X146943631Y-72218917D01*
X147075906Y-72380094D01*
X147237083Y-72512369D01*
X147420969Y-72610659D01*
X147620498Y-72671185D01*
X147620502Y-72671185D01*
X147620504Y-72671186D01*
X147827997Y-72691622D01*
X147828000Y-72691622D01*
X147828003Y-72691622D01*
X148035495Y-72671186D01*
X148035496Y-72671185D01*
X148035502Y-72671185D01*
X148235031Y-72610659D01*
X148418917Y-72512369D01*
X148580094Y-72380094D01*
X148712369Y-72218917D01*
X148810659Y-72035031D01*
X148871185Y-71835502D01*
X148891614Y-71628087D01*
X148891622Y-71628003D01*
X148891622Y-71627996D01*
X148871186Y-71420504D01*
X148871185Y-71420502D01*
X148871185Y-71420498D01*
X148864967Y-71400000D01*
X150686502Y-71400000D01*
X150706457Y-71628086D01*
X150765715Y-71849240D01*
X150765717Y-71849246D01*
X150862477Y-72056749D01*
X150993799Y-72244296D01*
X150993804Y-72244302D01*
X151152722Y-72403220D01*
X151186748Y-72465532D01*
X151181683Y-72536347D01*
X151139136Y-72593183D01*
X151107661Y-72610370D01*
X151003795Y-72649111D01*
X151003792Y-72649112D01*
X150886738Y-72736738D01*
X150799112Y-72853792D01*
X150799110Y-72853797D01*
X150748011Y-72990795D01*
X150748009Y-72990803D01*
X150741500Y-73051350D01*
X150741500Y-74748649D01*
X150748009Y-74809196D01*
X150748011Y-74809204D01*
X150799110Y-74946202D01*
X150799112Y-74946207D01*
X150886738Y-75063261D01*
X151003792Y-75150887D01*
X151003794Y-75150888D01*
X151003796Y-75150889D01*
X151062875Y-75172924D01*
X151140795Y-75201988D01*
X151140803Y-75201990D01*
X151201350Y-75208499D01*
X151201355Y-75208499D01*
X151201362Y-75208500D01*
X151201368Y-75208500D01*
X152798632Y-75208500D01*
X152798638Y-75208500D01*
X152798645Y-75208499D01*
X152798649Y-75208499D01*
X152859196Y-75201990D01*
X152859199Y-75201989D01*
X152859201Y-75201989D01*
X152996204Y-75150889D01*
X153113261Y-75063261D01*
X153200889Y-74946204D01*
X153251989Y-74809201D01*
X153258500Y-74748638D01*
X153258500Y-73051362D01*
X153258499Y-73051350D01*
X153251990Y-72990803D01*
X153251988Y-72990795D01*
X153200889Y-72853797D01*
X153200887Y-72853792D01*
X153113261Y-72736738D01*
X152996207Y-72649112D01*
X152996204Y-72649111D01*
X152892338Y-72610370D01*
X152835503Y-72567823D01*
X152810693Y-72501302D01*
X152825785Y-72431929D01*
X152847271Y-72403226D01*
X153006198Y-72244300D01*
X153137523Y-72056749D01*
X153234284Y-71849243D01*
X153293543Y-71628087D01*
X153313498Y-71400000D01*
X153293543Y-71171913D01*
X153234284Y-70950757D01*
X153137523Y-70743251D01*
X153006198Y-70555700D01*
X152939593Y-70489095D01*
X152905567Y-70426783D01*
X152910632Y-70355968D01*
X152939593Y-70310905D01*
X152939592Y-70310904D01*
X153006198Y-70244300D01*
X153137523Y-70056749D01*
X153234284Y-69849243D01*
X153293543Y-69628087D01*
X153313498Y-69400000D01*
X153293543Y-69171913D01*
X153234284Y-68950757D01*
X153137523Y-68743251D01*
X153006198Y-68555700D01*
X152844300Y-68393802D01*
X152844296Y-68393799D01*
X152656746Y-68262474D01*
X152651985Y-68259726D01*
X152653023Y-68257927D01*
X152606532Y-68216963D01*
X152587095Y-68148679D01*
X152607661Y-68080726D01*
X152652782Y-68041664D01*
X152651730Y-68039841D01*
X152656496Y-68037088D01*
X152727888Y-67987099D01*
X152727888Y-67987097D01*
X152105506Y-67364715D01*
X152135199Y-67360446D01*
X152259445Y-67303705D01*
X152362673Y-67214258D01*
X152436519Y-67099351D01*
X152464219Y-67005009D01*
X153087098Y-67627888D01*
X153087099Y-67627888D01*
X153137088Y-67556497D01*
X153233811Y-67349073D01*
X153233813Y-67349068D01*
X153293048Y-67128002D01*
X153312995Y-66900000D01*
X153293048Y-66671997D01*
X153233813Y-66450931D01*
X153233811Y-66450926D01*
X153137086Y-66243498D01*
X153087100Y-66172110D01*
X153087097Y-66172110D01*
X152464219Y-66794987D01*
X152436519Y-66700649D01*
X152362673Y-66585742D01*
X152259445Y-66496295D01*
X152135199Y-66439554D01*
X152105504Y-66435284D01*
X152727888Y-65812899D01*
X152727888Y-65812898D01*
X152656501Y-65762913D01*
X152449073Y-65666188D01*
X152449068Y-65666186D01*
X152228000Y-65606951D01*
X152228004Y-65606951D01*
X152000000Y-65587004D01*
X151771997Y-65606951D01*
X151550931Y-65666186D01*
X151550926Y-65666188D01*
X151343500Y-65762913D01*
X151272109Y-65812900D01*
X151894493Y-66435284D01*
X151864801Y-66439554D01*
X151740555Y-66496295D01*
X151637327Y-66585742D01*
X151563481Y-66700649D01*
X151535780Y-66794988D01*
X150912900Y-66172109D01*
X150862913Y-66243500D01*
X150766188Y-66450926D01*
X150766186Y-66450931D01*
X150706951Y-66671997D01*
X150687004Y-66900000D01*
X150706951Y-67128002D01*
X150766186Y-67349068D01*
X150766188Y-67349073D01*
X150862913Y-67556501D01*
X150912899Y-67627888D01*
X151535779Y-67005008D01*
X151563481Y-67099351D01*
X151637327Y-67214258D01*
X151740555Y-67303705D01*
X151864801Y-67360446D01*
X151894494Y-67364715D01*
X151272110Y-67987098D01*
X151272110Y-67987100D01*
X151343498Y-68037086D01*
X151348266Y-68039839D01*
X151347178Y-68041721D01*
X151393420Y-68082409D01*
X151412904Y-68150680D01*
X151392386Y-68218647D01*
X151347015Y-68257995D01*
X151348015Y-68259726D01*
X151343253Y-68262474D01*
X151155703Y-68393799D01*
X151155697Y-68393804D01*
X150993804Y-68555697D01*
X150993799Y-68555703D01*
X150862477Y-68743250D01*
X150765717Y-68950753D01*
X150765716Y-68950757D01*
X150706457Y-69171913D01*
X150686502Y-69400000D01*
X150706457Y-69628087D01*
X150710320Y-69642504D01*
X150765715Y-69849240D01*
X150765717Y-69849246D01*
X150862477Y-70056749D01*
X150993799Y-70244296D01*
X150993804Y-70244302D01*
X151060407Y-70310905D01*
X151094433Y-70373217D01*
X151089368Y-70444032D01*
X151060407Y-70489095D01*
X150993804Y-70555697D01*
X150993799Y-70555703D01*
X150862477Y-70743250D01*
X150765717Y-70950753D01*
X150765715Y-70950759D01*
X150706457Y-71171913D01*
X150686502Y-71400000D01*
X148864967Y-71400000D01*
X148810659Y-71220969D01*
X148712369Y-71037083D01*
X148580094Y-70875906D01*
X148418917Y-70743631D01*
X148235031Y-70645341D01*
X148035502Y-70584815D01*
X148035501Y-70584814D01*
X148035495Y-70584813D01*
X147828003Y-70564378D01*
X147827997Y-70564378D01*
X147620504Y-70584813D01*
X147420968Y-70645341D01*
X147237082Y-70743631D01*
X147075906Y-70875906D01*
X146943631Y-71037082D01*
X146845341Y-71220968D01*
X146784813Y-71420504D01*
X146764378Y-71627996D01*
X146764378Y-71628003D01*
X126381500Y-71628003D01*
X126381500Y-69850003D01*
X130508378Y-69850003D01*
X130528813Y-70057495D01*
X130528814Y-70057501D01*
X130528815Y-70057502D01*
X130589341Y-70257031D01*
X130687631Y-70440917D01*
X130819906Y-70602094D01*
X130981083Y-70734369D01*
X131164969Y-70832659D01*
X131364498Y-70893185D01*
X131364502Y-70893185D01*
X131364504Y-70893186D01*
X131571997Y-70913622D01*
X131572000Y-70913622D01*
X131572003Y-70913622D01*
X131779495Y-70893186D01*
X131779496Y-70893185D01*
X131779502Y-70893185D01*
X131979031Y-70832659D01*
X132162917Y-70734369D01*
X132324094Y-70602094D01*
X132456369Y-70440917D01*
X132554659Y-70257031D01*
X132615185Y-70057502D01*
X132635622Y-69850000D01*
X132635548Y-69849246D01*
X132615186Y-69642504D01*
X132615185Y-69642502D01*
X132615185Y-69642498D01*
X132554659Y-69442969D01*
X132456369Y-69259083D01*
X132324094Y-69097906D01*
X132162917Y-68965631D01*
X131979031Y-68867341D01*
X131779502Y-68806815D01*
X131779501Y-68806814D01*
X131779495Y-68806813D01*
X131572003Y-68786378D01*
X131571997Y-68786378D01*
X131364504Y-68806813D01*
X131164968Y-68867341D01*
X130981082Y-68965631D01*
X130819906Y-69097906D01*
X130687631Y-69259082D01*
X130589341Y-69442968D01*
X130528813Y-69642504D01*
X130508378Y-69849996D01*
X130508378Y-69850003D01*
X126381500Y-69850003D01*
X126381500Y-64650000D01*
X130136835Y-64650000D01*
X130155465Y-64886711D01*
X130160321Y-64906937D01*
X130210894Y-65117592D01*
X130210895Y-65117594D01*
X130301760Y-65336963D01*
X130416310Y-65523891D01*
X130425825Y-65539417D01*
X130425826Y-65539419D01*
X130580030Y-65719969D01*
X130718226Y-65837999D01*
X130760584Y-65874176D01*
X130963037Y-65998240D01*
X131182406Y-66089105D01*
X131413289Y-66144535D01*
X131650000Y-66163165D01*
X131886711Y-66144535D01*
X132117594Y-66089105D01*
X132336963Y-65998240D01*
X132539416Y-65874176D01*
X132719969Y-65719969D01*
X132874176Y-65539416D01*
X132998240Y-65336963D01*
X133089105Y-65117594D01*
X133144535Y-64886711D01*
X133163165Y-64650000D01*
X134637337Y-64650000D01*
X134655960Y-64886632D01*
X134711371Y-65117437D01*
X134802206Y-65336733D01*
X134916897Y-65523891D01*
X135623097Y-64817691D01*
X135626884Y-64835915D01*
X135696442Y-64970156D01*
X135799638Y-65080652D01*
X135928819Y-65159209D01*
X135984421Y-65174788D01*
X135276107Y-65883101D01*
X135276107Y-65883102D01*
X135463261Y-65997791D01*
X135682562Y-66088628D01*
X135913367Y-66144039D01*
X136150000Y-66162662D01*
X136386632Y-66144039D01*
X136617437Y-66088628D01*
X136836738Y-65997791D01*
X137023891Y-65883102D01*
X137023892Y-65883101D01*
X136317625Y-65176834D01*
X136438458Y-65124349D01*
X136555739Y-65028934D01*
X136642928Y-64905415D01*
X136674837Y-64815628D01*
X137383101Y-65523892D01*
X137383102Y-65523891D01*
X137497791Y-65336738D01*
X137588628Y-65117437D01*
X137644039Y-64886632D01*
X137662662Y-64650000D01*
X137644039Y-64413367D01*
X137588628Y-64182562D01*
X137497791Y-63963261D01*
X137416130Y-63830004D01*
X152697308Y-63830004D01*
X152716052Y-64104048D01*
X152716053Y-64104054D01*
X152771942Y-64373011D01*
X152771944Y-64373019D01*
X152863938Y-64631865D01*
X152990314Y-64875756D01*
X152990316Y-64875759D01*
X153120541Y-65060248D01*
X153737275Y-64443513D01*
X153788348Y-64525999D01*
X153931931Y-64683501D01*
X154093610Y-64805597D01*
X153480715Y-65418492D01*
X153480715Y-65418494D01*
X153549313Y-65474304D01*
X153549318Y-65474307D01*
X153784030Y-65617038D01*
X154035989Y-65726480D01*
X154300509Y-65800595D01*
X154572635Y-65837999D01*
X154572649Y-65838000D01*
X154847351Y-65838000D01*
X154847364Y-65837999D01*
X155119490Y-65800595D01*
X155384010Y-65726480D01*
X155635969Y-65617038D01*
X155870679Y-65474309D01*
X155939283Y-65418493D01*
X155939283Y-65418492D01*
X155326388Y-64805597D01*
X155488069Y-64683501D01*
X155631652Y-64525999D01*
X155682724Y-64443514D01*
X156299457Y-65060247D01*
X156429682Y-64875762D01*
X156429685Y-64875756D01*
X156556061Y-64631865D01*
X156648055Y-64373019D01*
X156648057Y-64373011D01*
X156703946Y-64104054D01*
X156703947Y-64104048D01*
X156722692Y-63830004D01*
X156722692Y-63829995D01*
X156703947Y-63555951D01*
X156703946Y-63555945D01*
X156648057Y-63286988D01*
X156648055Y-63286980D01*
X156556061Y-63028134D01*
X156429685Y-62784243D01*
X156429681Y-62784237D01*
X156299457Y-62599750D01*
X155682723Y-63216484D01*
X155631652Y-63134001D01*
X155488069Y-62976499D01*
X155326387Y-62854401D01*
X155939283Y-62241505D01*
X155939283Y-62241504D01*
X155870680Y-62185691D01*
X155635969Y-62042961D01*
X155384010Y-61933519D01*
X155119490Y-61859404D01*
X154847364Y-61822000D01*
X154572635Y-61822000D01*
X154300509Y-61859404D01*
X154035989Y-61933519D01*
X153784030Y-62042961D01*
X153549325Y-62185687D01*
X153480715Y-62241505D01*
X153480714Y-62241505D01*
X154093611Y-62854402D01*
X153931931Y-62976499D01*
X153788348Y-63134001D01*
X153737276Y-63216485D01*
X153120541Y-62599750D01*
X152990317Y-62784236D01*
X152863938Y-63028134D01*
X152771944Y-63286980D01*
X152771942Y-63286988D01*
X152716053Y-63555945D01*
X152716052Y-63555951D01*
X152697308Y-63829995D01*
X152697308Y-63830004D01*
X137416130Y-63830004D01*
X137383102Y-63776107D01*
X137383101Y-63776107D01*
X136676902Y-64482306D01*
X136673116Y-64464085D01*
X136603558Y-64329844D01*
X136500362Y-64219348D01*
X136371181Y-64140791D01*
X136315577Y-64125211D01*
X137023891Y-63416897D01*
X136836733Y-63302206D01*
X136617437Y-63211371D01*
X136386632Y-63155960D01*
X136150000Y-63137337D01*
X135913367Y-63155960D01*
X135682562Y-63211371D01*
X135463262Y-63302208D01*
X135276107Y-63416896D01*
X135276107Y-63416898D01*
X135982374Y-64123165D01*
X135861542Y-64175651D01*
X135744261Y-64271066D01*
X135657072Y-64394585D01*
X135625162Y-64484371D01*
X134916898Y-63776107D01*
X134916896Y-63776107D01*
X134802208Y-63963262D01*
X134711371Y-64182562D01*
X134655960Y-64413367D01*
X134637337Y-64650000D01*
X133163165Y-64650000D01*
X133144535Y-64413289D01*
X133089105Y-64182406D01*
X132998240Y-63963037D01*
X132874176Y-63760584D01*
X132874173Y-63760580D01*
X132719969Y-63580030D01*
X132539419Y-63425826D01*
X132539417Y-63425825D01*
X132539416Y-63425824D01*
X132336963Y-63301760D01*
X132118744Y-63211371D01*
X132117592Y-63210894D01*
X131959651Y-63172976D01*
X131886711Y-63155465D01*
X131650000Y-63136835D01*
X131413289Y-63155465D01*
X131182407Y-63210894D01*
X130963038Y-63301759D01*
X130760582Y-63425825D01*
X130760580Y-63425826D01*
X130580030Y-63580030D01*
X130425826Y-63760580D01*
X130425825Y-63760582D01*
X130301759Y-63963038D01*
X130210894Y-64182407D01*
X130184874Y-64290790D01*
X130155465Y-64413289D01*
X130136835Y-64650000D01*
X126381500Y-64650000D01*
X126381500Y-57620000D01*
X126636844Y-57620000D01*
X126654232Y-57829844D01*
X126655437Y-57844375D01*
X126710702Y-58062612D01*
X126710703Y-58062613D01*
X126710704Y-58062616D01*
X126765652Y-58187886D01*
X126801141Y-58268793D01*
X126924275Y-58457265D01*
X126924279Y-58457270D01*
X127037862Y-58580652D01*
X127071725Y-58617437D01*
X127076762Y-58622908D01*
X127131331Y-58665381D01*
X127254424Y-58761189D01*
X127288205Y-58779470D01*
X127338596Y-58829482D01*
X127353949Y-58898799D01*
X127329389Y-58965412D01*
X127288209Y-59001096D01*
X127254704Y-59019228D01*
X127254698Y-59019232D01*
X127077097Y-59157465D01*
X126924674Y-59323041D01*
X126801580Y-59511451D01*
X126711179Y-59717543D01*
X126711176Y-59717550D01*
X126663455Y-59905999D01*
X126663456Y-59906000D01*
X127568884Y-59906000D01*
X127540507Y-59950156D01*
X127500000Y-60088111D01*
X127500000Y-60231889D01*
X127540507Y-60369844D01*
X127568884Y-60414000D01*
X126663455Y-60414000D01*
X126711176Y-60602449D01*
X126711179Y-60602456D01*
X126801580Y-60808548D01*
X126924674Y-60996958D01*
X127077097Y-61162534D01*
X127254698Y-61300767D01*
X127254699Y-61300768D01*
X127452628Y-61407882D01*
X127452630Y-61407883D01*
X127665483Y-61480955D01*
X127665492Y-61480957D01*
X127746000Y-61494391D01*
X127746000Y-60593674D01*
X127857685Y-60644680D01*
X127964237Y-60660000D01*
X128035763Y-60660000D01*
X128142315Y-60644680D01*
X128253999Y-60593674D01*
X128253999Y-61494390D01*
X128334507Y-61480957D01*
X128334516Y-61480955D01*
X128547369Y-61407883D01*
X128547371Y-61407882D01*
X128745300Y-61300768D01*
X128745301Y-61300767D01*
X128922902Y-61162534D01*
X129075325Y-60996958D01*
X129198419Y-60808548D01*
X129288820Y-60602456D01*
X129288823Y-60602449D01*
X129336544Y-60414000D01*
X128431116Y-60414000D01*
X128459493Y-60369844D01*
X128500000Y-60231889D01*
X128500000Y-60088111D01*
X128459493Y-59950156D01*
X128431116Y-59906000D01*
X129336544Y-59906000D01*
X129336544Y-59905999D01*
X129288823Y-59717550D01*
X129288820Y-59717543D01*
X129198419Y-59511451D01*
X129075325Y-59323041D01*
X128922902Y-59157465D01*
X128745301Y-59019232D01*
X128745300Y-59019231D01*
X128711791Y-59001097D01*
X128661401Y-58951083D01*
X128646050Y-58881766D01*
X128670612Y-58815153D01*
X128711790Y-58779472D01*
X128745576Y-58761189D01*
X128923240Y-58622906D01*
X129075722Y-58457268D01*
X129198860Y-58268791D01*
X129250966Y-58150000D01*
X130136835Y-58150000D01*
X130155465Y-58386711D01*
X130172403Y-58457265D01*
X130210894Y-58617592D01*
X130270374Y-58761189D01*
X130301760Y-58836963D01*
X130416310Y-59023891D01*
X130425825Y-59039417D01*
X130425826Y-59039419D01*
X130580030Y-59219969D01*
X130760580Y-59374173D01*
X130760584Y-59374176D01*
X130963037Y-59498240D01*
X131182406Y-59589105D01*
X131413289Y-59644535D01*
X131650000Y-59663165D01*
X131886711Y-59644535D01*
X132117594Y-59589105D01*
X132336963Y-59498240D01*
X132539416Y-59374176D01*
X132719969Y-59219969D01*
X132874176Y-59039416D01*
X132998240Y-58836963D01*
X133089105Y-58617594D01*
X133144535Y-58386711D01*
X133163165Y-58150000D01*
X134637337Y-58150000D01*
X134655960Y-58386632D01*
X134711371Y-58617437D01*
X134802206Y-58836733D01*
X134916897Y-59023891D01*
X135623097Y-58317691D01*
X135626884Y-58335915D01*
X135696442Y-58470156D01*
X135799638Y-58580652D01*
X135928819Y-58659209D01*
X135984421Y-58674788D01*
X135276107Y-59383101D01*
X135276107Y-59383102D01*
X135463261Y-59497791D01*
X135682562Y-59588628D01*
X135913367Y-59644039D01*
X136150000Y-59662662D01*
X136386632Y-59644039D01*
X136617437Y-59588628D01*
X136836738Y-59497791D01*
X137023891Y-59383102D01*
X137023892Y-59383101D01*
X136317625Y-58676834D01*
X136438458Y-58624349D01*
X136555739Y-58528934D01*
X136642928Y-58405415D01*
X136674837Y-58315628D01*
X137383101Y-59023892D01*
X137383102Y-59023891D01*
X137497791Y-58836738D01*
X137588628Y-58617437D01*
X137644039Y-58386632D01*
X137662662Y-58150000D01*
X137644039Y-57913367D01*
X137588628Y-57682562D01*
X137497791Y-57463261D01*
X137383102Y-57276107D01*
X137383101Y-57276107D01*
X136676902Y-57982306D01*
X136673116Y-57964085D01*
X136603558Y-57829844D01*
X136500362Y-57719348D01*
X136371181Y-57640791D01*
X136315578Y-57625211D01*
X137023891Y-56916898D01*
X137023891Y-56916897D01*
X136836733Y-56802206D01*
X136617437Y-56711371D01*
X136386632Y-56655960D01*
X136150000Y-56637337D01*
X135913367Y-56655960D01*
X135682562Y-56711371D01*
X135463262Y-56802208D01*
X135276107Y-56916896D01*
X135276107Y-56916897D01*
X135982376Y-57623165D01*
X135861542Y-57675651D01*
X135744261Y-57771066D01*
X135657072Y-57894585D01*
X135625162Y-57984371D01*
X134916898Y-57276107D01*
X134916896Y-57276107D01*
X134802208Y-57463262D01*
X134711371Y-57682562D01*
X134655960Y-57913367D01*
X134637337Y-58150000D01*
X133163165Y-58150000D01*
X133144535Y-57913289D01*
X133089105Y-57682406D01*
X133088820Y-57681719D01*
X133088790Y-57681439D01*
X133087577Y-57677705D01*
X133088361Y-57677449D01*
X133081233Y-57611132D01*
X133113014Y-57547646D01*
X133116107Y-57544440D01*
X134160548Y-56499999D01*
X156432675Y-56499999D01*
X156451912Y-56670744D01*
X156508664Y-56832930D01*
X156508665Y-56832933D01*
X156600079Y-56978417D01*
X156600080Y-56978419D01*
X156721580Y-57099919D01*
X156721582Y-57099920D01*
X156867069Y-57191336D01*
X156874222Y-57193839D01*
X156921702Y-57223673D01*
X157954595Y-58256565D01*
X157988620Y-58318877D01*
X157991500Y-58345660D01*
X157991500Y-65598937D01*
X157972187Y-65665973D01*
X157908665Y-65767067D01*
X157908664Y-65767069D01*
X157851912Y-65929255D01*
X157832675Y-66099999D01*
X157851912Y-66270744D01*
X157908664Y-66432930D01*
X157908665Y-66432933D01*
X158000079Y-66578417D01*
X158000080Y-66578419D01*
X158121580Y-66699919D01*
X158121582Y-66699920D01*
X158267066Y-66791334D01*
X158267067Y-66791334D01*
X158267070Y-66791336D01*
X158429254Y-66848087D01*
X158429253Y-66848087D01*
X158448490Y-66850254D01*
X158600000Y-66867325D01*
X158770746Y-66848087D01*
X158932930Y-66791336D01*
X159078419Y-66699919D01*
X159199919Y-66578419D01*
X159291336Y-66432930D01*
X159315833Y-66362919D01*
X159331070Y-66332954D01*
X159331954Y-66331675D01*
X159354206Y-66272999D01*
X159355638Y-66269541D01*
X159367766Y-66242595D01*
X159381386Y-66212336D01*
X159381388Y-66212329D01*
X159383224Y-66202309D01*
X159389351Y-66180329D01*
X159392965Y-66170801D01*
X159400526Y-66108520D01*
X159401094Y-66104787D01*
X159412401Y-66043093D01*
X159408614Y-65980498D01*
X159408500Y-65976696D01*
X159408500Y-58023302D01*
X159408615Y-58019497D01*
X159412401Y-57956907D01*
X159401095Y-57895216D01*
X159400525Y-57891469D01*
X159392965Y-57829199D01*
X159389347Y-57819662D01*
X159383225Y-57797696D01*
X159381388Y-57787669D01*
X159355651Y-57730485D01*
X159354194Y-57726967D01*
X159337295Y-57682408D01*
X159331954Y-57668325D01*
X159326163Y-57659935D01*
X159314958Y-57640070D01*
X159310775Y-57630774D01*
X159272073Y-57581375D01*
X159269855Y-57578360D01*
X159234215Y-57526727D01*
X159187258Y-57485127D01*
X159184512Y-57482541D01*
X157923673Y-56221702D01*
X157893839Y-56174222D01*
X157891336Y-56167069D01*
X157799920Y-56021582D01*
X157799919Y-56021580D01*
X157678419Y-55900080D01*
X157678417Y-55900079D01*
X157532933Y-55808665D01*
X157532930Y-55808664D01*
X157370746Y-55751913D01*
X157370744Y-55751912D01*
X157370746Y-55751912D01*
X157200000Y-55732675D01*
X157029255Y-55751912D01*
X156867069Y-55808664D01*
X156867066Y-55808665D01*
X156721582Y-55900079D01*
X156721580Y-55900080D01*
X156600080Y-56021580D01*
X156600079Y-56021582D01*
X156508665Y-56167066D01*
X156508664Y-56167069D01*
X156451912Y-56329255D01*
X156432675Y-56499999D01*
X134160548Y-56499999D01*
X137015143Y-53645405D01*
X137077456Y-53611379D01*
X137104239Y-53608500D01*
X143698938Y-53608500D01*
X143765973Y-53627812D01*
X143867070Y-53691336D01*
X144029254Y-53748087D01*
X144029253Y-53748087D01*
X144039132Y-53749200D01*
X144200000Y-53767325D01*
X144370746Y-53748087D01*
X144532930Y-53691336D01*
X144678419Y-53599919D01*
X144799919Y-53478419D01*
X144891336Y-53332930D01*
X144948087Y-53170746D01*
X144967325Y-53000000D01*
X144948087Y-52829254D01*
X144891336Y-52667070D01*
X144891334Y-52667067D01*
X144891334Y-52667066D01*
X144799920Y-52521582D01*
X144799919Y-52521580D01*
X144678419Y-52400080D01*
X144678417Y-52400079D01*
X144532933Y-52308665D01*
X144532930Y-52308664D01*
X144532927Y-52308663D01*
X144370746Y-52251913D01*
X144370744Y-52251912D01*
X144370746Y-52251912D01*
X144217289Y-52234622D01*
X144200000Y-52232675D01*
X144199999Y-52232675D01*
X144029255Y-52251912D01*
X143867070Y-52308663D01*
X143797126Y-52352612D01*
X143765973Y-52372187D01*
X143698938Y-52391500D01*
X136844012Y-52391500D01*
X136835781Y-52390960D01*
X136800001Y-52386250D01*
X136799997Y-52386250D01*
X136762273Y-52391216D01*
X136762254Y-52391218D01*
X136694939Y-52400080D01*
X136660543Y-52404608D01*
X136657990Y-52404944D01*
X136641150Y-52407161D01*
X136641147Y-52407162D01*
X136493125Y-52468475D01*
X136493117Y-52468480D01*
X136423915Y-52521582D01*
X136397929Y-52541522D01*
X136397925Y-52541525D01*
X136395628Y-52543288D01*
X136395621Y-52543292D01*
X136366011Y-52566013D01*
X136344035Y-52594653D01*
X136338597Y-52600853D01*
X132255587Y-56683862D01*
X132193275Y-56717888D01*
X132122460Y-56712823D01*
X132118287Y-56711181D01*
X132117608Y-56710900D01*
X132117598Y-56710896D01*
X132117594Y-56710895D01*
X131886711Y-56655465D01*
X131650000Y-56636835D01*
X131413289Y-56655465D01*
X131182407Y-56710894D01*
X130963038Y-56801759D01*
X130760582Y-56925825D01*
X130760580Y-56925826D01*
X130580030Y-57080030D01*
X130425826Y-57260580D01*
X130425825Y-57260582D01*
X130301759Y-57463038D01*
X130210894Y-57682407D01*
X130160251Y-57893354D01*
X130155465Y-57913289D01*
X130136835Y-58150000D01*
X129250966Y-58150000D01*
X129289296Y-58062616D01*
X129344564Y-57844368D01*
X129363156Y-57620000D01*
X129344564Y-57395632D01*
X129289296Y-57177384D01*
X129198860Y-56971209D01*
X129108518Y-56832930D01*
X129075724Y-56782734D01*
X129075720Y-56782729D01*
X128923237Y-56617091D01*
X128772799Y-56500000D01*
X128745576Y-56478811D01*
X128712319Y-56460813D01*
X128661929Y-56410802D01*
X128646576Y-56341485D01*
X128671136Y-56274872D01*
X128712320Y-56239186D01*
X128745576Y-56221189D01*
X128923240Y-56082906D01*
X129075722Y-55917268D01*
X129198860Y-55728791D01*
X129289296Y-55522616D01*
X129344564Y-55304368D01*
X129363156Y-55080000D01*
X129344564Y-54855632D01*
X129289296Y-54637384D01*
X129198860Y-54431209D01*
X129192140Y-54420924D01*
X129075724Y-54242734D01*
X129075720Y-54242729D01*
X128923237Y-54077091D01*
X128841382Y-54013381D01*
X128745576Y-53938811D01*
X128712319Y-53920813D01*
X128661929Y-53870802D01*
X128646576Y-53801485D01*
X128671136Y-53734872D01*
X128712320Y-53699186D01*
X128745576Y-53681189D01*
X128923240Y-53542906D01*
X129075722Y-53377268D01*
X129198860Y-53188791D01*
X129289296Y-52982616D01*
X129344564Y-52764368D01*
X129363156Y-52540000D01*
X129344564Y-52315632D01*
X129328428Y-52251912D01*
X129289297Y-52097387D01*
X129289296Y-52097386D01*
X129289296Y-52097384D01*
X129198860Y-51891209D01*
X129129058Y-51784369D01*
X129075724Y-51702734D01*
X129075719Y-51702729D01*
X128932524Y-51547179D01*
X128901103Y-51483514D01*
X128909090Y-51412968D01*
X128953948Y-51357939D01*
X128981183Y-51343789D01*
X129096204Y-51300889D01*
X129213261Y-51213261D01*
X129213260Y-51213261D01*
X129300887Y-51096207D01*
X129300887Y-51096206D01*
X129300889Y-51096204D01*
X129351989Y-50959201D01*
X129358353Y-50900003D01*
X151936378Y-50900003D01*
X151956813Y-51107495D01*
X151956814Y-51107501D01*
X151956815Y-51107502D01*
X152017341Y-51307031D01*
X152115631Y-51490917D01*
X152247906Y-51652094D01*
X152409083Y-51784369D01*
X152592969Y-51882659D01*
X152792498Y-51943185D01*
X152792502Y-51943185D01*
X152792504Y-51943186D01*
X152999997Y-51963622D01*
X153000000Y-51963622D01*
X153000003Y-51963622D01*
X153207495Y-51943186D01*
X153207496Y-51943185D01*
X153207502Y-51943185D01*
X153407031Y-51882659D01*
X153590917Y-51784369D01*
X153752094Y-51652094D01*
X153884369Y-51490917D01*
X153938878Y-51388937D01*
X153988630Y-51338290D01*
X154057867Y-51322580D01*
X154124606Y-51346796D01*
X154161120Y-51388936D01*
X154215631Y-51490917D01*
X154347906Y-51652094D01*
X154509083Y-51784369D01*
X154692969Y-51882659D01*
X154892498Y-51943185D01*
X154892502Y-51943185D01*
X154892504Y-51943186D01*
X155099997Y-51963622D01*
X155100000Y-51963622D01*
X155100003Y-51963622D01*
X155307495Y-51943186D01*
X155307496Y-51943185D01*
X155307502Y-51943185D01*
X155507031Y-51882659D01*
X155690917Y-51784369D01*
X155852094Y-51652094D01*
X155984369Y-51490917D01*
X156082659Y-51307031D01*
X156143185Y-51107502D01*
X156144298Y-51096207D01*
X156163622Y-50900003D01*
X156163622Y-50899996D01*
X156143186Y-50692504D01*
X156143185Y-50692502D01*
X156143185Y-50692498D01*
X156082659Y-50492969D01*
X155984369Y-50309083D01*
X155852094Y-50147906D01*
X155690917Y-50015631D01*
X155507031Y-49917341D01*
X155307502Y-49856815D01*
X155307501Y-49856814D01*
X155307495Y-49856813D01*
X155100003Y-49836378D01*
X155099997Y-49836378D01*
X154892504Y-49856813D01*
X154692968Y-49917341D01*
X154509082Y-50015631D01*
X154347906Y-50147906D01*
X154215632Y-50309080D01*
X154161122Y-50411062D01*
X154111369Y-50461710D01*
X154042133Y-50477419D01*
X153975394Y-50453203D01*
X153938878Y-50411062D01*
X153884367Y-50309080D01*
X153842564Y-50258144D01*
X153752094Y-50147906D01*
X153590917Y-50015631D01*
X153407031Y-49917341D01*
X153207502Y-49856815D01*
X153207501Y-49856814D01*
X153207495Y-49856813D01*
X153000003Y-49836378D01*
X152999997Y-49836378D01*
X152792504Y-49856813D01*
X152592968Y-49917341D01*
X152409082Y-50015631D01*
X152247906Y-50147906D01*
X152115631Y-50309082D01*
X152017341Y-50492968D01*
X151956813Y-50692504D01*
X151936378Y-50899996D01*
X151936378Y-50900003D01*
X129358353Y-50900003D01*
X129358500Y-50898638D01*
X129358500Y-49101362D01*
X129358499Y-49101350D01*
X129351990Y-49040803D01*
X129351988Y-49040795D01*
X129300889Y-48903797D01*
X129300887Y-48903792D01*
X129213261Y-48786738D01*
X129096207Y-48699112D01*
X129096202Y-48699110D01*
X128959204Y-48648011D01*
X128959196Y-48648009D01*
X128898649Y-48641500D01*
X128898638Y-48641500D01*
X127101362Y-48641500D01*
X127101350Y-48641500D01*
X127040803Y-48648009D01*
X127040795Y-48648011D01*
X126903797Y-48699110D01*
X126903792Y-48699112D01*
X126786738Y-48786738D01*
X126699112Y-48903792D01*
X126699110Y-48903797D01*
X126648011Y-49040795D01*
X126648009Y-49040803D01*
X126641500Y-49101350D01*
X126641500Y-50898649D01*
X126648009Y-50959196D01*
X126648011Y-50959204D01*
X126699110Y-51096202D01*
X126699112Y-51096207D01*
X126786738Y-51213261D01*
X126903791Y-51300886D01*
X126903792Y-51300886D01*
X126903796Y-51300889D01*
X127018810Y-51343787D01*
X127075642Y-51386332D01*
X127100453Y-51452852D01*
X127085362Y-51522226D01*
X127067475Y-51547179D01*
X126924280Y-51702729D01*
X126924275Y-51702734D01*
X126801141Y-51891206D01*
X126710703Y-52097386D01*
X126710702Y-52097387D01*
X126655437Y-52315624D01*
X126655436Y-52315630D01*
X126655436Y-52315632D01*
X126636844Y-52540000D01*
X126647373Y-52667069D01*
X126655437Y-52764375D01*
X126710702Y-52982612D01*
X126710703Y-52982613D01*
X126710704Y-52982616D01*
X126793224Y-53170744D01*
X126801141Y-53188793D01*
X126924275Y-53377265D01*
X126924279Y-53377270D01*
X127076762Y-53542908D01*
X127131331Y-53585381D01*
X127254424Y-53681189D01*
X127287680Y-53699186D01*
X127338071Y-53749200D01*
X127353423Y-53818516D01*
X127328862Y-53885129D01*
X127287680Y-53920813D01*
X127254426Y-53938810D01*
X127254424Y-53938811D01*
X127076762Y-54077091D01*
X126924279Y-54242729D01*
X126924275Y-54242734D01*
X126801141Y-54431206D01*
X126710703Y-54637386D01*
X126710702Y-54637387D01*
X126655437Y-54855624D01*
X126636844Y-55080000D01*
X126655437Y-55304375D01*
X126710702Y-55522612D01*
X126710703Y-55522613D01*
X126801141Y-55728793D01*
X126924275Y-55917265D01*
X126924279Y-55917270D01*
X127076762Y-56082908D01*
X127131331Y-56125381D01*
X127254424Y-56221189D01*
X127287680Y-56239186D01*
X127338071Y-56289200D01*
X127353423Y-56358516D01*
X127328862Y-56425129D01*
X127287680Y-56460813D01*
X127254426Y-56478810D01*
X127254424Y-56478811D01*
X127076762Y-56617091D01*
X126924279Y-56782729D01*
X126924275Y-56782734D01*
X126801141Y-56971206D01*
X126710703Y-57177386D01*
X126710702Y-57177387D01*
X126655437Y-57395624D01*
X126655436Y-57395630D01*
X126655436Y-57395632D01*
X126644573Y-57526727D01*
X126638175Y-57603943D01*
X126636844Y-57620000D01*
X126381500Y-57620000D01*
X126381500Y-48507500D01*
X126401502Y-48439379D01*
X126455158Y-48392886D01*
X126507500Y-48381500D01*
X161492500Y-48381500D01*
X161560621Y-48401502D01*
G37*
G04 #@! TD.AperFunction*
M02*
