G04 #@! TF.GenerationSoftware,KiCad,Pcbnew,7.0.6-0*
G04 #@! TF.CreationDate,2024-08-28T16:36:48-06:00*
G04 #@! TF.ProjectId,card-debug-board-2,63617264-2d64-4656-9275-672d626f6172,rev?*
G04 #@! TF.SameCoordinates,Original*
G04 #@! TF.FileFunction,Soldermask,Top*
G04 #@! TF.FilePolarity,Negative*
%FSLAX46Y46*%
G04 Gerber Fmt 4.6, Leading zero omitted, Abs format (unit mm)*
G04 Created by KiCad (PCBNEW 7.0.6-0) date 2024-08-28 16:36:48*
%MOMM*%
%LPD*%
G01*
G04 APERTURE LIST*
G04 APERTURE END LIST*
G36*
X147272567Y-88875930D02*
G01*
X147319076Y-88875930D01*
X147359232Y-88884465D01*
X147400530Y-88888533D01*
X147452415Y-88904272D01*
X147503115Y-88915049D01*
X147535558Y-88929493D01*
X147569319Y-88939735D01*
X147622967Y-88968410D01*
X147675000Y-88991577D01*
X147699192Y-89009153D01*
X147724878Y-89022883D01*
X147777271Y-89065881D01*
X147827218Y-89102170D01*
X147843436Y-89120182D01*
X147861221Y-89134778D01*
X147909018Y-89193018D01*
X147953115Y-89241993D01*
X147962377Y-89258036D01*
X147973116Y-89271121D01*
X148012840Y-89345440D01*
X148047191Y-89404937D01*
X148051142Y-89417098D01*
X148056264Y-89426680D01*
X148084504Y-89519775D01*
X148105333Y-89583879D01*
X148106066Y-89590854D01*
X148107466Y-89595469D01*
X148121090Y-89733802D01*
X148125000Y-89771000D01*
X148121090Y-89808200D01*
X148107466Y-89946530D01*
X148106066Y-89951144D01*
X148105333Y-89958121D01*
X148084500Y-90022238D01*
X148056264Y-90115319D01*
X148051143Y-90124899D01*
X148047191Y-90137063D01*
X148012833Y-90196572D01*
X147973116Y-90270878D01*
X147962379Y-90283960D01*
X147953115Y-90300007D01*
X147909009Y-90348991D01*
X147861221Y-90407221D01*
X147843439Y-90421813D01*
X147827218Y-90439830D01*
X147777260Y-90476126D01*
X147724878Y-90519116D01*
X147699197Y-90532842D01*
X147675000Y-90550423D01*
X147622955Y-90573594D01*
X147569319Y-90602264D01*
X147535565Y-90612503D01*
X147503115Y-90626951D01*
X147452404Y-90637729D01*
X147400530Y-90653466D01*
X147359241Y-90657532D01*
X147319076Y-90666070D01*
X147272558Y-90666070D01*
X147225000Y-90670754D01*
X147177442Y-90666070D01*
X147130924Y-90666070D01*
X147090759Y-90657532D01*
X147049469Y-90653466D01*
X146997592Y-90637729D01*
X146946885Y-90626951D01*
X146914436Y-90612503D01*
X146880680Y-90602264D01*
X146827038Y-90573591D01*
X146775000Y-90550423D01*
X146750805Y-90532844D01*
X146725121Y-90519116D01*
X146672730Y-90476119D01*
X146622782Y-90439830D01*
X146606562Y-90421816D01*
X146588778Y-90407221D01*
X146540979Y-90348978D01*
X146496885Y-90300007D01*
X146487622Y-90283964D01*
X146476883Y-90270878D01*
X146437153Y-90196548D01*
X146402809Y-90137063D01*
X146398858Y-90124903D01*
X146393735Y-90115319D01*
X146365484Y-90022191D01*
X146344667Y-89958121D01*
X146343934Y-89951149D01*
X146342533Y-89946530D01*
X146328893Y-89808049D01*
X146325000Y-89771000D01*
X146328893Y-89733953D01*
X146342533Y-89595469D01*
X146343934Y-89590849D01*
X146344667Y-89583879D01*
X146365480Y-89519822D01*
X146393735Y-89426680D01*
X146398859Y-89417093D01*
X146402809Y-89404937D01*
X146437145Y-89345463D01*
X146476883Y-89271121D01*
X146487624Y-89258032D01*
X146496885Y-89241993D01*
X146540970Y-89193031D01*
X146588778Y-89134778D01*
X146606566Y-89120179D01*
X146622782Y-89102170D01*
X146672719Y-89065888D01*
X146725121Y-89022883D01*
X146750810Y-89009151D01*
X146775000Y-88991577D01*
X146827026Y-88968413D01*
X146880680Y-88939735D01*
X146914443Y-88929492D01*
X146946885Y-88915049D01*
X146997581Y-88904273D01*
X147049469Y-88888533D01*
X147090768Y-88884465D01*
X147130924Y-88875930D01*
X147177431Y-88875930D01*
X147224999Y-88871245D01*
X147272567Y-88875930D01*
G37*
G36*
X155022567Y-88875930D02*
G01*
X155069076Y-88875930D01*
X155109232Y-88884465D01*
X155150530Y-88888533D01*
X155202415Y-88904272D01*
X155253115Y-88915049D01*
X155285558Y-88929493D01*
X155319319Y-88939735D01*
X155372967Y-88968410D01*
X155425000Y-88991577D01*
X155449192Y-89009153D01*
X155474878Y-89022883D01*
X155527271Y-89065881D01*
X155577218Y-89102170D01*
X155593436Y-89120182D01*
X155611221Y-89134778D01*
X155659018Y-89193018D01*
X155703115Y-89241993D01*
X155712377Y-89258036D01*
X155723116Y-89271121D01*
X155762840Y-89345440D01*
X155797191Y-89404937D01*
X155801142Y-89417098D01*
X155806264Y-89426680D01*
X155834504Y-89519775D01*
X155855333Y-89583879D01*
X155856066Y-89590854D01*
X155857466Y-89595469D01*
X155871090Y-89733802D01*
X155875000Y-89771000D01*
X155871090Y-89808200D01*
X155857466Y-89946530D01*
X155856066Y-89951144D01*
X155855333Y-89958121D01*
X155834500Y-90022238D01*
X155806264Y-90115319D01*
X155801143Y-90124899D01*
X155797191Y-90137063D01*
X155762833Y-90196572D01*
X155723116Y-90270878D01*
X155712379Y-90283960D01*
X155703115Y-90300007D01*
X155659009Y-90348991D01*
X155611221Y-90407221D01*
X155593439Y-90421813D01*
X155577218Y-90439830D01*
X155527260Y-90476126D01*
X155474878Y-90519116D01*
X155449197Y-90532842D01*
X155425000Y-90550423D01*
X155372955Y-90573594D01*
X155319319Y-90602264D01*
X155285565Y-90612503D01*
X155253115Y-90626951D01*
X155202404Y-90637729D01*
X155150530Y-90653466D01*
X155109241Y-90657532D01*
X155069076Y-90666070D01*
X155022558Y-90666070D01*
X154975000Y-90670754D01*
X154927442Y-90666070D01*
X154880924Y-90666070D01*
X154840759Y-90657532D01*
X154799469Y-90653466D01*
X154747592Y-90637729D01*
X154696885Y-90626951D01*
X154664436Y-90612503D01*
X154630680Y-90602264D01*
X154577038Y-90573591D01*
X154525000Y-90550423D01*
X154500805Y-90532844D01*
X154475121Y-90519116D01*
X154422730Y-90476119D01*
X154372782Y-90439830D01*
X154356562Y-90421816D01*
X154338778Y-90407221D01*
X154290979Y-90348978D01*
X154246885Y-90300007D01*
X154237622Y-90283964D01*
X154226883Y-90270878D01*
X154187153Y-90196548D01*
X154152809Y-90137063D01*
X154148858Y-90124903D01*
X154143735Y-90115319D01*
X154115484Y-90022191D01*
X154094667Y-89958121D01*
X154093934Y-89951149D01*
X154092533Y-89946530D01*
X154078893Y-89808049D01*
X154075000Y-89771000D01*
X154078893Y-89733953D01*
X154092533Y-89595469D01*
X154093934Y-89590849D01*
X154094667Y-89583879D01*
X154115480Y-89519822D01*
X154143735Y-89426680D01*
X154148859Y-89417093D01*
X154152809Y-89404937D01*
X154187145Y-89345463D01*
X154226883Y-89271121D01*
X154237624Y-89258032D01*
X154246885Y-89241993D01*
X154290970Y-89193031D01*
X154338778Y-89134778D01*
X154356566Y-89120179D01*
X154372782Y-89102170D01*
X154422719Y-89065888D01*
X154475121Y-89022883D01*
X154500810Y-89009151D01*
X154525000Y-88991577D01*
X154577026Y-88968413D01*
X154630680Y-88939735D01*
X154664443Y-88929492D01*
X154696885Y-88915049D01*
X154747581Y-88904273D01*
X154799469Y-88888533D01*
X154840768Y-88884465D01*
X154880924Y-88875930D01*
X154927431Y-88875930D01*
X154974999Y-88871245D01*
X155022567Y-88875930D01*
G37*
G36*
X148628968Y-86625588D02*
G01*
X148656852Y-86625588D01*
X148689504Y-86635175D01*
X148723607Y-86640577D01*
X148744970Y-86651462D01*
X148765948Y-86657622D01*
X148799967Y-86679484D01*
X148835114Y-86697393D01*
X148848207Y-86710486D01*
X148861604Y-86719096D01*
X148892673Y-86754952D01*
X148923607Y-86785886D01*
X148929501Y-86797455D01*
X148936061Y-86805025D01*
X148959415Y-86856163D01*
X148980423Y-86897393D01*
X148981579Y-86904695D01*
X148983295Y-86908452D01*
X148994327Y-86985183D01*
X149000000Y-87021000D01*
X148994326Y-87056819D01*
X148983295Y-87133547D01*
X148981579Y-87137302D01*
X148980423Y-87144607D01*
X148959411Y-87185844D01*
X148936061Y-87236974D01*
X148929503Y-87244542D01*
X148923607Y-87256114D01*
X148892666Y-87287054D01*
X148861604Y-87322903D01*
X148848210Y-87331510D01*
X148835114Y-87344607D01*
X148799959Y-87362519D01*
X148765948Y-87384377D01*
X148744974Y-87390535D01*
X148723607Y-87401423D01*
X148689502Y-87406824D01*
X148656852Y-87416412D01*
X148628968Y-87416412D01*
X148600000Y-87421000D01*
X148571032Y-87416412D01*
X148543148Y-87416412D01*
X148510496Y-87406824D01*
X148476393Y-87401423D01*
X148455026Y-87390536D01*
X148434051Y-87384377D01*
X148400035Y-87362516D01*
X148364886Y-87344607D01*
X148351791Y-87331512D01*
X148338395Y-87322903D01*
X148307325Y-87287046D01*
X148276393Y-87256114D01*
X148270498Y-87244545D01*
X148263938Y-87236974D01*
X148240579Y-87185826D01*
X148219577Y-87144607D01*
X148218420Y-87137305D01*
X148216704Y-87133547D01*
X148205662Y-87056750D01*
X148200000Y-87021000D01*
X148205661Y-86985252D01*
X148216704Y-86908452D01*
X148218420Y-86904692D01*
X148219577Y-86897393D01*
X148240574Y-86856182D01*
X148263938Y-86805025D01*
X148270499Y-86797452D01*
X148276393Y-86785886D01*
X148307319Y-86754959D01*
X148338395Y-86719096D01*
X148351793Y-86710485D01*
X148364886Y-86697393D01*
X148400027Y-86679487D01*
X148434051Y-86657622D01*
X148455030Y-86651461D01*
X148476393Y-86640577D01*
X148510494Y-86635175D01*
X148543148Y-86625588D01*
X148571032Y-86625588D01*
X148600000Y-86621000D01*
X148628968Y-86625588D01*
G37*
G36*
X153628968Y-86625588D02*
G01*
X153656852Y-86625588D01*
X153689504Y-86635175D01*
X153723607Y-86640577D01*
X153744970Y-86651462D01*
X153765948Y-86657622D01*
X153799967Y-86679484D01*
X153835114Y-86697393D01*
X153848207Y-86710486D01*
X153861604Y-86719096D01*
X153892673Y-86754952D01*
X153923607Y-86785886D01*
X153929501Y-86797455D01*
X153936061Y-86805025D01*
X153959415Y-86856163D01*
X153980423Y-86897393D01*
X153981579Y-86904695D01*
X153983295Y-86908452D01*
X153994328Y-86985190D01*
X154000000Y-87021000D01*
X153994325Y-87056826D01*
X153983295Y-87133547D01*
X153981579Y-87137302D01*
X153980423Y-87144607D01*
X153959411Y-87185844D01*
X153936061Y-87236974D01*
X153929503Y-87244542D01*
X153923607Y-87256114D01*
X153892666Y-87287054D01*
X153861604Y-87322903D01*
X153848210Y-87331510D01*
X153835114Y-87344607D01*
X153799959Y-87362519D01*
X153765948Y-87384377D01*
X153744974Y-87390535D01*
X153723607Y-87401423D01*
X153689502Y-87406824D01*
X153656852Y-87416412D01*
X153628968Y-87416412D01*
X153600000Y-87421000D01*
X153571032Y-87416412D01*
X153543148Y-87416412D01*
X153510496Y-87406824D01*
X153476393Y-87401423D01*
X153455026Y-87390536D01*
X153434051Y-87384377D01*
X153400035Y-87362516D01*
X153364886Y-87344607D01*
X153351791Y-87331512D01*
X153338395Y-87322903D01*
X153307325Y-87287046D01*
X153276393Y-87256114D01*
X153270498Y-87244545D01*
X153263938Y-87236974D01*
X153240579Y-87185826D01*
X153219577Y-87144607D01*
X153218420Y-87137305D01*
X153216704Y-87133547D01*
X153205663Y-87056757D01*
X153200000Y-87021000D01*
X153205660Y-86985259D01*
X153216704Y-86908452D01*
X153218420Y-86904692D01*
X153219577Y-86897393D01*
X153240574Y-86856182D01*
X153263938Y-86805025D01*
X153270499Y-86797452D01*
X153276393Y-86785886D01*
X153307319Y-86754959D01*
X153338395Y-86719096D01*
X153351793Y-86710485D01*
X153364886Y-86697393D01*
X153400027Y-86679487D01*
X153434051Y-86657622D01*
X153455030Y-86651461D01*
X153476393Y-86640577D01*
X153510494Y-86635175D01*
X153543148Y-86625588D01*
X153571032Y-86625588D01*
X153600000Y-86621000D01*
X153628968Y-86625588D01*
G37*
G36*
X147570090Y-84990215D02*
G01*
X147757683Y-85047120D01*
X147930570Y-85139530D01*
X148082107Y-85263893D01*
X148206470Y-85415430D01*
X148298880Y-85588317D01*
X148355785Y-85775910D01*
X148375000Y-85971000D01*
X148355785Y-86166090D01*
X148298880Y-86353683D01*
X148206470Y-86526570D01*
X148082107Y-86678107D01*
X147930570Y-86802470D01*
X147757683Y-86894880D01*
X147570090Y-86951785D01*
X147375000Y-86971000D01*
X147179910Y-86951785D01*
X146992317Y-86894880D01*
X146819430Y-86802470D01*
X146667893Y-86678107D01*
X146543530Y-86526570D01*
X146451120Y-86353683D01*
X146394215Y-86166090D01*
X146375000Y-85971000D01*
X146394215Y-85775910D01*
X146451120Y-85588317D01*
X146543530Y-85415430D01*
X146667893Y-85263893D01*
X146819430Y-85139530D01*
X146992317Y-85047120D01*
X147179910Y-84990215D01*
X147375000Y-84971000D01*
X147570090Y-84990215D01*
G37*
G36*
X155020090Y-84990215D02*
G01*
X155207683Y-85047120D01*
X155380570Y-85139530D01*
X155532107Y-85263893D01*
X155656470Y-85415430D01*
X155748880Y-85588317D01*
X155805785Y-85775910D01*
X155825000Y-85971000D01*
X155805785Y-86166090D01*
X155748880Y-86353683D01*
X155656470Y-86526570D01*
X155532107Y-86678107D01*
X155380570Y-86802470D01*
X155207683Y-86894880D01*
X155020090Y-86951785D01*
X154825000Y-86971000D01*
X154629910Y-86951785D01*
X154442317Y-86894880D01*
X154269430Y-86802470D01*
X154117893Y-86678107D01*
X153993530Y-86526570D01*
X153901120Y-86353683D01*
X153844215Y-86166090D01*
X153825000Y-85971000D01*
X153844215Y-85775910D01*
X153901120Y-85588317D01*
X153993530Y-85415430D01*
X154117893Y-85263893D01*
X154269430Y-85139530D01*
X154442317Y-85047120D01*
X154629910Y-84990215D01*
X154825000Y-84971000D01*
X155020090Y-84990215D01*
G37*
G36*
X150025000Y-86571000D02*
G01*
X149575000Y-86571000D01*
X149575000Y-85271000D01*
X150025000Y-85271000D01*
X150025000Y-86571000D01*
G37*
G36*
X150675000Y-86571000D02*
G01*
X150225000Y-86571000D01*
X150225000Y-85271000D01*
X150675000Y-85271000D01*
X150675000Y-86571000D01*
G37*
G36*
X151325000Y-86571000D02*
G01*
X150875000Y-86571000D01*
X150875000Y-85271000D01*
X151325000Y-85271000D01*
X151325000Y-86571000D01*
G37*
G36*
X151975000Y-86571000D02*
G01*
X151525000Y-86571000D01*
X151525000Y-85271000D01*
X151975000Y-85271000D01*
X151975000Y-86571000D01*
G37*
G36*
X152625000Y-86571000D02*
G01*
X152175000Y-86571000D01*
X152175000Y-85271000D01*
X152625000Y-85271000D01*
X152625000Y-86571000D01*
G37*
G36*
X146136104Y-83118127D02*
G01*
X146209099Y-83166901D01*
X146257873Y-83239896D01*
X146275000Y-83326000D01*
X146275000Y-83826000D01*
X146257873Y-83912104D01*
X146209099Y-83985099D01*
X146136104Y-84033873D01*
X146050000Y-84051000D01*
X145600000Y-84051000D01*
X145513896Y-84033873D01*
X145440901Y-83985099D01*
X145392127Y-83912104D01*
X145375000Y-83826000D01*
X145375000Y-83326000D01*
X145392127Y-83239896D01*
X145440901Y-83166901D01*
X145513896Y-83118127D01*
X145600000Y-83101000D01*
X146050000Y-83101000D01*
X146136104Y-83118127D01*
G37*
G36*
X147686104Y-83118127D02*
G01*
X147759099Y-83166901D01*
X147807873Y-83239896D01*
X147825000Y-83326000D01*
X147825000Y-83826000D01*
X147807873Y-83912104D01*
X147759099Y-83985099D01*
X147686104Y-84033873D01*
X147600000Y-84051000D01*
X147150000Y-84051000D01*
X147063896Y-84033873D01*
X146990901Y-83985099D01*
X146942127Y-83912104D01*
X146925000Y-83826000D01*
X146925000Y-83326000D01*
X146942127Y-83239896D01*
X146990901Y-83166901D01*
X147063896Y-83118127D01*
X147150000Y-83101000D01*
X147600000Y-83101000D01*
X147686104Y-83118127D01*
G37*
G36*
X154773109Y-75475123D02*
G01*
X154833869Y-75475123D01*
X154888105Y-75484173D01*
X154944626Y-75488622D01*
X155012699Y-75504964D01*
X155078228Y-75515900D01*
X155124703Y-75531854D01*
X155173475Y-75543564D01*
X155244468Y-75572970D01*
X155312543Y-75596340D01*
X155350563Y-75616915D01*
X155390916Y-75633630D01*
X155462443Y-75677462D01*
X155530422Y-75714250D01*
X155559836Y-75737143D01*
X155591584Y-75756599D01*
X155660951Y-75815845D01*
X155725922Y-75866414D01*
X155747120Y-75889441D01*
X155770548Y-75909451D01*
X155834888Y-75984782D01*
X155893711Y-76048681D01*
X155907533Y-76069838D01*
X155923400Y-76088415D01*
X155979781Y-76180420D01*
X156029211Y-76256079D01*
X156036935Y-76273688D01*
X156046369Y-76289083D01*
X156091826Y-76398828D01*
X156128726Y-76482951D01*
X156131959Y-76495717D01*
X156136435Y-76506524D01*
X156168181Y-76638759D01*
X156189542Y-76723108D01*
X156190126Y-76730165D01*
X156191377Y-76735373D01*
X156206871Y-76932245D01*
X156210000Y-76970000D01*
X156206871Y-77007757D01*
X156191377Y-77204626D01*
X156190126Y-77209832D01*
X156189542Y-77216892D01*
X156168177Y-77301259D01*
X156136435Y-77433475D01*
X156131959Y-77444279D01*
X156128726Y-77457049D01*
X156091819Y-77541188D01*
X156046369Y-77650916D01*
X156036936Y-77666308D01*
X156029211Y-77683921D01*
X155979771Y-77759594D01*
X155923400Y-77851584D01*
X155907536Y-77870157D01*
X155893711Y-77891319D01*
X155834876Y-77955230D01*
X155770548Y-78030548D01*
X155747125Y-78050553D01*
X155725922Y-78073586D01*
X155660938Y-78124164D01*
X155591584Y-78183400D01*
X155559842Y-78202851D01*
X155530422Y-78225750D01*
X155462429Y-78262545D01*
X155390916Y-78306369D01*
X155350571Y-78323080D01*
X155312543Y-78343660D01*
X155244454Y-78367034D01*
X155173475Y-78396435D01*
X155124713Y-78408141D01*
X155078228Y-78424100D01*
X155012685Y-78435037D01*
X154944626Y-78451377D01*
X154888116Y-78455824D01*
X154833869Y-78464877D01*
X154773097Y-78464877D01*
X154710000Y-78469843D01*
X154646903Y-78464877D01*
X154586131Y-78464877D01*
X154531883Y-78455824D01*
X154475373Y-78451377D01*
X154407311Y-78435036D01*
X154341772Y-78424100D01*
X154295289Y-78408142D01*
X154246524Y-78396435D01*
X154175540Y-78367032D01*
X154107457Y-78343660D01*
X154069431Y-78323081D01*
X154029083Y-78306369D01*
X153957561Y-78262540D01*
X153889578Y-78225750D01*
X153860161Y-78202854D01*
X153828415Y-78183400D01*
X153759050Y-78124156D01*
X153694078Y-78073586D01*
X153672878Y-78050557D01*
X153649451Y-78030548D01*
X153585109Y-77955215D01*
X153526289Y-77891319D01*
X153512466Y-77870162D01*
X153496599Y-77851584D01*
X153440212Y-77759569D01*
X153390789Y-77683921D01*
X153383065Y-77666314D01*
X153373630Y-77650916D01*
X153328162Y-77541147D01*
X153291274Y-77457049D01*
X153288041Y-77444285D01*
X153283564Y-77433475D01*
X153251803Y-77301182D01*
X153230458Y-77216892D01*
X153229873Y-77209839D01*
X153228622Y-77204626D01*
X153213108Y-77007516D01*
X153210000Y-76970000D01*
X153213108Y-76932486D01*
X153228622Y-76735373D01*
X153229873Y-76730159D01*
X153230458Y-76723108D01*
X153251798Y-76638835D01*
X153283564Y-76506524D01*
X153288042Y-76495711D01*
X153291274Y-76482951D01*
X153328155Y-76398869D01*
X153373630Y-76289083D01*
X153383067Y-76273682D01*
X153390789Y-76256079D01*
X153440202Y-76180445D01*
X153496599Y-76088415D01*
X153512469Y-76069833D01*
X153526289Y-76048681D01*
X153585097Y-75984797D01*
X153649451Y-75909451D01*
X153672882Y-75889437D01*
X153694078Y-75866414D01*
X153759037Y-75815854D01*
X153828415Y-75756599D01*
X153860167Y-75737141D01*
X153889578Y-75714250D01*
X153957547Y-75677466D01*
X154029083Y-75633630D01*
X154069439Y-75616913D01*
X154107457Y-75596340D01*
X154175525Y-75572972D01*
X154246524Y-75543564D01*
X154295299Y-75531854D01*
X154341772Y-75515900D01*
X154407297Y-75504965D01*
X154475373Y-75488622D01*
X154531895Y-75484173D01*
X154586131Y-75475123D01*
X154646889Y-75475123D01*
X154709999Y-75470156D01*
X154773109Y-75475123D01*
G37*
G36*
X147970350Y-75160741D02*
G01*
X148103000Y-75215686D01*
X148216909Y-75303091D01*
X148304314Y-75417000D01*
X148359259Y-75549650D01*
X148378000Y-75692000D01*
X148359259Y-75834350D01*
X148304314Y-75967000D01*
X148216909Y-76080909D01*
X148103000Y-76168314D01*
X147970350Y-76223259D01*
X147828000Y-76242000D01*
X147685650Y-76223259D01*
X147553000Y-76168314D01*
X147439091Y-76080909D01*
X147351686Y-75967000D01*
X147296741Y-75834350D01*
X147278000Y-75692000D01*
X147296741Y-75549650D01*
X147351686Y-75417000D01*
X147439091Y-75303091D01*
X147553000Y-75215686D01*
X147685650Y-75160741D01*
X147828000Y-75142000D01*
X147970350Y-75160741D01*
G37*
G36*
X152750000Y-74700000D02*
G01*
X151250000Y-74700000D01*
X151250000Y-73100000D01*
X152750000Y-73100000D01*
X152750000Y-74700000D01*
G37*
G36*
X152041367Y-70604661D02*
G01*
X152083593Y-70604661D01*
X152131228Y-70614786D01*
X152178017Y-70620058D01*
X152212039Y-70631962D01*
X152247127Y-70639421D01*
X152297695Y-70661935D01*
X152347107Y-70679225D01*
X152372823Y-70695383D01*
X152399860Y-70707421D01*
X152450275Y-70744050D01*
X152498792Y-70774535D01*
X152516214Y-70791957D01*
X152535117Y-70805691D01*
X152581844Y-70857587D01*
X152625465Y-70901208D01*
X152635499Y-70917177D01*
X152646986Y-70929935D01*
X152686285Y-70998003D01*
X152720775Y-71052893D01*
X152725080Y-71065197D01*
X152730580Y-71074723D01*
X152758740Y-71161392D01*
X152779942Y-71221983D01*
X152780746Y-71229118D01*
X152782244Y-71233729D01*
X152795820Y-71362904D01*
X152800000Y-71400000D01*
X152795819Y-71437098D01*
X152782244Y-71566270D01*
X152780746Y-71570879D01*
X152779942Y-71578017D01*
X152758736Y-71638620D01*
X152730580Y-71725276D01*
X152725081Y-71734799D01*
X152720775Y-71747107D01*
X152686278Y-71802007D01*
X152646986Y-71870064D01*
X152635501Y-71882818D01*
X152625465Y-71898792D01*
X152581835Y-71942421D01*
X152535117Y-71994308D01*
X152516218Y-72008038D01*
X152498792Y-72025465D01*
X152450265Y-72055956D01*
X152399860Y-72092578D01*
X152372829Y-72104612D01*
X152347107Y-72120775D01*
X152297685Y-72138068D01*
X152247127Y-72160578D01*
X152212045Y-72168035D01*
X152178017Y-72179942D01*
X152131225Y-72185214D01*
X152083593Y-72195339D01*
X152041367Y-72195339D01*
X152000000Y-72200000D01*
X151958633Y-72195339D01*
X151916407Y-72195339D01*
X151868774Y-72185214D01*
X151821983Y-72179942D01*
X151787955Y-72168035D01*
X151752872Y-72160578D01*
X151702309Y-72138066D01*
X151652893Y-72120775D01*
X151627173Y-72104614D01*
X151600139Y-72092578D01*
X151549726Y-72055951D01*
X151501208Y-72025465D01*
X151483784Y-72008041D01*
X151464882Y-71994308D01*
X151418154Y-71942411D01*
X151374535Y-71898792D01*
X151364500Y-71882822D01*
X151353013Y-71870064D01*
X151313709Y-71801987D01*
X151279225Y-71747107D01*
X151274919Y-71734803D01*
X151269419Y-71725276D01*
X151241249Y-71638580D01*
X151220058Y-71578017D01*
X151219254Y-71570884D01*
X151217755Y-71566270D01*
X151204165Y-71436966D01*
X151200000Y-71400000D01*
X151204164Y-71363036D01*
X151217755Y-71233729D01*
X151219254Y-71229113D01*
X151220058Y-71221983D01*
X151241245Y-71161432D01*
X151269419Y-71074723D01*
X151274920Y-71065193D01*
X151279225Y-71052893D01*
X151313701Y-70998023D01*
X151353013Y-70929935D01*
X151364502Y-70917174D01*
X151374535Y-70901208D01*
X151418145Y-70857597D01*
X151464882Y-70805691D01*
X151483787Y-70791955D01*
X151501208Y-70774535D01*
X151549721Y-70744052D01*
X151600140Y-70707421D01*
X151627176Y-70695383D01*
X151652893Y-70679225D01*
X151702301Y-70661936D01*
X151752872Y-70639421D01*
X151787961Y-70631962D01*
X151821983Y-70620058D01*
X151868771Y-70614786D01*
X151916407Y-70604661D01*
X151958633Y-70604661D01*
X152000000Y-70600000D01*
X152041367Y-70604661D01*
G37*
G36*
X147970350Y-71096741D02*
G01*
X148103000Y-71151686D01*
X148216909Y-71239091D01*
X148304314Y-71353000D01*
X148359259Y-71485650D01*
X148378000Y-71628000D01*
X148359259Y-71770350D01*
X148304314Y-71903000D01*
X148216909Y-72016909D01*
X148103000Y-72104314D01*
X147970350Y-72159259D01*
X147828000Y-72178000D01*
X147685650Y-72159259D01*
X147553000Y-72104314D01*
X147439091Y-72016909D01*
X147351686Y-71903000D01*
X147296741Y-71770350D01*
X147278000Y-71628000D01*
X147296741Y-71485650D01*
X147351686Y-71353000D01*
X147439091Y-71239091D01*
X147553000Y-71151686D01*
X147685650Y-71096741D01*
X147828000Y-71078000D01*
X147970350Y-71096741D01*
G37*
G36*
X131714350Y-69318741D02*
G01*
X131847000Y-69373686D01*
X131960909Y-69461091D01*
X132048314Y-69575000D01*
X132103259Y-69707650D01*
X132122000Y-69850000D01*
X132103259Y-69992350D01*
X132048314Y-70125000D01*
X131960909Y-70238909D01*
X131847000Y-70326314D01*
X131714350Y-70381259D01*
X131572000Y-70400000D01*
X131429650Y-70381259D01*
X131297000Y-70326314D01*
X131183091Y-70238909D01*
X131095686Y-70125000D01*
X131040741Y-69992350D01*
X131022000Y-69850000D01*
X131040741Y-69707650D01*
X131095686Y-69575000D01*
X131183091Y-69461091D01*
X131297000Y-69373686D01*
X131429650Y-69318741D01*
X131572000Y-69300000D01*
X131714350Y-69318741D01*
G37*
G36*
X152041367Y-68604661D02*
G01*
X152083593Y-68604661D01*
X152131228Y-68614786D01*
X152178017Y-68620058D01*
X152212039Y-68631962D01*
X152247127Y-68639421D01*
X152297695Y-68661935D01*
X152347107Y-68679225D01*
X152372823Y-68695383D01*
X152399860Y-68707421D01*
X152450275Y-68744050D01*
X152498792Y-68774535D01*
X152516214Y-68791957D01*
X152535117Y-68805691D01*
X152581844Y-68857587D01*
X152625465Y-68901208D01*
X152635499Y-68917177D01*
X152646986Y-68929935D01*
X152686285Y-68998003D01*
X152720775Y-69052893D01*
X152725080Y-69065197D01*
X152730580Y-69074723D01*
X152758740Y-69161392D01*
X152779942Y-69221983D01*
X152780746Y-69229118D01*
X152782244Y-69233729D01*
X152795820Y-69362904D01*
X152800000Y-69400000D01*
X152795819Y-69437098D01*
X152782244Y-69566270D01*
X152780746Y-69570879D01*
X152779942Y-69578017D01*
X152758736Y-69638620D01*
X152730580Y-69725276D01*
X152725081Y-69734799D01*
X152720775Y-69747107D01*
X152686278Y-69802007D01*
X152646986Y-69870064D01*
X152635501Y-69882818D01*
X152625465Y-69898792D01*
X152581835Y-69942421D01*
X152535117Y-69994308D01*
X152516218Y-70008038D01*
X152498792Y-70025465D01*
X152450265Y-70055956D01*
X152399860Y-70092578D01*
X152372829Y-70104612D01*
X152347107Y-70120775D01*
X152297685Y-70138068D01*
X152247127Y-70160578D01*
X152212045Y-70168035D01*
X152178017Y-70179942D01*
X152131225Y-70185214D01*
X152083593Y-70195339D01*
X152041367Y-70195339D01*
X152000000Y-70200000D01*
X151958633Y-70195339D01*
X151916407Y-70195339D01*
X151868774Y-70185214D01*
X151821983Y-70179942D01*
X151787955Y-70168035D01*
X151752872Y-70160578D01*
X151702309Y-70138066D01*
X151652893Y-70120775D01*
X151627173Y-70104614D01*
X151600139Y-70092578D01*
X151549726Y-70055951D01*
X151501208Y-70025465D01*
X151483784Y-70008041D01*
X151464882Y-69994308D01*
X151418154Y-69942411D01*
X151374535Y-69898792D01*
X151364500Y-69882822D01*
X151353013Y-69870064D01*
X151313709Y-69801987D01*
X151279225Y-69747107D01*
X151274919Y-69734803D01*
X151269419Y-69725276D01*
X151241249Y-69638580D01*
X151220058Y-69578017D01*
X151219254Y-69570884D01*
X151217755Y-69566270D01*
X151204165Y-69436966D01*
X151200000Y-69400000D01*
X151204164Y-69363036D01*
X151217755Y-69233729D01*
X151219254Y-69229113D01*
X151220058Y-69221983D01*
X151241245Y-69161432D01*
X151269419Y-69074723D01*
X151274920Y-69065193D01*
X151279225Y-69052893D01*
X151313701Y-68998023D01*
X151353013Y-68929935D01*
X151364502Y-68917174D01*
X151374535Y-68901208D01*
X151418145Y-68857597D01*
X151464882Y-68805691D01*
X151483787Y-68791955D01*
X151501208Y-68774535D01*
X151549721Y-68744052D01*
X151600140Y-68707421D01*
X151627176Y-68695383D01*
X151652893Y-68679225D01*
X151702301Y-68661936D01*
X151752872Y-68639421D01*
X151787961Y-68631962D01*
X151821983Y-68620058D01*
X151868771Y-68614786D01*
X151916407Y-68604661D01*
X151958633Y-68604661D01*
X152000000Y-68600000D01*
X152041367Y-68604661D01*
G37*
G36*
X152041367Y-66104661D02*
G01*
X152083593Y-66104661D01*
X152131228Y-66114786D01*
X152178017Y-66120058D01*
X152212039Y-66131962D01*
X152247127Y-66139421D01*
X152297695Y-66161935D01*
X152347107Y-66179225D01*
X152372823Y-66195383D01*
X152399860Y-66207421D01*
X152450275Y-66244050D01*
X152498792Y-66274535D01*
X152516214Y-66291957D01*
X152535117Y-66305691D01*
X152581844Y-66357587D01*
X152625465Y-66401208D01*
X152635499Y-66417177D01*
X152646986Y-66429935D01*
X152686285Y-66498003D01*
X152720775Y-66552893D01*
X152725080Y-66565197D01*
X152730580Y-66574723D01*
X152758740Y-66661392D01*
X152779942Y-66721983D01*
X152780746Y-66729118D01*
X152782244Y-66733729D01*
X152795820Y-66862904D01*
X152800000Y-66900000D01*
X152795819Y-66937098D01*
X152782244Y-67066270D01*
X152780746Y-67070879D01*
X152779942Y-67078017D01*
X152758736Y-67138620D01*
X152730580Y-67225276D01*
X152725081Y-67234799D01*
X152720775Y-67247107D01*
X152686278Y-67302007D01*
X152646986Y-67370064D01*
X152635501Y-67382818D01*
X152625465Y-67398792D01*
X152581835Y-67442421D01*
X152535117Y-67494308D01*
X152516218Y-67508038D01*
X152498792Y-67525465D01*
X152450265Y-67555956D01*
X152399860Y-67592578D01*
X152372829Y-67604612D01*
X152347107Y-67620775D01*
X152297685Y-67638068D01*
X152247127Y-67660578D01*
X152212045Y-67668035D01*
X152178017Y-67679942D01*
X152131225Y-67685214D01*
X152083593Y-67695339D01*
X152041367Y-67695339D01*
X152000000Y-67700000D01*
X151958633Y-67695339D01*
X151916407Y-67695339D01*
X151868774Y-67685214D01*
X151821983Y-67679942D01*
X151787955Y-67668035D01*
X151752872Y-67660578D01*
X151702309Y-67638066D01*
X151652893Y-67620775D01*
X151627173Y-67604614D01*
X151600139Y-67592578D01*
X151549726Y-67555951D01*
X151501208Y-67525465D01*
X151483784Y-67508041D01*
X151464882Y-67494308D01*
X151418154Y-67442411D01*
X151374535Y-67398792D01*
X151364500Y-67382822D01*
X151353013Y-67370064D01*
X151313709Y-67301987D01*
X151279225Y-67247107D01*
X151274919Y-67234803D01*
X151269419Y-67225276D01*
X151241249Y-67138580D01*
X151220058Y-67078017D01*
X151219254Y-67070884D01*
X151217755Y-67066270D01*
X151204165Y-66936966D01*
X151200000Y-66900000D01*
X151204164Y-66863036D01*
X151217755Y-66733729D01*
X151219254Y-66729113D01*
X151220058Y-66721983D01*
X151241245Y-66661432D01*
X151269419Y-66574723D01*
X151274920Y-66565193D01*
X151279225Y-66552893D01*
X151313701Y-66498023D01*
X151353013Y-66429935D01*
X151364502Y-66417174D01*
X151374535Y-66401208D01*
X151418145Y-66357597D01*
X151464882Y-66305691D01*
X151483787Y-66291955D01*
X151501208Y-66274535D01*
X151549721Y-66244052D01*
X151600140Y-66207421D01*
X151627176Y-66195383D01*
X151652893Y-66179225D01*
X151702301Y-66161936D01*
X151752872Y-66139421D01*
X151787961Y-66131962D01*
X151821983Y-66120058D01*
X151868771Y-66114786D01*
X151916407Y-66104661D01*
X151958633Y-66104661D01*
X152000000Y-66100000D01*
X152041367Y-66104661D01*
G37*
G36*
X141090000Y-66380000D02*
G01*
X139490000Y-66380000D01*
X139490000Y-65620000D01*
X141090000Y-65620000D01*
X141090000Y-66380000D01*
G37*
G36*
X148710000Y-66380000D02*
G01*
X147110000Y-66380000D01*
X147110000Y-65620000D01*
X148710000Y-65620000D01*
X148710000Y-66380000D01*
G37*
G36*
X131845090Y-63669215D02*
G01*
X132032683Y-63726120D01*
X132205570Y-63818530D01*
X132357107Y-63942893D01*
X132481470Y-64094430D01*
X132573880Y-64267317D01*
X132630785Y-64454910D01*
X132650000Y-64650000D01*
X132630785Y-64845090D01*
X132573880Y-65032683D01*
X132481470Y-65205570D01*
X132357107Y-65357107D01*
X132205570Y-65481470D01*
X132032683Y-65573880D01*
X131845090Y-65630785D01*
X131650000Y-65650000D01*
X131454910Y-65630785D01*
X131267317Y-65573880D01*
X131094430Y-65481470D01*
X130942893Y-65357107D01*
X130818530Y-65205570D01*
X130726120Y-65032683D01*
X130669215Y-64845090D01*
X130650000Y-64650000D01*
X130669215Y-64454910D01*
X130726120Y-64267317D01*
X130818530Y-64094430D01*
X130942893Y-63942893D01*
X131094430Y-63818530D01*
X131267317Y-63726120D01*
X131454910Y-63669215D01*
X131650000Y-63650000D01*
X131845090Y-63669215D01*
G37*
G36*
X136345090Y-63669215D02*
G01*
X136532683Y-63726120D01*
X136705570Y-63818530D01*
X136857107Y-63942893D01*
X136981470Y-64094430D01*
X137073880Y-64267317D01*
X137130785Y-64454910D01*
X137150000Y-64650000D01*
X137130785Y-64845090D01*
X137073880Y-65032683D01*
X136981470Y-65205570D01*
X136857107Y-65357107D01*
X136705570Y-65481470D01*
X136532683Y-65573880D01*
X136345090Y-65630785D01*
X136150000Y-65650000D01*
X135954910Y-65630785D01*
X135767317Y-65573880D01*
X135594430Y-65481470D01*
X135442893Y-65357107D01*
X135318530Y-65205570D01*
X135226120Y-65032683D01*
X135169215Y-64845090D01*
X135150000Y-64650000D01*
X135169215Y-64454910D01*
X135226120Y-64267317D01*
X135318530Y-64094430D01*
X135442893Y-63942893D01*
X135594430Y-63818530D01*
X135767317Y-63726120D01*
X135954910Y-63669215D01*
X136150000Y-63650000D01*
X136345090Y-63669215D01*
G37*
G36*
X154773110Y-62335123D02*
G01*
X154833869Y-62335123D01*
X154888105Y-62344173D01*
X154944626Y-62348622D01*
X155012699Y-62364964D01*
X155078228Y-62375900D01*
X155124703Y-62391854D01*
X155173475Y-62403564D01*
X155244468Y-62432970D01*
X155312543Y-62456340D01*
X155350563Y-62476915D01*
X155390916Y-62493630D01*
X155462443Y-62537462D01*
X155530422Y-62574250D01*
X155559836Y-62597143D01*
X155591584Y-62616599D01*
X155660951Y-62675845D01*
X155725922Y-62726414D01*
X155747120Y-62749441D01*
X155770548Y-62769451D01*
X155834888Y-62844782D01*
X155893711Y-62908681D01*
X155907533Y-62929838D01*
X155923400Y-62948415D01*
X155979781Y-63040420D01*
X156029211Y-63116079D01*
X156036935Y-63133688D01*
X156046369Y-63149083D01*
X156091826Y-63258828D01*
X156128726Y-63342951D01*
X156131959Y-63355717D01*
X156136435Y-63366524D01*
X156168181Y-63498759D01*
X156189542Y-63583108D01*
X156190126Y-63590165D01*
X156191377Y-63595373D01*
X156206872Y-63792261D01*
X156210000Y-63830000D01*
X156206870Y-63867772D01*
X156191377Y-64064626D01*
X156190126Y-64069832D01*
X156189542Y-64076892D01*
X156168177Y-64161259D01*
X156136435Y-64293475D01*
X156131959Y-64304279D01*
X156128726Y-64317049D01*
X156091819Y-64401188D01*
X156046369Y-64510916D01*
X156036936Y-64526308D01*
X156029211Y-64543921D01*
X155979771Y-64619594D01*
X155923400Y-64711584D01*
X155907536Y-64730157D01*
X155893711Y-64751319D01*
X155834876Y-64815230D01*
X155770548Y-64890548D01*
X155747125Y-64910553D01*
X155725922Y-64933586D01*
X155660938Y-64984164D01*
X155591584Y-65043400D01*
X155559842Y-65062851D01*
X155530422Y-65085750D01*
X155462429Y-65122545D01*
X155390916Y-65166369D01*
X155350571Y-65183080D01*
X155312543Y-65203660D01*
X155244454Y-65227034D01*
X155173475Y-65256435D01*
X155124713Y-65268141D01*
X155078228Y-65284100D01*
X155012685Y-65295037D01*
X154944626Y-65311377D01*
X154888116Y-65315824D01*
X154833869Y-65324877D01*
X154773097Y-65324877D01*
X154710000Y-65329843D01*
X154646903Y-65324877D01*
X154586131Y-65324877D01*
X154531883Y-65315824D01*
X154475373Y-65311377D01*
X154407311Y-65295036D01*
X154341772Y-65284100D01*
X154295289Y-65268142D01*
X154246524Y-65256435D01*
X154175540Y-65227032D01*
X154107457Y-65203660D01*
X154069431Y-65183081D01*
X154029083Y-65166369D01*
X153957561Y-65122540D01*
X153889578Y-65085750D01*
X153860161Y-65062854D01*
X153828415Y-65043400D01*
X153759050Y-64984156D01*
X153694078Y-64933586D01*
X153672878Y-64910557D01*
X153649451Y-64890548D01*
X153585109Y-64815215D01*
X153526289Y-64751319D01*
X153512466Y-64730162D01*
X153496599Y-64711584D01*
X153440212Y-64619569D01*
X153390789Y-64543921D01*
X153383065Y-64526314D01*
X153373630Y-64510916D01*
X153328162Y-64401147D01*
X153291274Y-64317049D01*
X153288041Y-64304285D01*
X153283564Y-64293475D01*
X153251803Y-64161182D01*
X153230458Y-64076892D01*
X153229873Y-64069839D01*
X153228622Y-64064626D01*
X153213108Y-63867516D01*
X153210000Y-63830000D01*
X153213108Y-63792486D01*
X153228622Y-63595373D01*
X153229873Y-63590159D01*
X153230458Y-63583108D01*
X153251798Y-63498835D01*
X153283564Y-63366524D01*
X153288042Y-63355711D01*
X153291274Y-63342951D01*
X153328155Y-63258869D01*
X153373630Y-63149083D01*
X153383067Y-63133682D01*
X153390789Y-63116079D01*
X153440202Y-63040445D01*
X153496599Y-62948415D01*
X153512469Y-62929833D01*
X153526289Y-62908681D01*
X153585097Y-62844797D01*
X153649451Y-62769451D01*
X153672882Y-62749437D01*
X153694078Y-62726414D01*
X153759037Y-62675854D01*
X153828415Y-62616599D01*
X153860167Y-62597141D01*
X153889578Y-62574250D01*
X153957547Y-62537466D01*
X154029083Y-62493630D01*
X154069439Y-62476913D01*
X154107457Y-62456340D01*
X154175525Y-62432972D01*
X154246524Y-62403564D01*
X154295299Y-62391854D01*
X154341772Y-62375900D01*
X154407297Y-62364965D01*
X154475373Y-62348622D01*
X154531895Y-62344173D01*
X154586131Y-62335123D01*
X154646890Y-62335123D01*
X154710000Y-62330156D01*
X154773110Y-62335123D01*
G37*
G36*
X128262664Y-59351602D02*
G01*
X128425000Y-59423878D01*
X128568761Y-59528327D01*
X128687664Y-59660383D01*
X128776514Y-59814274D01*
X128831425Y-59983275D01*
X128850000Y-60160000D01*
X128831425Y-60336725D01*
X128776514Y-60505726D01*
X128687664Y-60659617D01*
X128568761Y-60791673D01*
X128425000Y-60896122D01*
X128262664Y-60968398D01*
X128088849Y-61005344D01*
X127911151Y-61005344D01*
X127737336Y-60968398D01*
X127575000Y-60896122D01*
X127431239Y-60791673D01*
X127312336Y-60659617D01*
X127223486Y-60505726D01*
X127168575Y-60336725D01*
X127150000Y-60160000D01*
X127168575Y-59983275D01*
X127223486Y-59814274D01*
X127312336Y-59660383D01*
X127431239Y-59528327D01*
X127575000Y-59423878D01*
X127737336Y-59351602D01*
X127911151Y-59314656D01*
X128088849Y-59314656D01*
X128262664Y-59351602D01*
G37*
G36*
X131845090Y-57169215D02*
G01*
X132032683Y-57226120D01*
X132205570Y-57318530D01*
X132357107Y-57442893D01*
X132481470Y-57594430D01*
X132573880Y-57767317D01*
X132630785Y-57954910D01*
X132650000Y-58150000D01*
X132630785Y-58345090D01*
X132573880Y-58532683D01*
X132481470Y-58705570D01*
X132357107Y-58857107D01*
X132205570Y-58981470D01*
X132032683Y-59073880D01*
X131845090Y-59130785D01*
X131650000Y-59150000D01*
X131454910Y-59130785D01*
X131267317Y-59073880D01*
X131094430Y-58981470D01*
X130942893Y-58857107D01*
X130818530Y-58705570D01*
X130726120Y-58532683D01*
X130669215Y-58345090D01*
X130650000Y-58150000D01*
X130669215Y-57954910D01*
X130726120Y-57767317D01*
X130818530Y-57594430D01*
X130942893Y-57442893D01*
X131094430Y-57318530D01*
X131267317Y-57226120D01*
X131454910Y-57169215D01*
X131650000Y-57150000D01*
X131845090Y-57169215D01*
G37*
G36*
X136345090Y-57169215D02*
G01*
X136532683Y-57226120D01*
X136705570Y-57318530D01*
X136857107Y-57442893D01*
X136981470Y-57594430D01*
X137073880Y-57767317D01*
X137130785Y-57954910D01*
X137150000Y-58150000D01*
X137130785Y-58345090D01*
X137073880Y-58532683D01*
X136981470Y-58705570D01*
X136857107Y-58857107D01*
X136705570Y-58981470D01*
X136532683Y-59073880D01*
X136345090Y-59130785D01*
X136150000Y-59150000D01*
X135954910Y-59130785D01*
X135767317Y-59073880D01*
X135594430Y-58981470D01*
X135442893Y-58857107D01*
X135318530Y-58705570D01*
X135226120Y-58532683D01*
X135169215Y-58345090D01*
X135150000Y-58150000D01*
X135169215Y-57954910D01*
X135226120Y-57767317D01*
X135318530Y-57594430D01*
X135442893Y-57442893D01*
X135594430Y-57318530D01*
X135767317Y-57226120D01*
X135954910Y-57169215D01*
X136150000Y-57150000D01*
X136345090Y-57169215D01*
G37*
G36*
X128262664Y-56811602D02*
G01*
X128425000Y-56883878D01*
X128568761Y-56988327D01*
X128687664Y-57120383D01*
X128776514Y-57274274D01*
X128831425Y-57443275D01*
X128850000Y-57620000D01*
X128831425Y-57796725D01*
X128776514Y-57965726D01*
X128687664Y-58119617D01*
X128568761Y-58251673D01*
X128425000Y-58356122D01*
X128262664Y-58428398D01*
X128088849Y-58465344D01*
X127911151Y-58465344D01*
X127737336Y-58428398D01*
X127575000Y-58356122D01*
X127431239Y-58251673D01*
X127312336Y-58119617D01*
X127223486Y-57965726D01*
X127168575Y-57796725D01*
X127150000Y-57620000D01*
X127168575Y-57443275D01*
X127223486Y-57274274D01*
X127312336Y-57120383D01*
X127431239Y-56988327D01*
X127575000Y-56883878D01*
X127737336Y-56811602D01*
X127911151Y-56774656D01*
X128088849Y-56774656D01*
X128262664Y-56811602D01*
G37*
G36*
X155651537Y-56940224D02*
G01*
X155716421Y-56983579D01*
X155759776Y-57048463D01*
X155775000Y-57125000D01*
X155775000Y-57525000D01*
X155759776Y-57601537D01*
X155716421Y-57666421D01*
X155651537Y-57709776D01*
X155575000Y-57725000D01*
X155025000Y-57725000D01*
X154948463Y-57709776D01*
X154883579Y-57666421D01*
X154840224Y-57601537D01*
X154825000Y-57525000D01*
X154825000Y-57125000D01*
X154840224Y-57048463D01*
X154883579Y-56983579D01*
X154948463Y-56940224D01*
X155025000Y-56925000D01*
X155575000Y-56925000D01*
X155651537Y-56940224D01*
G37*
G36*
X155651537Y-55290224D02*
G01*
X155716421Y-55333579D01*
X155759776Y-55398463D01*
X155775000Y-55475000D01*
X155775000Y-55875000D01*
X155759776Y-55951537D01*
X155716421Y-56016421D01*
X155651537Y-56059776D01*
X155575000Y-56075000D01*
X155025000Y-56075000D01*
X154948463Y-56059776D01*
X154883579Y-56016421D01*
X154840224Y-55951537D01*
X154825000Y-55875000D01*
X154825000Y-55475000D01*
X154840224Y-55398463D01*
X154883579Y-55333579D01*
X154948463Y-55290224D01*
X155025000Y-55275000D01*
X155575000Y-55275000D01*
X155651537Y-55290224D01*
G37*
G36*
X128262664Y-54271602D02*
G01*
X128425000Y-54343878D01*
X128568761Y-54448327D01*
X128687664Y-54580383D01*
X128776514Y-54734274D01*
X128831425Y-54903275D01*
X128850000Y-55080000D01*
X128831425Y-55256725D01*
X128776514Y-55425726D01*
X128687664Y-55579617D01*
X128568761Y-55711673D01*
X128425000Y-55816122D01*
X128262664Y-55888398D01*
X128088849Y-55925344D01*
X127911151Y-55925344D01*
X127737336Y-55888398D01*
X127575000Y-55816122D01*
X127431239Y-55711673D01*
X127312336Y-55579617D01*
X127223486Y-55425726D01*
X127168575Y-55256725D01*
X127150000Y-55080000D01*
X127168575Y-54903275D01*
X127223486Y-54734274D01*
X127312336Y-54580383D01*
X127431239Y-54448327D01*
X127575000Y-54343878D01*
X127737336Y-54271602D01*
X127911151Y-54234656D01*
X128088849Y-54234656D01*
X128262664Y-54271602D01*
G37*
G36*
X139424300Y-54091334D02*
G01*
X139444901Y-54105099D01*
X139458666Y-54125700D01*
X139459163Y-54128200D01*
X139472847Y-54148679D01*
X139527153Y-54148679D01*
X139540836Y-54128199D01*
X139541334Y-54125700D01*
X139555099Y-54105099D01*
X139575700Y-54091334D01*
X139600000Y-54086500D01*
X139900000Y-54086500D01*
X139924300Y-54091334D01*
X139944901Y-54105099D01*
X139958666Y-54125700D01*
X139959163Y-54128200D01*
X139972847Y-54148679D01*
X140027153Y-54148679D01*
X140040836Y-54128199D01*
X140041334Y-54125700D01*
X140055099Y-54105099D01*
X140075700Y-54091334D01*
X140100000Y-54086500D01*
X140400000Y-54086500D01*
X140424300Y-54091334D01*
X140444901Y-54105099D01*
X140458666Y-54125700D01*
X140459163Y-54128200D01*
X140472847Y-54148679D01*
X140527153Y-54148679D01*
X140540836Y-54128199D01*
X140541334Y-54125700D01*
X140555099Y-54105099D01*
X140575700Y-54091334D01*
X140600000Y-54086500D01*
X140900000Y-54086500D01*
X140924300Y-54091334D01*
X140944901Y-54105099D01*
X140958666Y-54125700D01*
X140959163Y-54128200D01*
X140972847Y-54148679D01*
X141027153Y-54148679D01*
X141040836Y-54128199D01*
X141041334Y-54125700D01*
X141055099Y-54105099D01*
X141075700Y-54091334D01*
X141100000Y-54086500D01*
X141400000Y-54086500D01*
X141424300Y-54091334D01*
X141444901Y-54105099D01*
X141458666Y-54125700D01*
X141459163Y-54128200D01*
X141472847Y-54148679D01*
X141527153Y-54148679D01*
X141540836Y-54128199D01*
X141541334Y-54125700D01*
X141555099Y-54105099D01*
X141575700Y-54091334D01*
X141600000Y-54086500D01*
X141900000Y-54086500D01*
X141924300Y-54091334D01*
X141944901Y-54105099D01*
X141958666Y-54125700D01*
X141959163Y-54128200D01*
X141972847Y-54148679D01*
X142027153Y-54148679D01*
X142040836Y-54128199D01*
X142041334Y-54125700D01*
X142055099Y-54105099D01*
X142075700Y-54091334D01*
X142100000Y-54086500D01*
X142400000Y-54086500D01*
X142424300Y-54091334D01*
X142444901Y-54105099D01*
X142458666Y-54125700D01*
X142459163Y-54128200D01*
X142472847Y-54148679D01*
X142527153Y-54148679D01*
X142540836Y-54128199D01*
X142541334Y-54125700D01*
X142555099Y-54105099D01*
X142575700Y-54091334D01*
X142600000Y-54086500D01*
X142900000Y-54086500D01*
X142924300Y-54091334D01*
X142944901Y-54105099D01*
X142958666Y-54125700D01*
X142959163Y-54128200D01*
X142972847Y-54148679D01*
X143027153Y-54148679D01*
X143040836Y-54128199D01*
X143041334Y-54125700D01*
X143055099Y-54105099D01*
X143075700Y-54091334D01*
X143100000Y-54086500D01*
X143400000Y-54086500D01*
X143424300Y-54091334D01*
X143444901Y-54105099D01*
X143458666Y-54125700D01*
X143459163Y-54128200D01*
X143472847Y-54148679D01*
X143527153Y-54148679D01*
X143540836Y-54128199D01*
X143541334Y-54125700D01*
X143555099Y-54105099D01*
X143575700Y-54091334D01*
X143600000Y-54086500D01*
X143900000Y-54086500D01*
X143924300Y-54091334D01*
X143944901Y-54105099D01*
X143958666Y-54125700D01*
X143959163Y-54128200D01*
X143972847Y-54148679D01*
X144027153Y-54148679D01*
X144040836Y-54128199D01*
X144041334Y-54125700D01*
X144055099Y-54105099D01*
X144075700Y-54091334D01*
X144100000Y-54086500D01*
X144400000Y-54086500D01*
X144424300Y-54091334D01*
X144444901Y-54105099D01*
X144458666Y-54125700D01*
X144459163Y-54128200D01*
X144472847Y-54148679D01*
X144527153Y-54148679D01*
X144540836Y-54128199D01*
X144541334Y-54125700D01*
X144555099Y-54105099D01*
X144575700Y-54091334D01*
X144600000Y-54086500D01*
X144900000Y-54086500D01*
X144924300Y-54091334D01*
X144944901Y-54105099D01*
X144958666Y-54125700D01*
X144959163Y-54128200D01*
X144972847Y-54148679D01*
X145027153Y-54148679D01*
X145040836Y-54128199D01*
X145041334Y-54125700D01*
X145055099Y-54105099D01*
X145075700Y-54091334D01*
X145100000Y-54086500D01*
X145400000Y-54086500D01*
X145424300Y-54091334D01*
X145444901Y-54105099D01*
X145458666Y-54125700D01*
X145459163Y-54128200D01*
X145472847Y-54148679D01*
X145527153Y-54148679D01*
X145540836Y-54128199D01*
X145541334Y-54125700D01*
X145555099Y-54105099D01*
X145575700Y-54091334D01*
X145600000Y-54086500D01*
X145900000Y-54086500D01*
X145924300Y-54091334D01*
X145944901Y-54105099D01*
X145958666Y-54125700D01*
X145959163Y-54128200D01*
X145972847Y-54148679D01*
X146027153Y-54148679D01*
X146040836Y-54128199D01*
X146041334Y-54125700D01*
X146055099Y-54105099D01*
X146075700Y-54091334D01*
X146100000Y-54086500D01*
X146400000Y-54086500D01*
X146424300Y-54091334D01*
X146444901Y-54105099D01*
X146458666Y-54125700D01*
X146459163Y-54128200D01*
X146472847Y-54148679D01*
X146527153Y-54148679D01*
X146540836Y-54128199D01*
X146541334Y-54125700D01*
X146555099Y-54105099D01*
X146575700Y-54091334D01*
X146600000Y-54086500D01*
X146900000Y-54086500D01*
X146924300Y-54091334D01*
X146944901Y-54105099D01*
X146958666Y-54125700D01*
X146959163Y-54128200D01*
X146972847Y-54148679D01*
X147027153Y-54148679D01*
X147040836Y-54128199D01*
X147041334Y-54125700D01*
X147055099Y-54105099D01*
X147075700Y-54091334D01*
X147100000Y-54086500D01*
X147400000Y-54086500D01*
X147424300Y-54091334D01*
X147444901Y-54105099D01*
X147458666Y-54125700D01*
X147459163Y-54128200D01*
X147472847Y-54148679D01*
X147527153Y-54148679D01*
X147540836Y-54128199D01*
X147541334Y-54125700D01*
X147555099Y-54105099D01*
X147575700Y-54091334D01*
X147600000Y-54086500D01*
X147900000Y-54086500D01*
X147924300Y-54091334D01*
X147944901Y-54105099D01*
X147958666Y-54125700D01*
X147959163Y-54128200D01*
X147972847Y-54148679D01*
X148027153Y-54148679D01*
X148040836Y-54128199D01*
X148041334Y-54125700D01*
X148055099Y-54105099D01*
X148075700Y-54091334D01*
X148100000Y-54086500D01*
X148400000Y-54086500D01*
X148424300Y-54091334D01*
X148444901Y-54105099D01*
X148458666Y-54125700D01*
X148459163Y-54128200D01*
X148472847Y-54148679D01*
X148527153Y-54148679D01*
X148540836Y-54128199D01*
X148541334Y-54125700D01*
X148555099Y-54105099D01*
X148575700Y-54091334D01*
X148600000Y-54086500D01*
X148900000Y-54086500D01*
X148924300Y-54091334D01*
X148944901Y-54105099D01*
X148958666Y-54125700D01*
X148963500Y-54150000D01*
X148963500Y-55250000D01*
X148958666Y-55274300D01*
X148944901Y-55294901D01*
X148924300Y-55308666D01*
X148900000Y-55313500D01*
X148600000Y-55313500D01*
X148575700Y-55308666D01*
X148555099Y-55294901D01*
X148541334Y-55274300D01*
X148540836Y-55271799D01*
X148527153Y-55251320D01*
X148472847Y-55251320D01*
X148459163Y-55271798D01*
X148458666Y-55274300D01*
X148444901Y-55294901D01*
X148424300Y-55308666D01*
X148400000Y-55313500D01*
X148100000Y-55313500D01*
X148075700Y-55308666D01*
X148055099Y-55294901D01*
X148041334Y-55274300D01*
X148040836Y-55271799D01*
X148027153Y-55251320D01*
X147972847Y-55251320D01*
X147959163Y-55271798D01*
X147958666Y-55274300D01*
X147944901Y-55294901D01*
X147924300Y-55308666D01*
X147900000Y-55313500D01*
X147600000Y-55313500D01*
X147575700Y-55308666D01*
X147555099Y-55294901D01*
X147541334Y-55274300D01*
X147540836Y-55271799D01*
X147527153Y-55251320D01*
X147472847Y-55251320D01*
X147459163Y-55271798D01*
X147458666Y-55274300D01*
X147444901Y-55294901D01*
X147424300Y-55308666D01*
X147400000Y-55313500D01*
X147100000Y-55313500D01*
X147075700Y-55308666D01*
X147055099Y-55294901D01*
X147041334Y-55274300D01*
X147040836Y-55271799D01*
X147027153Y-55251320D01*
X146972847Y-55251320D01*
X146959163Y-55271798D01*
X146958666Y-55274300D01*
X146944901Y-55294901D01*
X146924300Y-55308666D01*
X146900000Y-55313500D01*
X146600000Y-55313500D01*
X146575700Y-55308666D01*
X146555099Y-55294901D01*
X146541334Y-55274300D01*
X146540836Y-55271799D01*
X146527153Y-55251320D01*
X146472847Y-55251320D01*
X146459163Y-55271798D01*
X146458666Y-55274300D01*
X146444901Y-55294901D01*
X146424300Y-55308666D01*
X146400000Y-55313500D01*
X146100000Y-55313500D01*
X146075700Y-55308666D01*
X146055099Y-55294901D01*
X146041334Y-55274300D01*
X146040836Y-55271799D01*
X146027153Y-55251320D01*
X145972847Y-55251320D01*
X145959163Y-55271798D01*
X145958666Y-55274300D01*
X145944901Y-55294901D01*
X145924300Y-55308666D01*
X145900000Y-55313500D01*
X145600000Y-55313500D01*
X145575700Y-55308666D01*
X145555099Y-55294901D01*
X145541334Y-55274300D01*
X145540836Y-55271799D01*
X145527153Y-55251320D01*
X145472847Y-55251320D01*
X145459163Y-55271798D01*
X145458666Y-55274300D01*
X145444901Y-55294901D01*
X145424300Y-55308666D01*
X145400000Y-55313500D01*
X145100000Y-55313500D01*
X145075700Y-55308666D01*
X145055099Y-55294901D01*
X145041334Y-55274300D01*
X145040836Y-55271799D01*
X145027153Y-55251320D01*
X144972847Y-55251320D01*
X144959163Y-55271798D01*
X144958666Y-55274300D01*
X144944901Y-55294901D01*
X144924300Y-55308666D01*
X144900000Y-55313500D01*
X144600000Y-55313500D01*
X144575700Y-55308666D01*
X144555099Y-55294901D01*
X144541334Y-55274300D01*
X144540836Y-55271799D01*
X144527153Y-55251320D01*
X144472847Y-55251320D01*
X144459163Y-55271798D01*
X144458666Y-55274300D01*
X144444901Y-55294901D01*
X144424300Y-55308666D01*
X144400000Y-55313500D01*
X144100000Y-55313500D01*
X144075700Y-55308666D01*
X144055099Y-55294901D01*
X144041334Y-55274300D01*
X144040836Y-55271799D01*
X144027153Y-55251320D01*
X143972847Y-55251320D01*
X143959163Y-55271798D01*
X143958666Y-55274300D01*
X143944901Y-55294901D01*
X143924300Y-55308666D01*
X143900000Y-55313500D01*
X143600000Y-55313500D01*
X143575700Y-55308666D01*
X143555099Y-55294901D01*
X143541334Y-55274300D01*
X143540836Y-55271799D01*
X143527153Y-55251320D01*
X143472847Y-55251320D01*
X143459163Y-55271798D01*
X143458666Y-55274300D01*
X143444901Y-55294901D01*
X143424300Y-55308666D01*
X143400000Y-55313500D01*
X143100000Y-55313500D01*
X143075700Y-55308666D01*
X143055099Y-55294901D01*
X143041334Y-55274300D01*
X143040836Y-55271799D01*
X143027153Y-55251320D01*
X142972847Y-55251320D01*
X142959163Y-55271798D01*
X142958666Y-55274300D01*
X142944901Y-55294901D01*
X142924300Y-55308666D01*
X142900000Y-55313500D01*
X142600000Y-55313500D01*
X142575700Y-55308666D01*
X142555099Y-55294901D01*
X142541334Y-55274300D01*
X142540836Y-55271799D01*
X142527153Y-55251320D01*
X142472847Y-55251320D01*
X142459163Y-55271798D01*
X142458666Y-55274300D01*
X142444901Y-55294901D01*
X142424300Y-55308666D01*
X142400000Y-55313500D01*
X142100000Y-55313500D01*
X142075700Y-55308666D01*
X142055099Y-55294901D01*
X142041334Y-55274300D01*
X142040836Y-55271799D01*
X142027153Y-55251320D01*
X141972847Y-55251320D01*
X141959163Y-55271798D01*
X141958666Y-55274300D01*
X141944901Y-55294901D01*
X141924300Y-55308666D01*
X141900000Y-55313500D01*
X141600000Y-55313500D01*
X141575700Y-55308666D01*
X141555099Y-55294901D01*
X141541334Y-55274300D01*
X141540836Y-55271799D01*
X141527153Y-55251320D01*
X141472847Y-55251320D01*
X141459163Y-55271798D01*
X141458666Y-55274300D01*
X141444901Y-55294901D01*
X141424300Y-55308666D01*
X141400000Y-55313500D01*
X141100000Y-55313500D01*
X141075700Y-55308666D01*
X141055099Y-55294901D01*
X141041334Y-55274300D01*
X141040836Y-55271799D01*
X141027153Y-55251320D01*
X140972847Y-55251320D01*
X140959163Y-55271798D01*
X140958666Y-55274300D01*
X140944901Y-55294901D01*
X140924300Y-55308666D01*
X140900000Y-55313500D01*
X140600000Y-55313500D01*
X140575700Y-55308666D01*
X140555099Y-55294901D01*
X140541334Y-55274300D01*
X140540836Y-55271799D01*
X140527153Y-55251320D01*
X140472847Y-55251320D01*
X140459163Y-55271798D01*
X140458666Y-55274300D01*
X140444901Y-55294901D01*
X140424300Y-55308666D01*
X140400000Y-55313500D01*
X140100000Y-55313500D01*
X140075700Y-55308666D01*
X140055099Y-55294901D01*
X140041334Y-55274300D01*
X140040836Y-55271799D01*
X140027153Y-55251320D01*
X139972847Y-55251320D01*
X139959163Y-55271798D01*
X139958666Y-55274300D01*
X139944901Y-55294901D01*
X139924300Y-55308666D01*
X139900000Y-55313500D01*
X139600000Y-55313500D01*
X139575700Y-55308666D01*
X139555099Y-55294901D01*
X139541334Y-55274300D01*
X139540836Y-55271799D01*
X139527153Y-55251320D01*
X139472847Y-55251320D01*
X139459163Y-55271798D01*
X139458666Y-55274300D01*
X139444901Y-55294901D01*
X139424300Y-55308666D01*
X139400000Y-55313500D01*
X139100000Y-55313500D01*
X139075700Y-55308666D01*
X139055099Y-55294901D01*
X139041334Y-55274300D01*
X139036500Y-55250000D01*
X139036500Y-54150000D01*
X139041334Y-54125700D01*
X139055099Y-54105099D01*
X139075700Y-54091334D01*
X139100000Y-54086500D01*
X139400000Y-54086500D01*
X139424300Y-54091334D01*
G37*
G36*
X138754300Y-51391334D02*
G01*
X138774901Y-51405099D01*
X138788666Y-51425700D01*
X138793500Y-51450000D01*
X138793500Y-54550000D01*
X138788666Y-54574300D01*
X138774901Y-54594901D01*
X138754300Y-54608666D01*
X138730000Y-54613500D01*
X136430000Y-54613500D01*
X136405700Y-54608666D01*
X136385099Y-54594901D01*
X136371334Y-54574300D01*
X136366500Y-54550000D01*
X136366500Y-51450000D01*
X136371334Y-51425700D01*
X136385099Y-51405099D01*
X136405700Y-51391334D01*
X136430000Y-51386500D01*
X138730000Y-51386500D01*
X138754300Y-51391334D01*
G37*
G36*
X151594300Y-51391334D02*
G01*
X151614901Y-51405099D01*
X151628666Y-51425700D01*
X151633500Y-51450000D01*
X151633500Y-54550000D01*
X151628666Y-54574300D01*
X151614901Y-54594901D01*
X151594300Y-54608666D01*
X151570000Y-54613500D01*
X149270000Y-54613500D01*
X149245700Y-54608666D01*
X149225099Y-54594901D01*
X149211334Y-54574300D01*
X149206500Y-54550000D01*
X149206500Y-51450000D01*
X149211334Y-51425700D01*
X149225099Y-51405099D01*
X149245700Y-51391334D01*
X149270000Y-51386500D01*
X151570000Y-51386500D01*
X151594300Y-51391334D01*
G37*
G36*
X128262664Y-51731602D02*
G01*
X128425000Y-51803878D01*
X128568761Y-51908327D01*
X128687664Y-52040383D01*
X128776514Y-52194274D01*
X128831425Y-52363275D01*
X128850000Y-52540000D01*
X128831425Y-52716725D01*
X128776514Y-52885726D01*
X128687664Y-53039617D01*
X128568761Y-53171673D01*
X128425000Y-53276122D01*
X128262664Y-53348398D01*
X128088849Y-53385344D01*
X127911151Y-53385344D01*
X127737336Y-53348398D01*
X127575000Y-53276122D01*
X127431239Y-53171673D01*
X127312336Y-53039617D01*
X127223486Y-52885726D01*
X127168575Y-52716725D01*
X127150000Y-52540000D01*
X127168575Y-52363275D01*
X127223486Y-52194274D01*
X127312336Y-52040383D01*
X127431239Y-51908327D01*
X127575000Y-51803878D01*
X127737336Y-51731602D01*
X127911151Y-51694656D01*
X128088849Y-51694656D01*
X128262664Y-51731602D01*
G37*
G36*
X153250000Y-52925000D02*
G01*
X152650000Y-52925000D01*
X152650000Y-52475000D01*
X153250000Y-52475000D01*
X153250000Y-52925000D01*
G37*
G36*
X155350000Y-52925000D02*
G01*
X154750000Y-52925000D01*
X154750000Y-52475000D01*
X155350000Y-52475000D01*
X155350000Y-52925000D01*
G37*
G36*
X153142350Y-50368741D02*
G01*
X153275000Y-50423686D01*
X153388909Y-50511091D01*
X153476314Y-50625000D01*
X153531259Y-50757650D01*
X153550000Y-50900000D01*
X153531259Y-51042350D01*
X153476314Y-51175000D01*
X153388909Y-51288909D01*
X153275000Y-51376314D01*
X153142350Y-51431259D01*
X153000000Y-51450000D01*
X152857650Y-51431259D01*
X152725000Y-51376314D01*
X152611091Y-51288909D01*
X152523686Y-51175000D01*
X152468741Y-51042350D01*
X152450000Y-50900000D01*
X152468741Y-50757650D01*
X152523686Y-50625000D01*
X152611091Y-50511091D01*
X152725000Y-50423686D01*
X152857650Y-50368741D01*
X153000000Y-50350000D01*
X153142350Y-50368741D01*
G37*
G36*
X155242350Y-50368741D02*
G01*
X155375000Y-50423686D01*
X155488909Y-50511091D01*
X155576314Y-50625000D01*
X155631259Y-50757650D01*
X155650000Y-50900000D01*
X155631259Y-51042350D01*
X155576314Y-51175000D01*
X155488909Y-51288909D01*
X155375000Y-51376314D01*
X155242350Y-51431259D01*
X155100000Y-51450000D01*
X154957650Y-51431259D01*
X154825000Y-51376314D01*
X154711091Y-51288909D01*
X154623686Y-51175000D01*
X154568741Y-51042350D01*
X154550000Y-50900000D01*
X154568741Y-50757650D01*
X154623686Y-50625000D01*
X154711091Y-50511091D01*
X154825000Y-50423686D01*
X154957650Y-50368741D01*
X155100000Y-50350000D01*
X155242350Y-50368741D01*
G37*
G36*
X128850000Y-50850000D02*
G01*
X127150000Y-50850000D01*
X127150000Y-49150000D01*
X128850000Y-49150000D01*
X128850000Y-50850000D01*
G37*
M02*
