G04 #@! TF.GenerationSoftware,KiCad,Pcbnew,7.0.6-0*
G04 #@! TF.CreationDate,2024-08-28T16:36:48-06:00*
G04 #@! TF.ProjectId,card-debug-board-2,63617264-2d64-4656-9275-672d626f6172,rev?*
G04 #@! TF.SameCoordinates,Original*
G04 #@! TF.FileFunction,Legend,Top*
G04 #@! TF.FilePolarity,Positive*
%FSLAX46Y46*%
G04 Gerber Fmt 4.6, Leading zero omitted, Abs format (unit mm)*
G04 Created by KiCad (PCBNEW 7.0.6-0) date 2024-08-28 16:36:48*
%MOMM*%
%LPD*%
G01*
G04 APERTURE LIST*
G04 Aperture macros list*
%AMRoundRect*
0 Rectangle with rounded corners*
0 $1 Rounding radius*
0 $2 $3 $4 $5 $6 $7 $8 $9 X,Y pos of 4 corners*
0 Add a 4 corners polygon primitive as box body*
4,1,4,$2,$3,$4,$5,$6,$7,$8,$9,$2,$3,0*
0 Add four circle primitives for the rounded corners*
1,1,$1+$1,$2,$3*
1,1,$1+$1,$4,$5*
1,1,$1+$1,$6,$7*
1,1,$1+$1,$8,$9*
0 Add four rect primitives between the rounded corners*
20,1,$1+$1,$2,$3,$4,$5,0*
20,1,$1+$1,$4,$5,$6,$7,0*
20,1,$1+$1,$6,$7,$8,$9,0*
20,1,$1+$1,$8,$9,$2,$3,0*%
G04 Aperture macros list end*
%ADD10C,0.127000*%
%ADD11C,0.150000*%
%ADD12C,0.120000*%
%ADD13C,0.200000*%
%ADD14C,1.100000*%
%ADD15R,0.600000X0.450000*%
%ADD16C,2.000000*%
%ADD17RoundRect,0.225000X0.225000X0.250000X-0.225000X0.250000X-0.225000X-0.250000X0.225000X-0.250000X0*%
%ADD18RoundRect,0.200000X-0.275000X0.200000X-0.275000X-0.200000X0.275000X-0.200000X0.275000X0.200000X0*%
%ADD19C,1.800000*%
%ADD20R,0.450000X1.300000*%
%ADD21C,0.800000*%
%ADD22RoundRect,0.063500X-0.150000X0.550000X-0.150000X-0.550000X0.150000X-0.550000X0.150000X0.550000X0*%
%ADD23RoundRect,0.063500X1.150000X1.550000X-1.150000X1.550000X-1.150000X-1.550000X1.150000X-1.550000X0*%
%ADD24R,1.600000X0.760000*%
%ADD25R,1.700000X1.700000*%
%ADD26O,1.700000X1.700000*%
%ADD27R,1.500000X1.600000*%
%ADD28C,1.600000*%
%ADD29C,3.000000*%
G04 APERTURE END LIST*
D10*
X138999046Y-63187159D02*
X138999046Y-62552159D01*
X138999046Y-62552159D02*
X139150236Y-62552159D01*
X139150236Y-62552159D02*
X139240951Y-62582397D01*
X139240951Y-62582397D02*
X139301427Y-62642873D01*
X139301427Y-62642873D02*
X139331665Y-62703349D01*
X139331665Y-62703349D02*
X139361903Y-62824301D01*
X139361903Y-62824301D02*
X139361903Y-62915016D01*
X139361903Y-62915016D02*
X139331665Y-63035968D01*
X139331665Y-63035968D02*
X139301427Y-63096444D01*
X139301427Y-63096444D02*
X139240951Y-63156921D01*
X139240951Y-63156921D02*
X139150236Y-63187159D01*
X139150236Y-63187159D02*
X138999046Y-63187159D01*
X139634046Y-62854540D02*
X139845713Y-62854540D01*
X139936427Y-63187159D02*
X139634046Y-63187159D01*
X139634046Y-63187159D02*
X139634046Y-62552159D01*
X139634046Y-62552159D02*
X139936427Y-62552159D01*
X140420237Y-62854540D02*
X140510951Y-62884778D01*
X140510951Y-62884778D02*
X140541189Y-62915016D01*
X140541189Y-62915016D02*
X140571427Y-62975492D01*
X140571427Y-62975492D02*
X140571427Y-63066206D01*
X140571427Y-63066206D02*
X140541189Y-63126682D01*
X140541189Y-63126682D02*
X140510951Y-63156921D01*
X140510951Y-63156921D02*
X140450475Y-63187159D01*
X140450475Y-63187159D02*
X140208570Y-63187159D01*
X140208570Y-63187159D02*
X140208570Y-62552159D01*
X140208570Y-62552159D02*
X140420237Y-62552159D01*
X140420237Y-62552159D02*
X140480713Y-62582397D01*
X140480713Y-62582397D02*
X140510951Y-62612635D01*
X140510951Y-62612635D02*
X140541189Y-62673111D01*
X140541189Y-62673111D02*
X140541189Y-62733587D01*
X140541189Y-62733587D02*
X140510951Y-62794063D01*
X140510951Y-62794063D02*
X140480713Y-62824301D01*
X140480713Y-62824301D02*
X140420237Y-62854540D01*
X140420237Y-62854540D02*
X140208570Y-62854540D01*
X140843570Y-62552159D02*
X140843570Y-63066206D01*
X140843570Y-63066206D02*
X140873808Y-63126682D01*
X140873808Y-63126682D02*
X140904046Y-63156921D01*
X140904046Y-63156921D02*
X140964522Y-63187159D01*
X140964522Y-63187159D02*
X141085475Y-63187159D01*
X141085475Y-63187159D02*
X141145951Y-63156921D01*
X141145951Y-63156921D02*
X141176189Y-63126682D01*
X141176189Y-63126682D02*
X141206427Y-63066206D01*
X141206427Y-63066206D02*
X141206427Y-62552159D01*
X141841427Y-62582397D02*
X141780951Y-62552159D01*
X141780951Y-62552159D02*
X141690237Y-62552159D01*
X141690237Y-62552159D02*
X141599522Y-62582397D01*
X141599522Y-62582397D02*
X141539046Y-62642873D01*
X141539046Y-62642873D02*
X141508808Y-62703349D01*
X141508808Y-62703349D02*
X141478570Y-62824301D01*
X141478570Y-62824301D02*
X141478570Y-62915016D01*
X141478570Y-62915016D02*
X141508808Y-63035968D01*
X141508808Y-63035968D02*
X141539046Y-63096444D01*
X141539046Y-63096444D02*
X141599522Y-63156921D01*
X141599522Y-63156921D02*
X141690237Y-63187159D01*
X141690237Y-63187159D02*
X141750713Y-63187159D01*
X141750713Y-63187159D02*
X141841427Y-63156921D01*
X141841427Y-63156921D02*
X141871665Y-63126682D01*
X141871665Y-63126682D02*
X141871665Y-62915016D01*
X141871665Y-62915016D02*
X141750713Y-62915016D01*
X142476427Y-63187159D02*
X142113570Y-63187159D01*
X142294998Y-63187159D02*
X142294998Y-62552159D01*
X142294998Y-62552159D02*
X142234522Y-62642873D01*
X142234522Y-62642873D02*
X142174046Y-62703349D01*
X142174046Y-62703349D02*
X142113570Y-62733587D01*
X143232380Y-62854540D02*
X143716190Y-62854540D01*
X143716190Y-63035968D02*
X143232380Y-63035968D01*
X144472142Y-63156921D02*
X144562856Y-63187159D01*
X144562856Y-63187159D02*
X144714047Y-63187159D01*
X144714047Y-63187159D02*
X144774523Y-63156921D01*
X144774523Y-63156921D02*
X144804761Y-63126682D01*
X144804761Y-63126682D02*
X144834999Y-63066206D01*
X144834999Y-63066206D02*
X144834999Y-63005730D01*
X144834999Y-63005730D02*
X144804761Y-62945254D01*
X144804761Y-62945254D02*
X144774523Y-62915016D01*
X144774523Y-62915016D02*
X144714047Y-62884778D01*
X144714047Y-62884778D02*
X144593094Y-62854540D01*
X144593094Y-62854540D02*
X144532618Y-62824301D01*
X144532618Y-62824301D02*
X144502380Y-62794063D01*
X144502380Y-62794063D02*
X144472142Y-62733587D01*
X144472142Y-62733587D02*
X144472142Y-62673111D01*
X144472142Y-62673111D02*
X144502380Y-62612635D01*
X144502380Y-62612635D02*
X144532618Y-62582397D01*
X144532618Y-62582397D02*
X144593094Y-62552159D01*
X144593094Y-62552159D02*
X144744285Y-62552159D01*
X144744285Y-62552159D02*
X144834999Y-62582397D01*
X145228094Y-62552159D02*
X145349047Y-62552159D01*
X145349047Y-62552159D02*
X145409523Y-62582397D01*
X145409523Y-62582397D02*
X145469999Y-62642873D01*
X145469999Y-62642873D02*
X145500237Y-62763825D01*
X145500237Y-62763825D02*
X145500237Y-62975492D01*
X145500237Y-62975492D02*
X145469999Y-63096444D01*
X145469999Y-63096444D02*
X145409523Y-63156921D01*
X145409523Y-63156921D02*
X145349047Y-63187159D01*
X145349047Y-63187159D02*
X145228094Y-63187159D01*
X145228094Y-63187159D02*
X145167618Y-63156921D01*
X145167618Y-63156921D02*
X145107142Y-63096444D01*
X145107142Y-63096444D02*
X145076904Y-62975492D01*
X145076904Y-62975492D02*
X145076904Y-62763825D01*
X145076904Y-62763825D02*
X145107142Y-62642873D01*
X145107142Y-62642873D02*
X145167618Y-62582397D01*
X145167618Y-62582397D02*
X145228094Y-62552159D01*
X146074761Y-63187159D02*
X145772380Y-63187159D01*
X145772380Y-63187159D02*
X145772380Y-62552159D01*
X146256190Y-63005730D02*
X146558571Y-63005730D01*
X146195714Y-63187159D02*
X146407380Y-62552159D01*
X146407380Y-62552159D02*
X146619047Y-63187159D01*
X147193571Y-63187159D02*
X146981904Y-62884778D01*
X146830714Y-63187159D02*
X146830714Y-62552159D01*
X146830714Y-62552159D02*
X147072619Y-62552159D01*
X147072619Y-62552159D02*
X147133095Y-62582397D01*
X147133095Y-62582397D02*
X147163333Y-62612635D01*
X147163333Y-62612635D02*
X147193571Y-62673111D01*
X147193571Y-62673111D02*
X147193571Y-62763825D01*
X147193571Y-62763825D02*
X147163333Y-62824301D01*
X147163333Y-62824301D02*
X147133095Y-62854540D01*
X147133095Y-62854540D02*
X147072619Y-62884778D01*
X147072619Y-62884778D02*
X146830714Y-62884778D01*
X147889048Y-62552159D02*
X148282143Y-62552159D01*
X148282143Y-62552159D02*
X148070476Y-62794063D01*
X148070476Y-62794063D02*
X148161191Y-62794063D01*
X148161191Y-62794063D02*
X148221667Y-62824301D01*
X148221667Y-62824301D02*
X148251905Y-62854540D01*
X148251905Y-62854540D02*
X148282143Y-62915016D01*
X148282143Y-62915016D02*
X148282143Y-63066206D01*
X148282143Y-63066206D02*
X148251905Y-63126682D01*
X148251905Y-63126682D02*
X148221667Y-63156921D01*
X148221667Y-63156921D02*
X148161191Y-63187159D01*
X148161191Y-63187159D02*
X147979762Y-63187159D01*
X147979762Y-63187159D02*
X147919286Y-63156921D01*
X147919286Y-63156921D02*
X147889048Y-63126682D01*
X148463572Y-62552159D02*
X148675238Y-63187159D01*
X148675238Y-63187159D02*
X148886905Y-62552159D01*
X149038096Y-62552159D02*
X149431191Y-62552159D01*
X149431191Y-62552159D02*
X149219524Y-62794063D01*
X149219524Y-62794063D02*
X149310239Y-62794063D01*
X149310239Y-62794063D02*
X149370715Y-62824301D01*
X149370715Y-62824301D02*
X149400953Y-62854540D01*
X149400953Y-62854540D02*
X149431191Y-62915016D01*
X149431191Y-62915016D02*
X149431191Y-63066206D01*
X149431191Y-63066206D02*
X149400953Y-63126682D01*
X149400953Y-63126682D02*
X149370715Y-63156921D01*
X149370715Y-63156921D02*
X149310239Y-63187159D01*
X149310239Y-63187159D02*
X149128810Y-63187159D01*
X149128810Y-63187159D02*
X149068334Y-63156921D01*
X149068334Y-63156921D02*
X149038096Y-63126682D01*
X133112952Y-53444596D02*
X133064571Y-53420406D01*
X133064571Y-53420406D02*
X132992000Y-53420406D01*
X132992000Y-53420406D02*
X132919428Y-53444596D01*
X132919428Y-53444596D02*
X132871047Y-53492977D01*
X132871047Y-53492977D02*
X132846857Y-53541358D01*
X132846857Y-53541358D02*
X132822666Y-53638120D01*
X132822666Y-53638120D02*
X132822666Y-53710692D01*
X132822666Y-53710692D02*
X132846857Y-53807454D01*
X132846857Y-53807454D02*
X132871047Y-53855835D01*
X132871047Y-53855835D02*
X132919428Y-53904216D01*
X132919428Y-53904216D02*
X132992000Y-53928406D01*
X132992000Y-53928406D02*
X133040381Y-53928406D01*
X133040381Y-53928406D02*
X133112952Y-53904216D01*
X133112952Y-53904216D02*
X133137143Y-53880025D01*
X133137143Y-53880025D02*
X133137143Y-53710692D01*
X133137143Y-53710692D02*
X133040381Y-53710692D01*
X133354857Y-53928406D02*
X133354857Y-53420406D01*
X133354857Y-53420406D02*
X133645143Y-53928406D01*
X133645143Y-53928406D02*
X133645143Y-53420406D01*
X133887047Y-53928406D02*
X133887047Y-53420406D01*
X133887047Y-53420406D02*
X134007999Y-53420406D01*
X134007999Y-53420406D02*
X134080571Y-53444596D01*
X134080571Y-53444596D02*
X134128952Y-53492977D01*
X134128952Y-53492977D02*
X134153142Y-53541358D01*
X134153142Y-53541358D02*
X134177333Y-53638120D01*
X134177333Y-53638120D02*
X134177333Y-53710692D01*
X134177333Y-53710692D02*
X134153142Y-53807454D01*
X134153142Y-53807454D02*
X134128952Y-53855835D01*
X134128952Y-53855835D02*
X134080571Y-53904216D01*
X134080571Y-53904216D02*
X134007999Y-53928406D01*
X134007999Y-53928406D02*
X133887047Y-53928406D01*
X158549216Y-98374619D02*
X158573406Y-98302047D01*
X158573406Y-98302047D02*
X158573406Y-98181095D01*
X158573406Y-98181095D02*
X158549216Y-98132714D01*
X158549216Y-98132714D02*
X158525025Y-98108523D01*
X158525025Y-98108523D02*
X158476644Y-98084333D01*
X158476644Y-98084333D02*
X158428263Y-98084333D01*
X158428263Y-98084333D02*
X158379882Y-98108523D01*
X158379882Y-98108523D02*
X158355692Y-98132714D01*
X158355692Y-98132714D02*
X158331501Y-98181095D01*
X158331501Y-98181095D02*
X158307311Y-98277857D01*
X158307311Y-98277857D02*
X158283120Y-98326238D01*
X158283120Y-98326238D02*
X158258930Y-98350428D01*
X158258930Y-98350428D02*
X158210549Y-98374619D01*
X158210549Y-98374619D02*
X158162168Y-98374619D01*
X158162168Y-98374619D02*
X158113787Y-98350428D01*
X158113787Y-98350428D02*
X158089596Y-98326238D01*
X158089596Y-98326238D02*
X158065406Y-98277857D01*
X158065406Y-98277857D02*
X158065406Y-98156904D01*
X158065406Y-98156904D02*
X158089596Y-98084333D01*
X158065406Y-97914999D02*
X158573406Y-97794047D01*
X158573406Y-97794047D02*
X158210549Y-97697285D01*
X158210549Y-97697285D02*
X158573406Y-97600523D01*
X158573406Y-97600523D02*
X158065406Y-97479571D01*
X158573406Y-97286047D02*
X158065406Y-97286047D01*
X158065406Y-97286047D02*
X158065406Y-97165095D01*
X158065406Y-97165095D02*
X158089596Y-97092523D01*
X158089596Y-97092523D02*
X158137977Y-97044142D01*
X158137977Y-97044142D02*
X158186358Y-97019952D01*
X158186358Y-97019952D02*
X158283120Y-96995761D01*
X158283120Y-96995761D02*
X158355692Y-96995761D01*
X158355692Y-96995761D02*
X158452454Y-97019952D01*
X158452454Y-97019952D02*
X158500835Y-97044142D01*
X158500835Y-97044142D02*
X158549216Y-97092523D01*
X158549216Y-97092523D02*
X158573406Y-97165095D01*
X158573406Y-97165095D02*
X158573406Y-97286047D01*
X158379882Y-96778047D02*
X158379882Y-96391000D01*
X158573406Y-96584523D02*
X158186358Y-96584523D01*
X158065406Y-96221667D02*
X158573406Y-96052333D01*
X158573406Y-96052333D02*
X158065406Y-95883000D01*
X158525025Y-95423380D02*
X158549216Y-95447571D01*
X158549216Y-95447571D02*
X158573406Y-95520142D01*
X158573406Y-95520142D02*
X158573406Y-95568523D01*
X158573406Y-95568523D02*
X158549216Y-95641095D01*
X158549216Y-95641095D02*
X158500835Y-95689476D01*
X158500835Y-95689476D02*
X158452454Y-95713666D01*
X158452454Y-95713666D02*
X158355692Y-95737857D01*
X158355692Y-95737857D02*
X158283120Y-95737857D01*
X158283120Y-95737857D02*
X158186358Y-95713666D01*
X158186358Y-95713666D02*
X158137977Y-95689476D01*
X158137977Y-95689476D02*
X158089596Y-95641095D01*
X158089596Y-95641095D02*
X158065406Y-95568523D01*
X158065406Y-95568523D02*
X158065406Y-95520142D01*
X158065406Y-95520142D02*
X158089596Y-95447571D01*
X158089596Y-95447571D02*
X158113787Y-95423380D01*
X158573406Y-95205666D02*
X158065406Y-95205666D01*
X158065406Y-95205666D02*
X158065406Y-95012142D01*
X158065406Y-95012142D02*
X158089596Y-94963761D01*
X158089596Y-94963761D02*
X158113787Y-94939571D01*
X158113787Y-94939571D02*
X158162168Y-94915380D01*
X158162168Y-94915380D02*
X158234739Y-94915380D01*
X158234739Y-94915380D02*
X158283120Y-94939571D01*
X158283120Y-94939571D02*
X158307311Y-94963761D01*
X158307311Y-94963761D02*
X158331501Y-95012142D01*
X158331501Y-95012142D02*
X158331501Y-95205666D01*
X149397809Y-77820406D02*
X149397809Y-78231644D01*
X149397809Y-78231644D02*
X149421999Y-78280025D01*
X149421999Y-78280025D02*
X149446190Y-78304216D01*
X149446190Y-78304216D02*
X149494571Y-78328406D01*
X149494571Y-78328406D02*
X149591333Y-78328406D01*
X149591333Y-78328406D02*
X149639714Y-78304216D01*
X149639714Y-78304216D02*
X149663904Y-78280025D01*
X149663904Y-78280025D02*
X149688095Y-78231644D01*
X149688095Y-78231644D02*
X149688095Y-77820406D01*
X149905808Y-78304216D02*
X149978380Y-78328406D01*
X149978380Y-78328406D02*
X150099332Y-78328406D01*
X150099332Y-78328406D02*
X150147713Y-78304216D01*
X150147713Y-78304216D02*
X150171904Y-78280025D01*
X150171904Y-78280025D02*
X150196094Y-78231644D01*
X150196094Y-78231644D02*
X150196094Y-78183263D01*
X150196094Y-78183263D02*
X150171904Y-78134882D01*
X150171904Y-78134882D02*
X150147713Y-78110692D01*
X150147713Y-78110692D02*
X150099332Y-78086501D01*
X150099332Y-78086501D02*
X150002570Y-78062311D01*
X150002570Y-78062311D02*
X149954189Y-78038120D01*
X149954189Y-78038120D02*
X149929999Y-78013930D01*
X149929999Y-78013930D02*
X149905808Y-77965549D01*
X149905808Y-77965549D02*
X149905808Y-77917168D01*
X149905808Y-77917168D02*
X149929999Y-77868787D01*
X149929999Y-77868787D02*
X149954189Y-77844596D01*
X149954189Y-77844596D02*
X150002570Y-77820406D01*
X150002570Y-77820406D02*
X150123523Y-77820406D01*
X150123523Y-77820406D02*
X150196094Y-77844596D01*
X150583142Y-78062311D02*
X150655714Y-78086501D01*
X150655714Y-78086501D02*
X150679904Y-78110692D01*
X150679904Y-78110692D02*
X150704095Y-78159073D01*
X150704095Y-78159073D02*
X150704095Y-78231644D01*
X150704095Y-78231644D02*
X150679904Y-78280025D01*
X150679904Y-78280025D02*
X150655714Y-78304216D01*
X150655714Y-78304216D02*
X150607333Y-78328406D01*
X150607333Y-78328406D02*
X150413809Y-78328406D01*
X150413809Y-78328406D02*
X150413809Y-77820406D01*
X150413809Y-77820406D02*
X150583142Y-77820406D01*
X150583142Y-77820406D02*
X150631523Y-77844596D01*
X150631523Y-77844596D02*
X150655714Y-77868787D01*
X150655714Y-77868787D02*
X150679904Y-77917168D01*
X150679904Y-77917168D02*
X150679904Y-77965549D01*
X150679904Y-77965549D02*
X150655714Y-78013930D01*
X150655714Y-78013930D02*
X150631523Y-78038120D01*
X150631523Y-78038120D02*
X150583142Y-78062311D01*
X150583142Y-78062311D02*
X150413809Y-78062311D01*
X151308857Y-78328406D02*
X151308857Y-77820406D01*
X151308857Y-78062311D02*
X151599143Y-78062311D01*
X151599143Y-78328406D02*
X151599143Y-77820406D01*
X151937809Y-77820406D02*
X152034571Y-77820406D01*
X152034571Y-77820406D02*
X152082952Y-77844596D01*
X152082952Y-77844596D02*
X152131333Y-77892977D01*
X152131333Y-77892977D02*
X152155523Y-77989739D01*
X152155523Y-77989739D02*
X152155523Y-78159073D01*
X152155523Y-78159073D02*
X152131333Y-78255835D01*
X152131333Y-78255835D02*
X152082952Y-78304216D01*
X152082952Y-78304216D02*
X152034571Y-78328406D01*
X152034571Y-78328406D02*
X151937809Y-78328406D01*
X151937809Y-78328406D02*
X151889428Y-78304216D01*
X151889428Y-78304216D02*
X151841047Y-78255835D01*
X151841047Y-78255835D02*
X151816856Y-78159073D01*
X151816856Y-78159073D02*
X151816856Y-77989739D01*
X151816856Y-77989739D02*
X151841047Y-77892977D01*
X151841047Y-77892977D02*
X151889428Y-77844596D01*
X151889428Y-77844596D02*
X151937809Y-77820406D01*
X152349046Y-78304216D02*
X152421618Y-78328406D01*
X152421618Y-78328406D02*
X152542570Y-78328406D01*
X152542570Y-78328406D02*
X152590951Y-78304216D01*
X152590951Y-78304216D02*
X152615142Y-78280025D01*
X152615142Y-78280025D02*
X152639332Y-78231644D01*
X152639332Y-78231644D02*
X152639332Y-78183263D01*
X152639332Y-78183263D02*
X152615142Y-78134882D01*
X152615142Y-78134882D02*
X152590951Y-78110692D01*
X152590951Y-78110692D02*
X152542570Y-78086501D01*
X152542570Y-78086501D02*
X152445808Y-78062311D01*
X152445808Y-78062311D02*
X152397427Y-78038120D01*
X152397427Y-78038120D02*
X152373237Y-78013930D01*
X152373237Y-78013930D02*
X152349046Y-77965549D01*
X152349046Y-77965549D02*
X152349046Y-77917168D01*
X152349046Y-77917168D02*
X152373237Y-77868787D01*
X152373237Y-77868787D02*
X152397427Y-77844596D01*
X152397427Y-77844596D02*
X152445808Y-77820406D01*
X152445808Y-77820406D02*
X152566761Y-77820406D01*
X152566761Y-77820406D02*
X152639332Y-77844596D01*
X152784475Y-77820406D02*
X153074761Y-77820406D01*
X152929618Y-78328406D02*
X152929618Y-77820406D01*
X151102570Y-86804216D02*
X151175142Y-86828406D01*
X151175142Y-86828406D02*
X151296094Y-86828406D01*
X151296094Y-86828406D02*
X151344475Y-86804216D01*
X151344475Y-86804216D02*
X151368666Y-86780025D01*
X151368666Y-86780025D02*
X151392856Y-86731644D01*
X151392856Y-86731644D02*
X151392856Y-86683263D01*
X151392856Y-86683263D02*
X151368666Y-86634882D01*
X151368666Y-86634882D02*
X151344475Y-86610692D01*
X151344475Y-86610692D02*
X151296094Y-86586501D01*
X151296094Y-86586501D02*
X151199332Y-86562311D01*
X151199332Y-86562311D02*
X151150951Y-86538120D01*
X151150951Y-86538120D02*
X151126761Y-86513930D01*
X151126761Y-86513930D02*
X151102570Y-86465549D01*
X151102570Y-86465549D02*
X151102570Y-86417168D01*
X151102570Y-86417168D02*
X151126761Y-86368787D01*
X151126761Y-86368787D02*
X151150951Y-86344596D01*
X151150951Y-86344596D02*
X151199332Y-86320406D01*
X151199332Y-86320406D02*
X151320285Y-86320406D01*
X151320285Y-86320406D02*
X151392856Y-86344596D01*
X151537999Y-86320406D02*
X151828285Y-86320406D01*
X151683142Y-86828406D02*
X151683142Y-86320406D01*
X152239524Y-86828406D02*
X151997619Y-86828406D01*
X151997619Y-86828406D02*
X151997619Y-86320406D01*
X152287905Y-86876787D02*
X152674952Y-86876787D01*
X153037810Y-86320406D02*
X152795905Y-86320406D01*
X152795905Y-86320406D02*
X152771714Y-86562311D01*
X152771714Y-86562311D02*
X152795905Y-86538120D01*
X152795905Y-86538120D02*
X152844286Y-86513930D01*
X152844286Y-86513930D02*
X152965238Y-86513930D01*
X152965238Y-86513930D02*
X153013619Y-86538120D01*
X153013619Y-86538120D02*
X153037810Y-86562311D01*
X153037810Y-86562311D02*
X153062000Y-86610692D01*
X153062000Y-86610692D02*
X153062000Y-86731644D01*
X153062000Y-86731644D02*
X153037810Y-86780025D01*
X153037810Y-86780025D02*
X153013619Y-86804216D01*
X153013619Y-86804216D02*
X152965238Y-86828406D01*
X152965238Y-86828406D02*
X152844286Y-86828406D01*
X152844286Y-86828406D02*
X152795905Y-86804216D01*
X152795905Y-86804216D02*
X152771714Y-86780025D01*
X153207143Y-86320406D02*
X153376477Y-86828406D01*
X153376477Y-86828406D02*
X153545810Y-86320406D01*
X127768787Y-67967430D02*
X127744596Y-67943239D01*
X127744596Y-67943239D02*
X127720406Y-67894858D01*
X127720406Y-67894858D02*
X127720406Y-67773906D01*
X127720406Y-67773906D02*
X127744596Y-67725525D01*
X127744596Y-67725525D02*
X127768787Y-67701334D01*
X127768787Y-67701334D02*
X127817168Y-67677144D01*
X127817168Y-67677144D02*
X127865549Y-67677144D01*
X127865549Y-67677144D02*
X127938120Y-67701334D01*
X127938120Y-67701334D02*
X128228406Y-67991620D01*
X128228406Y-67991620D02*
X128228406Y-67677144D01*
X127720406Y-67362667D02*
X127720406Y-67314286D01*
X127720406Y-67314286D02*
X127744596Y-67265905D01*
X127744596Y-67265905D02*
X127768787Y-67241715D01*
X127768787Y-67241715D02*
X127817168Y-67217524D01*
X127817168Y-67217524D02*
X127913930Y-67193334D01*
X127913930Y-67193334D02*
X128034882Y-67193334D01*
X128034882Y-67193334D02*
X128131644Y-67217524D01*
X128131644Y-67217524D02*
X128180025Y-67241715D01*
X128180025Y-67241715D02*
X128204216Y-67265905D01*
X128204216Y-67265905D02*
X128228406Y-67314286D01*
X128228406Y-67314286D02*
X128228406Y-67362667D01*
X128228406Y-67362667D02*
X128204216Y-67411048D01*
X128204216Y-67411048D02*
X128180025Y-67435239D01*
X128180025Y-67435239D02*
X128131644Y-67459429D01*
X128131644Y-67459429D02*
X128034882Y-67483620D01*
X128034882Y-67483620D02*
X127913930Y-67483620D01*
X127913930Y-67483620D02*
X127817168Y-67459429D01*
X127817168Y-67459429D02*
X127768787Y-67435239D01*
X127768787Y-67435239D02*
X127744596Y-67411048D01*
X127744596Y-67411048D02*
X127720406Y-67362667D01*
X127768787Y-66999810D02*
X127744596Y-66975619D01*
X127744596Y-66975619D02*
X127720406Y-66927238D01*
X127720406Y-66927238D02*
X127720406Y-66806286D01*
X127720406Y-66806286D02*
X127744596Y-66757905D01*
X127744596Y-66757905D02*
X127768787Y-66733714D01*
X127768787Y-66733714D02*
X127817168Y-66709524D01*
X127817168Y-66709524D02*
X127865549Y-66709524D01*
X127865549Y-66709524D02*
X127938120Y-66733714D01*
X127938120Y-66733714D02*
X128228406Y-67024000D01*
X128228406Y-67024000D02*
X128228406Y-66709524D01*
X127768787Y-66516000D02*
X127744596Y-66491809D01*
X127744596Y-66491809D02*
X127720406Y-66443428D01*
X127720406Y-66443428D02*
X127720406Y-66322476D01*
X127720406Y-66322476D02*
X127744596Y-66274095D01*
X127744596Y-66274095D02*
X127768787Y-66249904D01*
X127768787Y-66249904D02*
X127817168Y-66225714D01*
X127817168Y-66225714D02*
X127865549Y-66225714D01*
X127865549Y-66225714D02*
X127938120Y-66249904D01*
X127938120Y-66249904D02*
X128228406Y-66540190D01*
X128228406Y-66540190D02*
X128228406Y-66225714D01*
X128034882Y-66007999D02*
X128034882Y-65620952D01*
X128228406Y-65112952D02*
X128228406Y-65403238D01*
X128228406Y-65258095D02*
X127720406Y-65258095D01*
X127720406Y-65258095D02*
X127792977Y-65306476D01*
X127792977Y-65306476D02*
X127841358Y-65354857D01*
X127841358Y-65354857D02*
X127865549Y-65403238D01*
X127768787Y-64919428D02*
X127744596Y-64895237D01*
X127744596Y-64895237D02*
X127720406Y-64846856D01*
X127720406Y-64846856D02*
X127720406Y-64725904D01*
X127720406Y-64725904D02*
X127744596Y-64677523D01*
X127744596Y-64677523D02*
X127768787Y-64653332D01*
X127768787Y-64653332D02*
X127817168Y-64629142D01*
X127817168Y-64629142D02*
X127865549Y-64629142D01*
X127865549Y-64629142D02*
X127938120Y-64653332D01*
X127938120Y-64653332D02*
X128228406Y-64943618D01*
X128228406Y-64943618D02*
X128228406Y-64629142D01*
X128034882Y-64411427D02*
X128034882Y-64024380D01*
X127768787Y-63806666D02*
X127744596Y-63782475D01*
X127744596Y-63782475D02*
X127720406Y-63734094D01*
X127720406Y-63734094D02*
X127720406Y-63613142D01*
X127720406Y-63613142D02*
X127744596Y-63564761D01*
X127744596Y-63564761D02*
X127768787Y-63540570D01*
X127768787Y-63540570D02*
X127817168Y-63516380D01*
X127817168Y-63516380D02*
X127865549Y-63516380D01*
X127865549Y-63516380D02*
X127938120Y-63540570D01*
X127938120Y-63540570D02*
X128228406Y-63830856D01*
X128228406Y-63830856D02*
X128228406Y-63516380D01*
X127720406Y-63347046D02*
X127720406Y-63032570D01*
X127720406Y-63032570D02*
X127913930Y-63201903D01*
X127913930Y-63201903D02*
X127913930Y-63129332D01*
X127913930Y-63129332D02*
X127938120Y-63080951D01*
X127938120Y-63080951D02*
X127962311Y-63056760D01*
X127962311Y-63056760D02*
X128010692Y-63032570D01*
X128010692Y-63032570D02*
X128131644Y-63032570D01*
X128131644Y-63032570D02*
X128180025Y-63056760D01*
X128180025Y-63056760D02*
X128204216Y-63080951D01*
X128204216Y-63080951D02*
X128228406Y-63129332D01*
X128228406Y-63129332D02*
X128228406Y-63274475D01*
X128228406Y-63274475D02*
X128204216Y-63322856D01*
X128204216Y-63322856D02*
X128180025Y-63347046D01*
X126420406Y-84703905D02*
X126928406Y-84534571D01*
X126928406Y-84534571D02*
X126420406Y-84365238D01*
X126976787Y-84316857D02*
X126976787Y-83929809D01*
X126420406Y-83881428D02*
X126420406Y-83591142D01*
X126928406Y-83736285D02*
X126420406Y-83736285D01*
X126444596Y-83155713D02*
X126420406Y-83204094D01*
X126420406Y-83204094D02*
X126420406Y-83276665D01*
X126420406Y-83276665D02*
X126444596Y-83349237D01*
X126444596Y-83349237D02*
X126492977Y-83397618D01*
X126492977Y-83397618D02*
X126541358Y-83421808D01*
X126541358Y-83421808D02*
X126638120Y-83445999D01*
X126638120Y-83445999D02*
X126710692Y-83445999D01*
X126710692Y-83445999D02*
X126807454Y-83421808D01*
X126807454Y-83421808D02*
X126855835Y-83397618D01*
X126855835Y-83397618D02*
X126904216Y-83349237D01*
X126904216Y-83349237D02*
X126928406Y-83276665D01*
X126928406Y-83276665D02*
X126928406Y-83228284D01*
X126928406Y-83228284D02*
X126904216Y-83155713D01*
X126904216Y-83155713D02*
X126880025Y-83131522D01*
X126880025Y-83131522D02*
X126710692Y-83131522D01*
X126710692Y-83131522D02*
X126710692Y-83228284D01*
X126420406Y-82986380D02*
X126420406Y-82696094D01*
X126928406Y-82841237D02*
X126420406Y-82841237D01*
X160412952Y-96544596D02*
X160364571Y-96520406D01*
X160364571Y-96520406D02*
X160292000Y-96520406D01*
X160292000Y-96520406D02*
X160219428Y-96544596D01*
X160219428Y-96544596D02*
X160171047Y-96592977D01*
X160171047Y-96592977D02*
X160146857Y-96641358D01*
X160146857Y-96641358D02*
X160122666Y-96738120D01*
X160122666Y-96738120D02*
X160122666Y-96810692D01*
X160122666Y-96810692D02*
X160146857Y-96907454D01*
X160146857Y-96907454D02*
X160171047Y-96955835D01*
X160171047Y-96955835D02*
X160219428Y-97004216D01*
X160219428Y-97004216D02*
X160292000Y-97028406D01*
X160292000Y-97028406D02*
X160340381Y-97028406D01*
X160340381Y-97028406D02*
X160412952Y-97004216D01*
X160412952Y-97004216D02*
X160437143Y-96980025D01*
X160437143Y-96980025D02*
X160437143Y-96810692D01*
X160437143Y-96810692D02*
X160340381Y-96810692D01*
X160654857Y-97028406D02*
X160654857Y-96520406D01*
X160654857Y-96520406D02*
X160945143Y-97028406D01*
X160945143Y-97028406D02*
X160945143Y-96520406D01*
X161187047Y-97028406D02*
X161187047Y-96520406D01*
X161187047Y-96520406D02*
X161307999Y-96520406D01*
X161307999Y-96520406D02*
X161380571Y-96544596D01*
X161380571Y-96544596D02*
X161428952Y-96592977D01*
X161428952Y-96592977D02*
X161453142Y-96641358D01*
X161453142Y-96641358D02*
X161477333Y-96738120D01*
X161477333Y-96738120D02*
X161477333Y-96810692D01*
X161477333Y-96810692D02*
X161453142Y-96907454D01*
X161453142Y-96907454D02*
X161428952Y-96955835D01*
X161428952Y-96955835D02*
X161380571Y-97004216D01*
X161380571Y-97004216D02*
X161307999Y-97028406D01*
X161307999Y-97028406D02*
X161187047Y-97028406D01*
X131080951Y-66452159D02*
X131443808Y-66452159D01*
X131262379Y-67087159D02*
X131262379Y-66452159D01*
X131988094Y-66482397D02*
X131927618Y-66452159D01*
X131927618Y-66452159D02*
X131836904Y-66452159D01*
X131836904Y-66452159D02*
X131746189Y-66482397D01*
X131746189Y-66482397D02*
X131685713Y-66542873D01*
X131685713Y-66542873D02*
X131655475Y-66603349D01*
X131655475Y-66603349D02*
X131625237Y-66724301D01*
X131625237Y-66724301D02*
X131625237Y-66815016D01*
X131625237Y-66815016D02*
X131655475Y-66935968D01*
X131655475Y-66935968D02*
X131685713Y-66996444D01*
X131685713Y-66996444D02*
X131746189Y-67056921D01*
X131746189Y-67056921D02*
X131836904Y-67087159D01*
X131836904Y-67087159D02*
X131897380Y-67087159D01*
X131897380Y-67087159D02*
X131988094Y-67056921D01*
X131988094Y-67056921D02*
X132018332Y-67026682D01*
X132018332Y-67026682D02*
X132018332Y-66815016D01*
X132018332Y-66815016D02*
X131897380Y-66815016D01*
X132199761Y-66452159D02*
X132562618Y-66452159D01*
X132381189Y-67087159D02*
X132381189Y-66452159D01*
X133620952Y-67087159D02*
X133409285Y-66784778D01*
X133258095Y-67087159D02*
X133258095Y-66452159D01*
X133258095Y-66452159D02*
X133500000Y-66452159D01*
X133500000Y-66452159D02*
X133560476Y-66482397D01*
X133560476Y-66482397D02*
X133590714Y-66512635D01*
X133590714Y-66512635D02*
X133620952Y-66573111D01*
X133620952Y-66573111D02*
X133620952Y-66663825D01*
X133620952Y-66663825D02*
X133590714Y-66724301D01*
X133590714Y-66724301D02*
X133560476Y-66754540D01*
X133560476Y-66754540D02*
X133500000Y-66784778D01*
X133500000Y-66784778D02*
X133258095Y-66784778D01*
X133893095Y-66754540D02*
X134104762Y-66754540D01*
X134195476Y-67087159D02*
X133893095Y-67087159D01*
X133893095Y-67087159D02*
X133893095Y-66452159D01*
X133893095Y-66452159D02*
X134195476Y-66452159D01*
X134437381Y-67056921D02*
X134528095Y-67087159D01*
X134528095Y-67087159D02*
X134679286Y-67087159D01*
X134679286Y-67087159D02*
X134739762Y-67056921D01*
X134739762Y-67056921D02*
X134770000Y-67026682D01*
X134770000Y-67026682D02*
X134800238Y-66966206D01*
X134800238Y-66966206D02*
X134800238Y-66905730D01*
X134800238Y-66905730D02*
X134770000Y-66845254D01*
X134770000Y-66845254D02*
X134739762Y-66815016D01*
X134739762Y-66815016D02*
X134679286Y-66784778D01*
X134679286Y-66784778D02*
X134558333Y-66754540D01*
X134558333Y-66754540D02*
X134497857Y-66724301D01*
X134497857Y-66724301D02*
X134467619Y-66694063D01*
X134467619Y-66694063D02*
X134437381Y-66633587D01*
X134437381Y-66633587D02*
X134437381Y-66573111D01*
X134437381Y-66573111D02*
X134467619Y-66512635D01*
X134467619Y-66512635D02*
X134497857Y-66482397D01*
X134497857Y-66482397D02*
X134558333Y-66452159D01*
X134558333Y-66452159D02*
X134709524Y-66452159D01*
X134709524Y-66452159D02*
X134800238Y-66482397D01*
X135072381Y-66754540D02*
X135284048Y-66754540D01*
X135374762Y-67087159D02*
X135072381Y-67087159D01*
X135072381Y-67087159D02*
X135072381Y-66452159D01*
X135072381Y-66452159D02*
X135374762Y-66452159D01*
X135556191Y-66452159D02*
X135919048Y-66452159D01*
X135737619Y-67087159D02*
X135737619Y-66452159D01*
X126912952Y-96644596D02*
X126864571Y-96620406D01*
X126864571Y-96620406D02*
X126792000Y-96620406D01*
X126792000Y-96620406D02*
X126719428Y-96644596D01*
X126719428Y-96644596D02*
X126671047Y-96692977D01*
X126671047Y-96692977D02*
X126646857Y-96741358D01*
X126646857Y-96741358D02*
X126622666Y-96838120D01*
X126622666Y-96838120D02*
X126622666Y-96910692D01*
X126622666Y-96910692D02*
X126646857Y-97007454D01*
X126646857Y-97007454D02*
X126671047Y-97055835D01*
X126671047Y-97055835D02*
X126719428Y-97104216D01*
X126719428Y-97104216D02*
X126792000Y-97128406D01*
X126792000Y-97128406D02*
X126840381Y-97128406D01*
X126840381Y-97128406D02*
X126912952Y-97104216D01*
X126912952Y-97104216D02*
X126937143Y-97080025D01*
X126937143Y-97080025D02*
X126937143Y-96910692D01*
X126937143Y-96910692D02*
X126840381Y-96910692D01*
X127154857Y-97128406D02*
X127154857Y-96620406D01*
X127154857Y-96620406D02*
X127445143Y-97128406D01*
X127445143Y-97128406D02*
X127445143Y-96620406D01*
X127687047Y-97128406D02*
X127687047Y-96620406D01*
X127687047Y-96620406D02*
X127807999Y-96620406D01*
X127807999Y-96620406D02*
X127880571Y-96644596D01*
X127880571Y-96644596D02*
X127928952Y-96692977D01*
X127928952Y-96692977D02*
X127953142Y-96741358D01*
X127953142Y-96741358D02*
X127977333Y-96838120D01*
X127977333Y-96838120D02*
X127977333Y-96910692D01*
X127977333Y-96910692D02*
X127953142Y-97007454D01*
X127953142Y-97007454D02*
X127928952Y-97055835D01*
X127928952Y-97055835D02*
X127880571Y-97104216D01*
X127880571Y-97104216D02*
X127807999Y-97128406D01*
X127807999Y-97128406D02*
X127687047Y-97128406D01*
X160851253Y-54585713D02*
X160803634Y-54538094D01*
X160803634Y-54538094D02*
X160756015Y-54442856D01*
X160756015Y-54442856D02*
X160756015Y-54204761D01*
X160756015Y-54204761D02*
X160803634Y-54109523D01*
X160803634Y-54109523D02*
X160851253Y-54061904D01*
X160851253Y-54061904D02*
X160946491Y-54014285D01*
X160946491Y-54014285D02*
X161041729Y-54014285D01*
X161041729Y-54014285D02*
X161184586Y-54061904D01*
X161184586Y-54061904D02*
X161756015Y-54633332D01*
X161756015Y-54633332D02*
X161756015Y-54014285D01*
X126552159Y-76497740D02*
X126552159Y-76376787D01*
X126552159Y-76376787D02*
X126582397Y-76316311D01*
X126582397Y-76316311D02*
X126642873Y-76255835D01*
X126642873Y-76255835D02*
X126763825Y-76225597D01*
X126763825Y-76225597D02*
X126975492Y-76225597D01*
X126975492Y-76225597D02*
X127096444Y-76255835D01*
X127096444Y-76255835D02*
X127156921Y-76316311D01*
X127156921Y-76316311D02*
X127187159Y-76376787D01*
X127187159Y-76376787D02*
X127187159Y-76497740D01*
X127187159Y-76497740D02*
X127156921Y-76558216D01*
X127156921Y-76558216D02*
X127096444Y-76618692D01*
X127096444Y-76618692D02*
X126975492Y-76648930D01*
X126975492Y-76648930D02*
X126763825Y-76648930D01*
X126763825Y-76648930D02*
X126642873Y-76618692D01*
X126642873Y-76618692D02*
X126582397Y-76558216D01*
X126582397Y-76558216D02*
X126552159Y-76497740D01*
X127187159Y-75953454D02*
X126763825Y-75953454D01*
X126884778Y-75953454D02*
X126824301Y-75923216D01*
X126824301Y-75923216D02*
X126794063Y-75892978D01*
X126794063Y-75892978D02*
X126763825Y-75832502D01*
X126763825Y-75832502D02*
X126763825Y-75772025D01*
X127156921Y-75318454D02*
X127187159Y-75378930D01*
X127187159Y-75378930D02*
X127187159Y-75499883D01*
X127187159Y-75499883D02*
X127156921Y-75560359D01*
X127156921Y-75560359D02*
X127096444Y-75590597D01*
X127096444Y-75590597D02*
X126854540Y-75590597D01*
X126854540Y-75590597D02*
X126794063Y-75560359D01*
X126794063Y-75560359D02*
X126763825Y-75499883D01*
X126763825Y-75499883D02*
X126763825Y-75378930D01*
X126763825Y-75378930D02*
X126794063Y-75318454D01*
X126794063Y-75318454D02*
X126854540Y-75288216D01*
X126854540Y-75288216D02*
X126915016Y-75288216D01*
X126915016Y-75288216D02*
X126975492Y-75590597D01*
X127156921Y-75046311D02*
X127187159Y-74955597D01*
X127187159Y-74955597D02*
X127187159Y-74804406D01*
X127187159Y-74804406D02*
X127156921Y-74743930D01*
X127156921Y-74743930D02*
X127126682Y-74713692D01*
X127126682Y-74713692D02*
X127066206Y-74683454D01*
X127066206Y-74683454D02*
X127005730Y-74683454D01*
X127005730Y-74683454D02*
X126945254Y-74713692D01*
X126945254Y-74713692D02*
X126915016Y-74743930D01*
X126915016Y-74743930D02*
X126884778Y-74804406D01*
X126884778Y-74804406D02*
X126854540Y-74925359D01*
X126854540Y-74925359D02*
X126824301Y-74985835D01*
X126824301Y-74985835D02*
X126794063Y-75016073D01*
X126794063Y-75016073D02*
X126733587Y-75046311D01*
X126733587Y-75046311D02*
X126673111Y-75046311D01*
X126673111Y-75046311D02*
X126612635Y-75016073D01*
X126612635Y-75016073D02*
X126582397Y-74985835D01*
X126582397Y-74985835D02*
X126552159Y-74925359D01*
X126552159Y-74925359D02*
X126552159Y-74774168D01*
X126552159Y-74774168D02*
X126582397Y-74683454D01*
X127187159Y-74139168D02*
X126854540Y-74139168D01*
X126854540Y-74139168D02*
X126794063Y-74169406D01*
X126794063Y-74169406D02*
X126763825Y-74229882D01*
X126763825Y-74229882D02*
X126763825Y-74350835D01*
X126763825Y-74350835D02*
X126794063Y-74411311D01*
X127156921Y-74139168D02*
X127187159Y-74199644D01*
X127187159Y-74199644D02*
X127187159Y-74350835D01*
X127187159Y-74350835D02*
X127156921Y-74411311D01*
X127156921Y-74411311D02*
X127096444Y-74441549D01*
X127096444Y-74441549D02*
X127035968Y-74441549D01*
X127035968Y-74441549D02*
X126975492Y-74411311D01*
X126975492Y-74411311D02*
X126945254Y-74350835D01*
X126945254Y-74350835D02*
X126945254Y-74199644D01*
X126945254Y-74199644D02*
X126915016Y-74139168D01*
X126763825Y-73927501D02*
X126763825Y-73685597D01*
X126552159Y-73836787D02*
X127096444Y-73836787D01*
X127096444Y-73836787D02*
X127156921Y-73806549D01*
X127156921Y-73806549D02*
X127187159Y-73746073D01*
X127187159Y-73746073D02*
X127187159Y-73685597D01*
X127126682Y-72627263D02*
X127156921Y-72657501D01*
X127156921Y-72657501D02*
X127187159Y-72748215D01*
X127187159Y-72748215D02*
X127187159Y-72808691D01*
X127187159Y-72808691D02*
X127156921Y-72899406D01*
X127156921Y-72899406D02*
X127096444Y-72959882D01*
X127096444Y-72959882D02*
X127035968Y-72990120D01*
X127035968Y-72990120D02*
X126915016Y-73020358D01*
X126915016Y-73020358D02*
X126824301Y-73020358D01*
X126824301Y-73020358D02*
X126703349Y-72990120D01*
X126703349Y-72990120D02*
X126642873Y-72959882D01*
X126642873Y-72959882D02*
X126582397Y-72899406D01*
X126582397Y-72899406D02*
X126552159Y-72808691D01*
X126552159Y-72808691D02*
X126552159Y-72748215D01*
X126552159Y-72748215D02*
X126582397Y-72657501D01*
X126582397Y-72657501D02*
X126612635Y-72627263D01*
X127187159Y-72082977D02*
X126854540Y-72082977D01*
X126854540Y-72082977D02*
X126794063Y-72113215D01*
X126794063Y-72113215D02*
X126763825Y-72173691D01*
X126763825Y-72173691D02*
X126763825Y-72294644D01*
X126763825Y-72294644D02*
X126794063Y-72355120D01*
X127156921Y-72082977D02*
X127187159Y-72143453D01*
X127187159Y-72143453D02*
X127187159Y-72294644D01*
X127187159Y-72294644D02*
X127156921Y-72355120D01*
X127156921Y-72355120D02*
X127096444Y-72385358D01*
X127096444Y-72385358D02*
X127035968Y-72385358D01*
X127035968Y-72385358D02*
X126975492Y-72355120D01*
X126975492Y-72355120D02*
X126945254Y-72294644D01*
X126945254Y-72294644D02*
X126945254Y-72143453D01*
X126945254Y-72143453D02*
X126915016Y-72082977D01*
X127187159Y-71780596D02*
X126763825Y-71780596D01*
X126884778Y-71780596D02*
X126824301Y-71750358D01*
X126824301Y-71750358D02*
X126794063Y-71720120D01*
X126794063Y-71720120D02*
X126763825Y-71659644D01*
X126763825Y-71659644D02*
X126763825Y-71599167D01*
X127187159Y-71115358D02*
X126552159Y-71115358D01*
X127156921Y-71115358D02*
X127187159Y-71175834D01*
X127187159Y-71175834D02*
X127187159Y-71296787D01*
X127187159Y-71296787D02*
X127156921Y-71357263D01*
X127156921Y-71357263D02*
X127126682Y-71387501D01*
X127126682Y-71387501D02*
X127066206Y-71417739D01*
X127066206Y-71417739D02*
X126884778Y-71417739D01*
X126884778Y-71417739D02*
X126824301Y-71387501D01*
X126824301Y-71387501D02*
X126794063Y-71357263D01*
X126794063Y-71357263D02*
X126763825Y-71296787D01*
X126763825Y-71296787D02*
X126763825Y-71175834D01*
X126763825Y-71175834D02*
X126794063Y-71115358D01*
X127187159Y-70329167D02*
X126552159Y-70329167D01*
X126552159Y-70329167D02*
X126552159Y-70177977D01*
X126552159Y-70177977D02*
X126582397Y-70087262D01*
X126582397Y-70087262D02*
X126642873Y-70026786D01*
X126642873Y-70026786D02*
X126703349Y-69996548D01*
X126703349Y-69996548D02*
X126824301Y-69966310D01*
X126824301Y-69966310D02*
X126915016Y-69966310D01*
X126915016Y-69966310D02*
X127035968Y-69996548D01*
X127035968Y-69996548D02*
X127096444Y-70026786D01*
X127096444Y-70026786D02*
X127156921Y-70087262D01*
X127156921Y-70087262D02*
X127187159Y-70177977D01*
X127187159Y-70177977D02*
X127187159Y-70329167D01*
X127156921Y-69452262D02*
X127187159Y-69512738D01*
X127187159Y-69512738D02*
X127187159Y-69633691D01*
X127187159Y-69633691D02*
X127156921Y-69694167D01*
X127156921Y-69694167D02*
X127096444Y-69724405D01*
X127096444Y-69724405D02*
X126854540Y-69724405D01*
X126854540Y-69724405D02*
X126794063Y-69694167D01*
X126794063Y-69694167D02*
X126763825Y-69633691D01*
X126763825Y-69633691D02*
X126763825Y-69512738D01*
X126763825Y-69512738D02*
X126794063Y-69452262D01*
X126794063Y-69452262D02*
X126854540Y-69422024D01*
X126854540Y-69422024D02*
X126915016Y-69422024D01*
X126915016Y-69422024D02*
X126975492Y-69724405D01*
X127187159Y-69149881D02*
X126552159Y-69149881D01*
X126794063Y-69149881D02*
X126763825Y-69089405D01*
X126763825Y-69089405D02*
X126763825Y-68968452D01*
X126763825Y-68968452D02*
X126794063Y-68907976D01*
X126794063Y-68907976D02*
X126824301Y-68877738D01*
X126824301Y-68877738D02*
X126884778Y-68847500D01*
X126884778Y-68847500D02*
X127066206Y-68847500D01*
X127066206Y-68847500D02*
X127126682Y-68877738D01*
X127126682Y-68877738D02*
X127156921Y-68907976D01*
X127156921Y-68907976D02*
X127187159Y-68968452D01*
X127187159Y-68968452D02*
X127187159Y-69089405D01*
X127187159Y-69089405D02*
X127156921Y-69149881D01*
X126763825Y-68303214D02*
X127187159Y-68303214D01*
X126763825Y-68575357D02*
X127096444Y-68575357D01*
X127096444Y-68575357D02*
X127156921Y-68545119D01*
X127156921Y-68545119D02*
X127187159Y-68484643D01*
X127187159Y-68484643D02*
X127187159Y-68393928D01*
X127187159Y-68393928D02*
X127156921Y-68333452D01*
X127156921Y-68333452D02*
X127126682Y-68303214D01*
X126763825Y-67728690D02*
X127277873Y-67728690D01*
X127277873Y-67728690D02*
X127338349Y-67758928D01*
X127338349Y-67758928D02*
X127368587Y-67789166D01*
X127368587Y-67789166D02*
X127398825Y-67849643D01*
X127398825Y-67849643D02*
X127398825Y-67940357D01*
X127398825Y-67940357D02*
X127368587Y-68000833D01*
X127156921Y-67728690D02*
X127187159Y-67789166D01*
X127187159Y-67789166D02*
X127187159Y-67910119D01*
X127187159Y-67910119D02*
X127156921Y-67970595D01*
X127156921Y-67970595D02*
X127126682Y-68000833D01*
X127126682Y-68000833D02*
X127066206Y-68031071D01*
X127066206Y-68031071D02*
X126884778Y-68031071D01*
X126884778Y-68031071D02*
X126824301Y-68000833D01*
X126824301Y-68000833D02*
X126794063Y-67970595D01*
X126794063Y-67970595D02*
X126763825Y-67910119D01*
X126763825Y-67910119D02*
X126763825Y-67789166D01*
X126763825Y-67789166D02*
X126794063Y-67728690D01*
X127187159Y-66942499D02*
X126552159Y-66942499D01*
X126794063Y-66942499D02*
X126763825Y-66882023D01*
X126763825Y-66882023D02*
X126763825Y-66761070D01*
X126763825Y-66761070D02*
X126794063Y-66700594D01*
X126794063Y-66700594D02*
X126824301Y-66670356D01*
X126824301Y-66670356D02*
X126884778Y-66640118D01*
X126884778Y-66640118D02*
X127066206Y-66640118D01*
X127066206Y-66640118D02*
X127126682Y-66670356D01*
X127126682Y-66670356D02*
X127156921Y-66700594D01*
X127156921Y-66700594D02*
X127187159Y-66761070D01*
X127187159Y-66761070D02*
X127187159Y-66882023D01*
X127187159Y-66882023D02*
X127156921Y-66942499D01*
X127187159Y-66277261D02*
X127156921Y-66337737D01*
X127156921Y-66337737D02*
X127126682Y-66367975D01*
X127126682Y-66367975D02*
X127066206Y-66398213D01*
X127066206Y-66398213D02*
X126884778Y-66398213D01*
X126884778Y-66398213D02*
X126824301Y-66367975D01*
X126824301Y-66367975D02*
X126794063Y-66337737D01*
X126794063Y-66337737D02*
X126763825Y-66277261D01*
X126763825Y-66277261D02*
X126763825Y-66186546D01*
X126763825Y-66186546D02*
X126794063Y-66126070D01*
X126794063Y-66126070D02*
X126824301Y-66095832D01*
X126824301Y-66095832D02*
X126884778Y-66065594D01*
X126884778Y-66065594D02*
X127066206Y-66065594D01*
X127066206Y-66065594D02*
X127126682Y-66095832D01*
X127126682Y-66095832D02*
X127156921Y-66126070D01*
X127156921Y-66126070D02*
X127187159Y-66186546D01*
X127187159Y-66186546D02*
X127187159Y-66277261D01*
X127187159Y-65521308D02*
X126854540Y-65521308D01*
X126854540Y-65521308D02*
X126794063Y-65551546D01*
X126794063Y-65551546D02*
X126763825Y-65612022D01*
X126763825Y-65612022D02*
X126763825Y-65732975D01*
X126763825Y-65732975D02*
X126794063Y-65793451D01*
X127156921Y-65521308D02*
X127187159Y-65581784D01*
X127187159Y-65581784D02*
X127187159Y-65732975D01*
X127187159Y-65732975D02*
X127156921Y-65793451D01*
X127156921Y-65793451D02*
X127096444Y-65823689D01*
X127096444Y-65823689D02*
X127035968Y-65823689D01*
X127035968Y-65823689D02*
X126975492Y-65793451D01*
X126975492Y-65793451D02*
X126945254Y-65732975D01*
X126945254Y-65732975D02*
X126945254Y-65581784D01*
X126945254Y-65581784D02*
X126915016Y-65521308D01*
X127187159Y-65218927D02*
X126763825Y-65218927D01*
X126884778Y-65218927D02*
X126824301Y-65188689D01*
X126824301Y-65188689D02*
X126794063Y-65158451D01*
X126794063Y-65158451D02*
X126763825Y-65097975D01*
X126763825Y-65097975D02*
X126763825Y-65037498D01*
X127187159Y-64553689D02*
X126552159Y-64553689D01*
X127156921Y-64553689D02*
X127187159Y-64614165D01*
X127187159Y-64614165D02*
X127187159Y-64735118D01*
X127187159Y-64735118D02*
X127156921Y-64795594D01*
X127156921Y-64795594D02*
X127126682Y-64825832D01*
X127126682Y-64825832D02*
X127066206Y-64856070D01*
X127066206Y-64856070D02*
X126884778Y-64856070D01*
X126884778Y-64856070D02*
X126824301Y-64825832D01*
X126824301Y-64825832D02*
X126794063Y-64795594D01*
X126794063Y-64795594D02*
X126763825Y-64735118D01*
X126763825Y-64735118D02*
X126763825Y-64614165D01*
X126763825Y-64614165D02*
X126794063Y-64553689D01*
X126763825Y-63827974D02*
X127187159Y-63676784D01*
X127187159Y-63676784D02*
X126763825Y-63525593D01*
X126612635Y-63313926D02*
X126582397Y-63283688D01*
X126582397Y-63283688D02*
X126552159Y-63223212D01*
X126552159Y-63223212D02*
X126552159Y-63072021D01*
X126552159Y-63072021D02*
X126582397Y-63011545D01*
X126582397Y-63011545D02*
X126612635Y-62981307D01*
X126612635Y-62981307D02*
X126673111Y-62951069D01*
X126673111Y-62951069D02*
X126733587Y-62951069D01*
X126733587Y-62951069D02*
X126824301Y-62981307D01*
X126824301Y-62981307D02*
X127187159Y-63344164D01*
X127187159Y-63344164D02*
X127187159Y-62951069D01*
X139473570Y-68287159D02*
X139473570Y-67652159D01*
X139473570Y-67652159D02*
X139624760Y-67652159D01*
X139624760Y-67652159D02*
X139715475Y-67682397D01*
X139715475Y-67682397D02*
X139775951Y-67742873D01*
X139775951Y-67742873D02*
X139806189Y-67803349D01*
X139806189Y-67803349D02*
X139836427Y-67924301D01*
X139836427Y-67924301D02*
X139836427Y-68015016D01*
X139836427Y-68015016D02*
X139806189Y-68135968D01*
X139806189Y-68135968D02*
X139775951Y-68196444D01*
X139775951Y-68196444D02*
X139715475Y-68256921D01*
X139715475Y-68256921D02*
X139624760Y-68287159D01*
X139624760Y-68287159D02*
X139473570Y-68287159D01*
X140108570Y-67954540D02*
X140320237Y-67954540D01*
X140410951Y-68287159D02*
X140108570Y-68287159D01*
X140108570Y-68287159D02*
X140108570Y-67652159D01*
X140108570Y-67652159D02*
X140410951Y-67652159D01*
X140894761Y-67954540D02*
X140985475Y-67984778D01*
X140985475Y-67984778D02*
X141015713Y-68015016D01*
X141015713Y-68015016D02*
X141045951Y-68075492D01*
X141045951Y-68075492D02*
X141045951Y-68166206D01*
X141045951Y-68166206D02*
X141015713Y-68226682D01*
X141015713Y-68226682D02*
X140985475Y-68256921D01*
X140985475Y-68256921D02*
X140924999Y-68287159D01*
X140924999Y-68287159D02*
X140683094Y-68287159D01*
X140683094Y-68287159D02*
X140683094Y-67652159D01*
X140683094Y-67652159D02*
X140894761Y-67652159D01*
X140894761Y-67652159D02*
X140955237Y-67682397D01*
X140955237Y-67682397D02*
X140985475Y-67712635D01*
X140985475Y-67712635D02*
X141015713Y-67773111D01*
X141015713Y-67773111D02*
X141015713Y-67833587D01*
X141015713Y-67833587D02*
X140985475Y-67894063D01*
X140985475Y-67894063D02*
X140955237Y-67924301D01*
X140955237Y-67924301D02*
X140894761Y-67954540D01*
X140894761Y-67954540D02*
X140683094Y-67954540D01*
X141318094Y-67652159D02*
X141318094Y-68166206D01*
X141318094Y-68166206D02*
X141348332Y-68226682D01*
X141348332Y-68226682D02*
X141378570Y-68256921D01*
X141378570Y-68256921D02*
X141439046Y-68287159D01*
X141439046Y-68287159D02*
X141559999Y-68287159D01*
X141559999Y-68287159D02*
X141620475Y-68256921D01*
X141620475Y-68256921D02*
X141650713Y-68226682D01*
X141650713Y-68226682D02*
X141680951Y-68166206D01*
X141680951Y-68166206D02*
X141680951Y-67652159D01*
X142315951Y-67682397D02*
X142255475Y-67652159D01*
X142255475Y-67652159D02*
X142164761Y-67652159D01*
X142164761Y-67652159D02*
X142074046Y-67682397D01*
X142074046Y-67682397D02*
X142013570Y-67742873D01*
X142013570Y-67742873D02*
X141983332Y-67803349D01*
X141983332Y-67803349D02*
X141953094Y-67924301D01*
X141953094Y-67924301D02*
X141953094Y-68015016D01*
X141953094Y-68015016D02*
X141983332Y-68135968D01*
X141983332Y-68135968D02*
X142013570Y-68196444D01*
X142013570Y-68196444D02*
X142074046Y-68256921D01*
X142074046Y-68256921D02*
X142164761Y-68287159D01*
X142164761Y-68287159D02*
X142225237Y-68287159D01*
X142225237Y-68287159D02*
X142315951Y-68256921D01*
X142315951Y-68256921D02*
X142346189Y-68226682D01*
X142346189Y-68226682D02*
X142346189Y-68015016D01*
X142346189Y-68015016D02*
X142225237Y-68015016D01*
X142739284Y-67652159D02*
X142799761Y-67652159D01*
X142799761Y-67652159D02*
X142860237Y-67682397D01*
X142860237Y-67682397D02*
X142890475Y-67712635D01*
X142890475Y-67712635D02*
X142920713Y-67773111D01*
X142920713Y-67773111D02*
X142950951Y-67894063D01*
X142950951Y-67894063D02*
X142950951Y-68045254D01*
X142950951Y-68045254D02*
X142920713Y-68166206D01*
X142920713Y-68166206D02*
X142890475Y-68226682D01*
X142890475Y-68226682D02*
X142860237Y-68256921D01*
X142860237Y-68256921D02*
X142799761Y-68287159D01*
X142799761Y-68287159D02*
X142739284Y-68287159D01*
X142739284Y-68287159D02*
X142678808Y-68256921D01*
X142678808Y-68256921D02*
X142648570Y-68226682D01*
X142648570Y-68226682D02*
X142618332Y-68166206D01*
X142618332Y-68166206D02*
X142588094Y-68045254D01*
X142588094Y-68045254D02*
X142588094Y-67894063D01*
X142588094Y-67894063D02*
X142618332Y-67773111D01*
X142618332Y-67773111D02*
X142648570Y-67712635D01*
X142648570Y-67712635D02*
X142678808Y-67682397D01*
X142678808Y-67682397D02*
X142739284Y-67652159D01*
X143706904Y-67954540D02*
X144190714Y-67954540D01*
X144190714Y-68135968D02*
X143706904Y-68135968D01*
X144976904Y-68287159D02*
X144976904Y-67652159D01*
X144976904Y-67954540D02*
X145339761Y-67954540D01*
X145339761Y-68287159D02*
X145339761Y-67652159D01*
X145763094Y-67652159D02*
X145884047Y-67652159D01*
X145884047Y-67652159D02*
X145944523Y-67682397D01*
X145944523Y-67682397D02*
X146004999Y-67742873D01*
X146004999Y-67742873D02*
X146035237Y-67863825D01*
X146035237Y-67863825D02*
X146035237Y-68075492D01*
X146035237Y-68075492D02*
X146004999Y-68196444D01*
X146004999Y-68196444D02*
X145944523Y-68256921D01*
X145944523Y-68256921D02*
X145884047Y-68287159D01*
X145884047Y-68287159D02*
X145763094Y-68287159D01*
X145763094Y-68287159D02*
X145702618Y-68256921D01*
X145702618Y-68256921D02*
X145642142Y-68196444D01*
X145642142Y-68196444D02*
X145611904Y-68075492D01*
X145611904Y-68075492D02*
X145611904Y-67863825D01*
X145611904Y-67863825D02*
X145642142Y-67742873D01*
X145642142Y-67742873D02*
X145702618Y-67682397D01*
X145702618Y-67682397D02*
X145763094Y-67652159D01*
X146277142Y-68256921D02*
X146367856Y-68287159D01*
X146367856Y-68287159D02*
X146519047Y-68287159D01*
X146519047Y-68287159D02*
X146579523Y-68256921D01*
X146579523Y-68256921D02*
X146609761Y-68226682D01*
X146609761Y-68226682D02*
X146639999Y-68166206D01*
X146639999Y-68166206D02*
X146639999Y-68105730D01*
X146639999Y-68105730D02*
X146609761Y-68045254D01*
X146609761Y-68045254D02*
X146579523Y-68015016D01*
X146579523Y-68015016D02*
X146519047Y-67984778D01*
X146519047Y-67984778D02*
X146398094Y-67954540D01*
X146398094Y-67954540D02*
X146337618Y-67924301D01*
X146337618Y-67924301D02*
X146307380Y-67894063D01*
X146307380Y-67894063D02*
X146277142Y-67833587D01*
X146277142Y-67833587D02*
X146277142Y-67773111D01*
X146277142Y-67773111D02*
X146307380Y-67712635D01*
X146307380Y-67712635D02*
X146337618Y-67682397D01*
X146337618Y-67682397D02*
X146398094Y-67652159D01*
X146398094Y-67652159D02*
X146549285Y-67652159D01*
X146549285Y-67652159D02*
X146639999Y-67682397D01*
X146821428Y-67652159D02*
X147184285Y-67652159D01*
X147002856Y-68287159D02*
X147002856Y-67652159D01*
X148182143Y-67652159D02*
X147879762Y-67652159D01*
X147879762Y-67652159D02*
X147849524Y-67954540D01*
X147849524Y-67954540D02*
X147879762Y-67924301D01*
X147879762Y-67924301D02*
X147940238Y-67894063D01*
X147940238Y-67894063D02*
X148091429Y-67894063D01*
X148091429Y-67894063D02*
X148151905Y-67924301D01*
X148151905Y-67924301D02*
X148182143Y-67954540D01*
X148182143Y-67954540D02*
X148212381Y-68015016D01*
X148212381Y-68015016D02*
X148212381Y-68166206D01*
X148212381Y-68166206D02*
X148182143Y-68226682D01*
X148182143Y-68226682D02*
X148151905Y-68256921D01*
X148151905Y-68256921D02*
X148091429Y-68287159D01*
X148091429Y-68287159D02*
X147940238Y-68287159D01*
X147940238Y-68287159D02*
X147879762Y-68256921D01*
X147879762Y-68256921D02*
X147849524Y-68226682D01*
X148393810Y-67652159D02*
X148605476Y-68287159D01*
X148605476Y-68287159D02*
X148817143Y-67652159D01*
X150558952Y-82687466D02*
X150558952Y-83098704D01*
X150558952Y-83098704D02*
X150583142Y-83147085D01*
X150583142Y-83147085D02*
X150607333Y-83171276D01*
X150607333Y-83171276D02*
X150655714Y-83195466D01*
X150655714Y-83195466D02*
X150752476Y-83195466D01*
X150752476Y-83195466D02*
X150800857Y-83171276D01*
X150800857Y-83171276D02*
X150825047Y-83147085D01*
X150825047Y-83147085D02*
X150849238Y-83098704D01*
X150849238Y-83098704D02*
X150849238Y-82687466D01*
X151066951Y-83171276D02*
X151139523Y-83195466D01*
X151139523Y-83195466D02*
X151260475Y-83195466D01*
X151260475Y-83195466D02*
X151308856Y-83171276D01*
X151308856Y-83171276D02*
X151333047Y-83147085D01*
X151333047Y-83147085D02*
X151357237Y-83098704D01*
X151357237Y-83098704D02*
X151357237Y-83050323D01*
X151357237Y-83050323D02*
X151333047Y-83001942D01*
X151333047Y-83001942D02*
X151308856Y-82977752D01*
X151308856Y-82977752D02*
X151260475Y-82953561D01*
X151260475Y-82953561D02*
X151163713Y-82929371D01*
X151163713Y-82929371D02*
X151115332Y-82905180D01*
X151115332Y-82905180D02*
X151091142Y-82880990D01*
X151091142Y-82880990D02*
X151066951Y-82832609D01*
X151066951Y-82832609D02*
X151066951Y-82784228D01*
X151066951Y-82784228D02*
X151091142Y-82735847D01*
X151091142Y-82735847D02*
X151115332Y-82711656D01*
X151115332Y-82711656D02*
X151163713Y-82687466D01*
X151163713Y-82687466D02*
X151284666Y-82687466D01*
X151284666Y-82687466D02*
X151357237Y-82711656D01*
X151744285Y-82929371D02*
X151816857Y-82953561D01*
X151816857Y-82953561D02*
X151841047Y-82977752D01*
X151841047Y-82977752D02*
X151865238Y-83026133D01*
X151865238Y-83026133D02*
X151865238Y-83098704D01*
X151865238Y-83098704D02*
X151841047Y-83147085D01*
X151841047Y-83147085D02*
X151816857Y-83171276D01*
X151816857Y-83171276D02*
X151768476Y-83195466D01*
X151768476Y-83195466D02*
X151574952Y-83195466D01*
X151574952Y-83195466D02*
X151574952Y-82687466D01*
X151574952Y-82687466D02*
X151744285Y-82687466D01*
X151744285Y-82687466D02*
X151792666Y-82711656D01*
X151792666Y-82711656D02*
X151816857Y-82735847D01*
X151816857Y-82735847D02*
X151841047Y-82784228D01*
X151841047Y-82784228D02*
X151841047Y-82832609D01*
X151841047Y-82832609D02*
X151816857Y-82880990D01*
X151816857Y-82880990D02*
X151792666Y-82905180D01*
X151792666Y-82905180D02*
X151744285Y-82929371D01*
X151744285Y-82929371D02*
X151574952Y-82929371D01*
X150014666Y-84013346D02*
X150014666Y-83505346D01*
X150014666Y-83505346D02*
X150135618Y-83505346D01*
X150135618Y-83505346D02*
X150208190Y-83529536D01*
X150208190Y-83529536D02*
X150256571Y-83577917D01*
X150256571Y-83577917D02*
X150280761Y-83626298D01*
X150280761Y-83626298D02*
X150304952Y-83723060D01*
X150304952Y-83723060D02*
X150304952Y-83795632D01*
X150304952Y-83795632D02*
X150280761Y-83892394D01*
X150280761Y-83892394D02*
X150256571Y-83940775D01*
X150256571Y-83940775D02*
X150208190Y-83989156D01*
X150208190Y-83989156D02*
X150135618Y-84013346D01*
X150135618Y-84013346D02*
X150014666Y-84013346D01*
X150522666Y-83747251D02*
X150691999Y-83747251D01*
X150764571Y-84013346D02*
X150522666Y-84013346D01*
X150522666Y-84013346D02*
X150522666Y-83505346D01*
X150522666Y-83505346D02*
X150764571Y-83505346D01*
X150909713Y-83505346D02*
X151079047Y-84013346D01*
X151079047Y-84013346D02*
X151248380Y-83505346D01*
X151417714Y-84013346D02*
X151417714Y-83505346D01*
X151949905Y-83964965D02*
X151925714Y-83989156D01*
X151925714Y-83989156D02*
X151853143Y-84013346D01*
X151853143Y-84013346D02*
X151804762Y-84013346D01*
X151804762Y-84013346D02*
X151732190Y-83989156D01*
X151732190Y-83989156D02*
X151683809Y-83940775D01*
X151683809Y-83940775D02*
X151659619Y-83892394D01*
X151659619Y-83892394D02*
X151635428Y-83795632D01*
X151635428Y-83795632D02*
X151635428Y-83723060D01*
X151635428Y-83723060D02*
X151659619Y-83626298D01*
X151659619Y-83626298D02*
X151683809Y-83577917D01*
X151683809Y-83577917D02*
X151732190Y-83529536D01*
X151732190Y-83529536D02*
X151804762Y-83505346D01*
X151804762Y-83505346D02*
X151853143Y-83505346D01*
X151853143Y-83505346D02*
X151925714Y-83529536D01*
X151925714Y-83529536D02*
X151949905Y-83553727D01*
X152167619Y-83747251D02*
X152336952Y-83747251D01*
X152409524Y-84013346D02*
X152167619Y-84013346D01*
X152167619Y-84013346D02*
X152167619Y-83505346D01*
X152167619Y-83505346D02*
X152409524Y-83505346D01*
X126928406Y-92134571D02*
X126420406Y-92134571D01*
X126420406Y-92134571D02*
X126928406Y-91844285D01*
X126928406Y-91844285D02*
X126420406Y-91844285D01*
X126928406Y-91312095D02*
X126686501Y-91481429D01*
X126928406Y-91602381D02*
X126420406Y-91602381D01*
X126420406Y-91602381D02*
X126420406Y-91408857D01*
X126420406Y-91408857D02*
X126444596Y-91360476D01*
X126444596Y-91360476D02*
X126468787Y-91336286D01*
X126468787Y-91336286D02*
X126517168Y-91312095D01*
X126517168Y-91312095D02*
X126589739Y-91312095D01*
X126589739Y-91312095D02*
X126638120Y-91336286D01*
X126638120Y-91336286D02*
X126662311Y-91360476D01*
X126662311Y-91360476D02*
X126686501Y-91408857D01*
X126686501Y-91408857D02*
X126686501Y-91602381D01*
X126904216Y-91118572D02*
X126928406Y-91046000D01*
X126928406Y-91046000D02*
X126928406Y-90925048D01*
X126928406Y-90925048D02*
X126904216Y-90876667D01*
X126904216Y-90876667D02*
X126880025Y-90852476D01*
X126880025Y-90852476D02*
X126831644Y-90828286D01*
X126831644Y-90828286D02*
X126783263Y-90828286D01*
X126783263Y-90828286D02*
X126734882Y-90852476D01*
X126734882Y-90852476D02*
X126710692Y-90876667D01*
X126710692Y-90876667D02*
X126686501Y-90925048D01*
X126686501Y-90925048D02*
X126662311Y-91021810D01*
X126662311Y-91021810D02*
X126638120Y-91070191D01*
X126638120Y-91070191D02*
X126613930Y-91094381D01*
X126613930Y-91094381D02*
X126565549Y-91118572D01*
X126565549Y-91118572D02*
X126517168Y-91118572D01*
X126517168Y-91118572D02*
X126468787Y-91094381D01*
X126468787Y-91094381D02*
X126444596Y-91070191D01*
X126444596Y-91070191D02*
X126420406Y-91021810D01*
X126420406Y-91021810D02*
X126420406Y-90900857D01*
X126420406Y-90900857D02*
X126444596Y-90828286D01*
X126420406Y-90683143D02*
X126420406Y-90392857D01*
X126928406Y-90538000D02*
X126420406Y-90538000D01*
X161756015Y-55314285D02*
X161756015Y-55885713D01*
X161756015Y-55599999D02*
X160756015Y-55599999D01*
X160756015Y-55599999D02*
X160898872Y-55695237D01*
X160898872Y-55695237D02*
X160994110Y-55790475D01*
X160994110Y-55790475D02*
X161041729Y-55885713D01*
X160756015Y-53233332D02*
X160756015Y-52614285D01*
X160756015Y-52614285D02*
X161136967Y-52947618D01*
X161136967Y-52947618D02*
X161136967Y-52804761D01*
X161136967Y-52804761D02*
X161184586Y-52709523D01*
X161184586Y-52709523D02*
X161232205Y-52661904D01*
X161232205Y-52661904D02*
X161327443Y-52614285D01*
X161327443Y-52614285D02*
X161565538Y-52614285D01*
X161565538Y-52614285D02*
X161660776Y-52661904D01*
X161660776Y-52661904D02*
X161708396Y-52709523D01*
X161708396Y-52709523D02*
X161756015Y-52804761D01*
X161756015Y-52804761D02*
X161756015Y-53090475D01*
X161756015Y-53090475D02*
X161708396Y-53185713D01*
X161708396Y-53185713D02*
X161660776Y-53233332D01*
D11*
X146820095Y-69558819D02*
X147391523Y-69558819D01*
X147105809Y-70558819D02*
X147105809Y-69558819D01*
X147724857Y-70558819D02*
X147724857Y-69558819D01*
X147724857Y-69558819D02*
X148105809Y-69558819D01*
X148105809Y-69558819D02*
X148201047Y-69606438D01*
X148201047Y-69606438D02*
X148248666Y-69654057D01*
X148248666Y-69654057D02*
X148296285Y-69749295D01*
X148296285Y-69749295D02*
X148296285Y-69892152D01*
X148296285Y-69892152D02*
X148248666Y-69987390D01*
X148248666Y-69987390D02*
X148201047Y-70035009D01*
X148201047Y-70035009D02*
X148105809Y-70082628D01*
X148105809Y-70082628D02*
X147724857Y-70082628D01*
X148629619Y-69558819D02*
X149248666Y-69558819D01*
X149248666Y-69558819D02*
X148915333Y-69939771D01*
X148915333Y-69939771D02*
X149058190Y-69939771D01*
X149058190Y-69939771D02*
X149153428Y-69987390D01*
X149153428Y-69987390D02*
X149201047Y-70035009D01*
X149201047Y-70035009D02*
X149248666Y-70130247D01*
X149248666Y-70130247D02*
X149248666Y-70368342D01*
X149248666Y-70368342D02*
X149201047Y-70463580D01*
X149201047Y-70463580D02*
X149153428Y-70511200D01*
X149153428Y-70511200D02*
X149058190Y-70558819D01*
X149058190Y-70558819D02*
X148772476Y-70558819D01*
X148772476Y-70558819D02*
X148677238Y-70511200D01*
X148677238Y-70511200D02*
X148629619Y-70463580D01*
X146566095Y-76670819D02*
X147137523Y-76670819D01*
X146851809Y-77670819D02*
X146851809Y-76670819D01*
X147470857Y-77670819D02*
X147470857Y-76670819D01*
X147470857Y-76670819D02*
X147851809Y-76670819D01*
X147851809Y-76670819D02*
X147947047Y-76718438D01*
X147947047Y-76718438D02*
X147994666Y-76766057D01*
X147994666Y-76766057D02*
X148042285Y-76861295D01*
X148042285Y-76861295D02*
X148042285Y-77004152D01*
X148042285Y-77004152D02*
X147994666Y-77099390D01*
X147994666Y-77099390D02*
X147947047Y-77147009D01*
X147947047Y-77147009D02*
X147851809Y-77194628D01*
X147851809Y-77194628D02*
X147470857Y-77194628D01*
X148423238Y-76766057D02*
X148470857Y-76718438D01*
X148470857Y-76718438D02*
X148566095Y-76670819D01*
X148566095Y-76670819D02*
X148804190Y-76670819D01*
X148804190Y-76670819D02*
X148899428Y-76718438D01*
X148899428Y-76718438D02*
X148947047Y-76766057D01*
X148947047Y-76766057D02*
X148994666Y-76861295D01*
X148994666Y-76861295D02*
X148994666Y-76956533D01*
X148994666Y-76956533D02*
X148947047Y-77099390D01*
X148947047Y-77099390D02*
X148375619Y-77670819D01*
X148375619Y-77670819D02*
X148994666Y-77670819D01*
D10*
X154458951Y-49520406D02*
X154749237Y-49520406D01*
X154604094Y-50028406D02*
X154604094Y-49520406D01*
X154918571Y-50028406D02*
X154918571Y-49520406D01*
X154918571Y-49520406D02*
X155112095Y-49520406D01*
X155112095Y-49520406D02*
X155160476Y-49544596D01*
X155160476Y-49544596D02*
X155184666Y-49568787D01*
X155184666Y-49568787D02*
X155208857Y-49617168D01*
X155208857Y-49617168D02*
X155208857Y-49689739D01*
X155208857Y-49689739D02*
X155184666Y-49738120D01*
X155184666Y-49738120D02*
X155160476Y-49762311D01*
X155160476Y-49762311D02*
X155112095Y-49786501D01*
X155112095Y-49786501D02*
X154918571Y-49786501D01*
X155644285Y-49520406D02*
X155547523Y-49520406D01*
X155547523Y-49520406D02*
X155499142Y-49544596D01*
X155499142Y-49544596D02*
X155474952Y-49568787D01*
X155474952Y-49568787D02*
X155426571Y-49641358D01*
X155426571Y-49641358D02*
X155402380Y-49738120D01*
X155402380Y-49738120D02*
X155402380Y-49931644D01*
X155402380Y-49931644D02*
X155426571Y-49980025D01*
X155426571Y-49980025D02*
X155450761Y-50004216D01*
X155450761Y-50004216D02*
X155499142Y-50028406D01*
X155499142Y-50028406D02*
X155595904Y-50028406D01*
X155595904Y-50028406D02*
X155644285Y-50004216D01*
X155644285Y-50004216D02*
X155668476Y-49980025D01*
X155668476Y-49980025D02*
X155692666Y-49931644D01*
X155692666Y-49931644D02*
X155692666Y-49810692D01*
X155692666Y-49810692D02*
X155668476Y-49762311D01*
X155668476Y-49762311D02*
X155644285Y-49738120D01*
X155644285Y-49738120D02*
X155595904Y-49713930D01*
X155595904Y-49713930D02*
X155499142Y-49713930D01*
X155499142Y-49713930D02*
X155450761Y-49738120D01*
X155450761Y-49738120D02*
X155426571Y-49762311D01*
X155426571Y-49762311D02*
X155402380Y-49810692D01*
X152725047Y-54328406D02*
X152725047Y-53820406D01*
X152725047Y-53820406D02*
X152845999Y-53820406D01*
X152845999Y-53820406D02*
X152918571Y-53844596D01*
X152918571Y-53844596D02*
X152966952Y-53892977D01*
X152966952Y-53892977D02*
X152991142Y-53941358D01*
X152991142Y-53941358D02*
X153015333Y-54038120D01*
X153015333Y-54038120D02*
X153015333Y-54110692D01*
X153015333Y-54110692D02*
X152991142Y-54207454D01*
X152991142Y-54207454D02*
X152966952Y-54255835D01*
X152966952Y-54255835D02*
X152918571Y-54304216D01*
X152918571Y-54304216D02*
X152845999Y-54328406D01*
X152845999Y-54328406D02*
X152725047Y-54328406D01*
X153499142Y-54328406D02*
X153208856Y-54328406D01*
X153353999Y-54328406D02*
X153353999Y-53820406D01*
X153353999Y-53820406D02*
X153305618Y-53892977D01*
X153305618Y-53892977D02*
X153257237Y-53941358D01*
X153257237Y-53941358D02*
X153208856Y-53965549D01*
X133122666Y-56404216D02*
X133195238Y-56428406D01*
X133195238Y-56428406D02*
X133316190Y-56428406D01*
X133316190Y-56428406D02*
X133364571Y-56404216D01*
X133364571Y-56404216D02*
X133388762Y-56380025D01*
X133388762Y-56380025D02*
X133412952Y-56331644D01*
X133412952Y-56331644D02*
X133412952Y-56283263D01*
X133412952Y-56283263D02*
X133388762Y-56234882D01*
X133388762Y-56234882D02*
X133364571Y-56210692D01*
X133364571Y-56210692D02*
X133316190Y-56186501D01*
X133316190Y-56186501D02*
X133219428Y-56162311D01*
X133219428Y-56162311D02*
X133171047Y-56138120D01*
X133171047Y-56138120D02*
X133146857Y-56113930D01*
X133146857Y-56113930D02*
X133122666Y-56065549D01*
X133122666Y-56065549D02*
X133122666Y-56017168D01*
X133122666Y-56017168D02*
X133146857Y-55968787D01*
X133146857Y-55968787D02*
X133171047Y-55944596D01*
X133171047Y-55944596D02*
X133219428Y-55920406D01*
X133219428Y-55920406D02*
X133340381Y-55920406D01*
X133340381Y-55920406D02*
X133412952Y-55944596D01*
X133582286Y-55920406D02*
X133703238Y-56428406D01*
X133703238Y-56428406D02*
X133800000Y-56065549D01*
X133800000Y-56065549D02*
X133896762Y-56428406D01*
X133896762Y-56428406D02*
X134017715Y-55920406D01*
X134187047Y-55968787D02*
X134211238Y-55944596D01*
X134211238Y-55944596D02*
X134259619Y-55920406D01*
X134259619Y-55920406D02*
X134380571Y-55920406D01*
X134380571Y-55920406D02*
X134428952Y-55944596D01*
X134428952Y-55944596D02*
X134453143Y-55968787D01*
X134453143Y-55968787D02*
X134477333Y-56017168D01*
X134477333Y-56017168D02*
X134477333Y-56065549D01*
X134477333Y-56065549D02*
X134453143Y-56138120D01*
X134453143Y-56138120D02*
X134162857Y-56428406D01*
X134162857Y-56428406D02*
X134477333Y-56428406D01*
X148615333Y-83856025D02*
X148591142Y-83880216D01*
X148591142Y-83880216D02*
X148518571Y-83904406D01*
X148518571Y-83904406D02*
X148470190Y-83904406D01*
X148470190Y-83904406D02*
X148397618Y-83880216D01*
X148397618Y-83880216D02*
X148349237Y-83831835D01*
X148349237Y-83831835D02*
X148325047Y-83783454D01*
X148325047Y-83783454D02*
X148300856Y-83686692D01*
X148300856Y-83686692D02*
X148300856Y-83614120D01*
X148300856Y-83614120D02*
X148325047Y-83517358D01*
X148325047Y-83517358D02*
X148349237Y-83468977D01*
X148349237Y-83468977D02*
X148397618Y-83420596D01*
X148397618Y-83420596D02*
X148470190Y-83396406D01*
X148470190Y-83396406D02*
X148518571Y-83396406D01*
X148518571Y-83396406D02*
X148591142Y-83420596D01*
X148591142Y-83420596D02*
X148615333Y-83444787D01*
X149099142Y-83904406D02*
X148808856Y-83904406D01*
X148953999Y-83904406D02*
X148953999Y-83396406D01*
X148953999Y-83396406D02*
X148905618Y-83468977D01*
X148905618Y-83468977D02*
X148857237Y-83517358D01*
X148857237Y-83517358D02*
X148808856Y-83541549D01*
X155215333Y-54828406D02*
X155045999Y-54586501D01*
X154925047Y-54828406D02*
X154925047Y-54320406D01*
X154925047Y-54320406D02*
X155118571Y-54320406D01*
X155118571Y-54320406D02*
X155166952Y-54344596D01*
X155166952Y-54344596D02*
X155191142Y-54368787D01*
X155191142Y-54368787D02*
X155215333Y-54417168D01*
X155215333Y-54417168D02*
X155215333Y-54489739D01*
X155215333Y-54489739D02*
X155191142Y-54538120D01*
X155191142Y-54538120D02*
X155166952Y-54562311D01*
X155166952Y-54562311D02*
X155118571Y-54586501D01*
X155118571Y-54586501D02*
X154925047Y-54586501D01*
X155699142Y-54828406D02*
X155408856Y-54828406D01*
X155553999Y-54828406D02*
X155553999Y-54320406D01*
X155553999Y-54320406D02*
X155505618Y-54392977D01*
X155505618Y-54392977D02*
X155457237Y-54441358D01*
X155457237Y-54441358D02*
X155408856Y-54465549D01*
X145030666Y-90796406D02*
X145030666Y-91159263D01*
X145030666Y-91159263D02*
X145006475Y-91231835D01*
X145006475Y-91231835D02*
X144958094Y-91280216D01*
X144958094Y-91280216D02*
X144885523Y-91304406D01*
X144885523Y-91304406D02*
X144837142Y-91304406D01*
X145490285Y-90796406D02*
X145393523Y-90796406D01*
X145393523Y-90796406D02*
X145345142Y-90820596D01*
X145345142Y-90820596D02*
X145320952Y-90844787D01*
X145320952Y-90844787D02*
X145272571Y-90917358D01*
X145272571Y-90917358D02*
X145248380Y-91014120D01*
X145248380Y-91014120D02*
X145248380Y-91207644D01*
X145248380Y-91207644D02*
X145272571Y-91256025D01*
X145272571Y-91256025D02*
X145296761Y-91280216D01*
X145296761Y-91280216D02*
X145345142Y-91304406D01*
X145345142Y-91304406D02*
X145441904Y-91304406D01*
X145441904Y-91304406D02*
X145490285Y-91280216D01*
X145490285Y-91280216D02*
X145514476Y-91256025D01*
X145514476Y-91256025D02*
X145538666Y-91207644D01*
X145538666Y-91207644D02*
X145538666Y-91086692D01*
X145538666Y-91086692D02*
X145514476Y-91038311D01*
X145514476Y-91038311D02*
X145490285Y-91014120D01*
X145490285Y-91014120D02*
X145441904Y-90989930D01*
X145441904Y-90989930D02*
X145345142Y-90989930D01*
X145345142Y-90989930D02*
X145296761Y-91014120D01*
X145296761Y-91014120D02*
X145272571Y-91038311D01*
X145272571Y-91038311D02*
X145248380Y-91086692D01*
X151249647Y-55023226D02*
X151249647Y-55386083D01*
X151249647Y-55386083D02*
X151225456Y-55458655D01*
X151225456Y-55458655D02*
X151177075Y-55507036D01*
X151177075Y-55507036D02*
X151104504Y-55531226D01*
X151104504Y-55531226D02*
X151056123Y-55531226D01*
X151757647Y-55531226D02*
X151467361Y-55531226D01*
X151612504Y-55531226D02*
X151612504Y-55023226D01*
X151612504Y-55023226D02*
X151564123Y-55095797D01*
X151564123Y-55095797D02*
X151515742Y-55144178D01*
X151515742Y-55144178D02*
X151467361Y-55168369D01*
X152358951Y-49520406D02*
X152649237Y-49520406D01*
X152504094Y-50028406D02*
X152504094Y-49520406D01*
X152818571Y-50028406D02*
X152818571Y-49520406D01*
X152818571Y-49520406D02*
X153012095Y-49520406D01*
X153012095Y-49520406D02*
X153060476Y-49544596D01*
X153060476Y-49544596D02*
X153084666Y-49568787D01*
X153084666Y-49568787D02*
X153108857Y-49617168D01*
X153108857Y-49617168D02*
X153108857Y-49689739D01*
X153108857Y-49689739D02*
X153084666Y-49738120D01*
X153084666Y-49738120D02*
X153060476Y-49762311D01*
X153060476Y-49762311D02*
X153012095Y-49786501D01*
X153012095Y-49786501D02*
X152818571Y-49786501D01*
X153592666Y-50028406D02*
X153302380Y-50028406D01*
X153447523Y-50028406D02*
X153447523Y-49520406D01*
X153447523Y-49520406D02*
X153399142Y-49592977D01*
X153399142Y-49592977D02*
X153350761Y-49641358D01*
X153350761Y-49641358D02*
X153302380Y-49665549D01*
X147222666Y-65104216D02*
X147295238Y-65128406D01*
X147295238Y-65128406D02*
X147416190Y-65128406D01*
X147416190Y-65128406D02*
X147464571Y-65104216D01*
X147464571Y-65104216D02*
X147488762Y-65080025D01*
X147488762Y-65080025D02*
X147512952Y-65031644D01*
X147512952Y-65031644D02*
X147512952Y-64983263D01*
X147512952Y-64983263D02*
X147488762Y-64934882D01*
X147488762Y-64934882D02*
X147464571Y-64910692D01*
X147464571Y-64910692D02*
X147416190Y-64886501D01*
X147416190Y-64886501D02*
X147319428Y-64862311D01*
X147319428Y-64862311D02*
X147271047Y-64838120D01*
X147271047Y-64838120D02*
X147246857Y-64813930D01*
X147246857Y-64813930D02*
X147222666Y-64765549D01*
X147222666Y-64765549D02*
X147222666Y-64717168D01*
X147222666Y-64717168D02*
X147246857Y-64668787D01*
X147246857Y-64668787D02*
X147271047Y-64644596D01*
X147271047Y-64644596D02*
X147319428Y-64620406D01*
X147319428Y-64620406D02*
X147440381Y-64620406D01*
X147440381Y-64620406D02*
X147512952Y-64644596D01*
X147682286Y-64620406D02*
X147803238Y-65128406D01*
X147803238Y-65128406D02*
X147900000Y-64765549D01*
X147900000Y-64765549D02*
X147996762Y-65128406D01*
X147996762Y-65128406D02*
X148117715Y-64620406D01*
X148528952Y-64789739D02*
X148528952Y-65128406D01*
X148408000Y-64596216D02*
X148287047Y-64959073D01*
X148287047Y-64959073D02*
X148601524Y-64959073D01*
X130030666Y-54920406D02*
X130030666Y-55283263D01*
X130030666Y-55283263D02*
X130006475Y-55355835D01*
X130006475Y-55355835D02*
X129958094Y-55404216D01*
X129958094Y-55404216D02*
X129885523Y-55428406D01*
X129885523Y-55428406D02*
X129837142Y-55428406D01*
X130248380Y-54968787D02*
X130272571Y-54944596D01*
X130272571Y-54944596D02*
X130320952Y-54920406D01*
X130320952Y-54920406D02*
X130441904Y-54920406D01*
X130441904Y-54920406D02*
X130490285Y-54944596D01*
X130490285Y-54944596D02*
X130514476Y-54968787D01*
X130514476Y-54968787D02*
X130538666Y-55017168D01*
X130538666Y-55017168D02*
X130538666Y-55065549D01*
X130538666Y-55065549D02*
X130514476Y-55138120D01*
X130514476Y-55138120D02*
X130224190Y-55428406D01*
X130224190Y-55428406D02*
X130538666Y-55428406D01*
X151930666Y-63020406D02*
X151930666Y-63383263D01*
X151930666Y-63383263D02*
X151906475Y-63455835D01*
X151906475Y-63455835D02*
X151858094Y-63504216D01*
X151858094Y-63504216D02*
X151785523Y-63528406D01*
X151785523Y-63528406D02*
X151737142Y-63528406D01*
X152414476Y-63020406D02*
X152172571Y-63020406D01*
X152172571Y-63020406D02*
X152148380Y-63262311D01*
X152148380Y-63262311D02*
X152172571Y-63238120D01*
X152172571Y-63238120D02*
X152220952Y-63213930D01*
X152220952Y-63213930D02*
X152341904Y-63213930D01*
X152341904Y-63213930D02*
X152390285Y-63238120D01*
X152390285Y-63238120D02*
X152414476Y-63262311D01*
X152414476Y-63262311D02*
X152438666Y-63310692D01*
X152438666Y-63310692D02*
X152438666Y-63431644D01*
X152438666Y-63431644D02*
X152414476Y-63480025D01*
X152414476Y-63480025D02*
X152390285Y-63504216D01*
X152390285Y-63504216D02*
X152341904Y-63528406D01*
X152341904Y-63528406D02*
X152220952Y-63528406D01*
X152220952Y-63528406D02*
X152172571Y-63504216D01*
X152172571Y-63504216D02*
X152148380Y-63480025D01*
X130930951Y-70870406D02*
X131221237Y-70870406D01*
X131076094Y-71378406D02*
X131076094Y-70870406D01*
X131390571Y-71378406D02*
X131390571Y-70870406D01*
X131390571Y-70870406D02*
X131584095Y-70870406D01*
X131584095Y-70870406D02*
X131632476Y-70894596D01*
X131632476Y-70894596D02*
X131656666Y-70918787D01*
X131656666Y-70918787D02*
X131680857Y-70967168D01*
X131680857Y-70967168D02*
X131680857Y-71039739D01*
X131680857Y-71039739D02*
X131656666Y-71088120D01*
X131656666Y-71088120D02*
X131632476Y-71112311D01*
X131632476Y-71112311D02*
X131584095Y-71136501D01*
X131584095Y-71136501D02*
X131390571Y-71136501D01*
X131850190Y-70870406D02*
X132188857Y-70870406D01*
X132188857Y-70870406D02*
X131971142Y-71378406D01*
X148528000Y-71628000D02*
G75*
G03*
X148528000Y-71628000I-700000J0D01*
G01*
X148528000Y-75692000D02*
G75*
G03*
X148528000Y-75692000I-700000J0D01*
G01*
D12*
X155800000Y-50900000D02*
G75*
G03*
X155800000Y-50900000I-700000J0D01*
G01*
X152500000Y-51850000D02*
X152500000Y-53550000D01*
X152500000Y-51850000D02*
X155050000Y-51850000D01*
X152500000Y-53550000D02*
X155050000Y-53550000D01*
X134650000Y-57900000D02*
X133150000Y-57900000D01*
X130650000Y-59150000D02*
X130650000Y-63650000D01*
X137150000Y-63650000D02*
X137150000Y-59150000D01*
X133150000Y-64900000D02*
X134650000Y-64900000D01*
X146740580Y-83066000D02*
X146459420Y-83066000D01*
X146740580Y-84086000D02*
X146459420Y-84086000D01*
X155822500Y-56262742D02*
X155822500Y-56737258D01*
X154777500Y-56262742D02*
X154777500Y-56737258D01*
D11*
X155250000Y-91121000D02*
X155250000Y-90971000D01*
X155250000Y-88571000D02*
X155250000Y-87171000D01*
X154950000Y-91571000D02*
X154950000Y-91121000D01*
X154950000Y-91121000D02*
X155250000Y-91121000D01*
X152900000Y-85421000D02*
X153625000Y-85421000D01*
X150025000Y-84996000D02*
X149300000Y-84996000D01*
X149300000Y-85421000D02*
X148575000Y-85421000D01*
X149300000Y-84996000D02*
X149300000Y-85421000D01*
X147250000Y-91121000D02*
X147250000Y-91571000D01*
X146950000Y-91121000D02*
X147250000Y-91121000D01*
X146950000Y-90971000D02*
X146950000Y-91121000D01*
X146950000Y-87171000D02*
X146950000Y-88571000D01*
D10*
X136290000Y-50100000D02*
X136290000Y-51200000D01*
X151710000Y-50100000D02*
X136290000Y-50100000D01*
X151710000Y-51200000D02*
X151710000Y-50100000D01*
D13*
X139321000Y-55589000D02*
G75*
G03*
X139321000Y-55589000I-100000J0D01*
G01*
D12*
X153700000Y-50900000D02*
G75*
G03*
X153700000Y-50900000I-700000J0D01*
G01*
X139490000Y-65320000D02*
X141340000Y-65320000D01*
X141340000Y-64670000D02*
X141340000Y-65320000D01*
X141340000Y-64670000D02*
X146860000Y-64670000D01*
X141340000Y-66061000D02*
X141340000Y-67330000D01*
X141340000Y-67330000D02*
X146860000Y-67330000D01*
X146860000Y-64670000D02*
X146860000Y-65939000D01*
X146860000Y-66061000D02*
X146860000Y-67330000D01*
X126670000Y-48670000D02*
X128000000Y-48670000D01*
X126670000Y-50000000D02*
X126670000Y-48670000D01*
X126670000Y-51270000D02*
X126670000Y-61490000D01*
X126670000Y-51270000D02*
X129330000Y-51270000D01*
X126670000Y-61490000D02*
X129330000Y-61490000D01*
X129330000Y-51270000D02*
X129330000Y-61490000D01*
X164580000Y-77710000D02*
X165100000Y-77710000D01*
X165100000Y-77710000D02*
X165100000Y-63090000D01*
X149620000Y-77060000D02*
X152950000Y-77060000D01*
X149620000Y-77060000D02*
X149620000Y-63740000D01*
X164580000Y-77060000D02*
X164580000Y-77710000D01*
X164580000Y-77060000D02*
X156470000Y-77060000D01*
X149400000Y-74800000D02*
X149400000Y-73000000D01*
X149620000Y-63740000D02*
X152950000Y-63740000D01*
X156470000Y-63740000D02*
X164580000Y-63740000D01*
X164580000Y-63090000D02*
X164580000Y-63740000D01*
X165100000Y-63090000D02*
X164580000Y-63090000D01*
X132272000Y-69850000D02*
G75*
G03*
X132272000Y-69850000I-700000J0D01*
G01*
%LPC*%
D14*
X147828000Y-71628000D03*
X147828000Y-75692000D03*
X155100000Y-50900000D03*
D15*
X152950000Y-52700000D03*
X155050000Y-52700000D03*
D16*
X136150000Y-58150000D03*
X136150000Y-64650000D03*
X131650000Y-58150000D03*
X131650000Y-64650000D03*
D17*
X145825000Y-83576000D03*
X147375000Y-83576000D03*
D18*
X155300000Y-55675000D03*
X155300000Y-57325000D03*
D19*
X154975000Y-89771000D03*
D16*
X154825000Y-85971000D03*
X147375000Y-85971000D03*
D19*
X147225000Y-89771000D03*
D20*
X152400000Y-85921000D03*
X151750000Y-85921000D03*
X151100000Y-85921000D03*
X150450000Y-85921000D03*
X149800000Y-85921000D03*
D21*
X153600000Y-87021000D03*
X148600000Y-87021000D03*
D22*
X148750000Y-54700000D03*
X148250000Y-54700000D03*
X147750000Y-54700000D03*
X147250000Y-54700000D03*
X146750000Y-54700000D03*
X146250000Y-54700000D03*
X145750000Y-54700000D03*
X145250000Y-54700000D03*
X144750000Y-54700000D03*
X144250000Y-54700000D03*
X143750000Y-54700000D03*
X143250000Y-54700000D03*
X142750000Y-54700000D03*
X142250000Y-54700000D03*
X141750000Y-54700000D03*
X141250000Y-54700000D03*
X140750000Y-54700000D03*
X140250000Y-54700000D03*
X139750000Y-54700000D03*
X139250000Y-54700000D03*
D23*
X150420000Y-53000000D03*
X137580000Y-53000000D03*
D14*
X153000000Y-50900000D03*
D24*
X140290000Y-66000000D03*
X147910000Y-66000000D03*
D25*
X128000000Y-50000000D03*
D26*
X128000000Y-52540000D03*
X128000000Y-55080000D03*
X128000000Y-57620000D03*
X128000000Y-60160000D03*
D27*
X152000000Y-73900000D03*
D28*
X152000000Y-71400000D03*
X152000000Y-69400000D03*
X152000000Y-66900000D03*
D29*
X154710000Y-76970000D03*
X154710000Y-63830000D03*
D14*
X131572000Y-69850000D03*
%LPD*%
M02*
