M48
; DRILL file {KiCad 7.0.6-0} date 2024 August 28, Wednesday 16:49:18
; FORMAT={-:-/ absolute / metric / decimal}
; #@! TF.CreationDate,2024-08-28T16:49:18-06:00
; #@! TF.GenerationSoftware,Kicad,Pcbnew,7.0.6-0
; #@! TF.FileFunction,Plated,1,2,PTH
FMAT,2
METRIC
; #@! TA.AperFunction,Plated,PTH,ViaDrill
T1C0.254
; #@! TA.AperFunction,Plated,PTH,ComponentDrill
T2C0.737
; #@! TA.AperFunction,Plated,PTH,ComponentDrill
T3C0.750
; #@! TA.AperFunction,Plated,PTH,ComponentDrill
T4C0.950
; #@! TA.AperFunction,Plated,PTH,ComponentDrill
T5C1.000
; #@! TA.AperFunction,Plated,PTH,ComponentDrill
T6C1.100
; #@! TA.AperFunction,Plated,PTH,ComponentDrill
T7C1.200
; #@! TA.AperFunction,Plated,PTH,ComponentDrill
T8C1.400
; #@! TA.AperFunction,Plated,PTH,ComponentDrill
T9C2.300
%
G90
G05
T1
X127.4Y-79.4
X127.4Y-81.9
X127.4Y-83.2
X128.0Y-69.0
X130.9Y-81.9
X131.0Y-51.0
X131.0Y-79.4
X131.0Y-85.8
X131.1Y-83.2
X131.5Y-72.0
X131.8Y-76.9
X132.4Y-87.3
X136.5Y-73.0
X136.5Y-82.0
X136.5Y-89.0
X137.5Y-55.4
X142.1Y-80.6
X144.2Y-53.0
X144.6Y-90.576
X144.7Y-83.576
X144.8Y-56.1
X145.2Y-53.3
X145.4Y-80.6
X146.0Y-49.0
X146.2Y-53.3
X147.7Y-53.3
X150.4Y-55.3
X151.6Y-90.576
X152.4Y-84.476
X152.4Y-87.376
X153.3Y-85.976
X154.0Y-49.0
X157.0Y-54.0
X157.0Y-71.0
X157.2Y-56.5
X158.6Y-66.1
X160.0Y-62.0
X161.0Y-50.0
T2
X131.572Y-69.85
X153.0Y-50.9
X155.1Y-50.9
T3
X147.828Y-71.628
X147.828Y-75.692
T4
X152.0Y-66.9
X152.0Y-69.4
X152.0Y-71.4
X152.0Y-73.9
T5
X128.0Y-50.0
X128.0Y-52.54
X128.0Y-55.08
X128.0Y-57.62
X128.0Y-60.16
T6
X131.65Y-58.15
X131.65Y-64.65
X136.15Y-58.15
X136.15Y-64.65
T7
X147.225Y-89.771
X154.975Y-89.771
T8
X147.375Y-85.971
X154.825Y-85.971
T9
X154.71Y-63.83
X154.71Y-76.97
T0
M30
